<svg width="32" height="25" viewBox="0 0 32 25" fill="none" xmlns="http://www.w3.org/2000/svg">
<path d="M27.089 2.98938C25.049 2.06938 22.8623 1.38938 20.5757 1.00271C20.5553 0.998803 20.5342 1.00132 20.5153 1.00992C20.4965 1.01852 20.4807 1.03278 20.4703 1.05071C20.1903 1.54271 19.8783 2.18405 19.6597 2.69071C17.2345 2.32836 14.7689 2.32836 12.3437 2.69071C12.1001 2.12919 11.8255 1.58168 11.521 1.05071C11.5107 1.03256 11.4951 1.01798 11.4762 1.00893C11.4574 0.999874 11.4363 0.996776 11.4157 1.00005C9.13033 1.38671 6.94366 2.06671 4.90233 2.98805C4.88477 2.99541 4.86988 3.00797 4.85966 3.02405C0.710331 9.12405 -0.427002 15.0734 0.131664 20.948C0.133219 20.9624 0.137685 20.9764 0.144791 20.989C0.151897 21.0016 0.161494 21.0126 0.172998 21.0214C2.59485 22.7846 5.29611 24.1278 8.16366 24.9947C8.18365 25.0009 8.20504 25.0008 8.22502 24.9947C8.245 24.9885 8.26265 24.9764 8.27566 24.96C8.89272 24.1348 9.43953 23.2593 9.91033 22.3427C9.91687 22.3302 9.92063 22.3164 9.92137 22.3023C9.92212 22.2882 9.91982 22.2741 9.91463 22.2609C9.90945 22.2478 9.9015 22.2359 9.89133 22.2261C9.88116 22.2163 9.86899 22.2087 9.85567 22.204C8.99434 21.8797 8.15978 21.4883 7.35966 21.0334C7.34529 21.0252 7.33317 21.0135 7.32441 20.9995C7.31564 20.9854 7.3105 20.9694 7.30944 20.9529C7.30838 20.9364 7.31145 20.9199 7.31835 20.9048C7.32525 20.8898 7.33578 20.8767 7.349 20.8667C7.517 20.7427 7.685 20.6134 7.845 20.484C7.8594 20.4724 7.87675 20.465 7.89511 20.4627C7.91347 20.4603 7.93213 20.4631 7.949 20.4707C13.185 22.8227 18.8557 22.8227 24.0303 20.4707C24.0473 20.4626 24.0661 20.4595 24.0847 20.4616C24.1033 20.4637 24.121 20.471 24.1357 20.4827C24.2957 20.6134 24.4623 20.7427 24.6317 20.8667C24.645 20.8765 24.6557 20.8894 24.6628 20.9043C24.67 20.9192 24.6733 20.9357 24.6725 20.9522C24.6717 20.9687 24.6668 20.9848 24.6583 20.9989C24.6498 21.0131 24.6379 21.0249 24.6237 21.0334C23.8263 21.492 22.997 21.88 22.1263 22.2027C22.113 22.2076 22.1008 22.2152 22.0906 22.2252C22.0804 22.2351 22.0725 22.2471 22.0673 22.2603C22.0621 22.2736 22.0598 22.2878 22.0606 22.302C22.0613 22.3162 22.0651 22.3301 22.0717 22.3427C22.5517 23.2587 23.101 24.1307 23.705 24.9587C23.7176 24.9757 23.7351 24.9884 23.7551 24.9951C23.7751 25.0018 23.7968 25.0021 23.817 24.996C26.6895 24.1316 29.3951 22.7877 31.8197 21.0214C31.8315 21.0131 31.8414 21.0024 31.8488 20.99C31.8561 20.9776 31.8608 20.9637 31.8623 20.9494C32.529 14.1574 30.745 8.25605 27.1303 3.02671C27.1215 3.00972 27.1068 2.99647 27.089 2.98938ZM10.693 17.3707C9.117 17.3707 7.817 15.9454 7.817 14.1974C7.817 12.448 9.09167 11.024 10.693 11.024C12.3063 11.024 13.5943 12.46 13.569 14.1974C13.569 15.9467 12.2943 17.3707 10.693 17.3707ZM21.3263 17.3707C19.749 17.3707 18.4503 15.9454 18.4503 14.1974C18.4503 12.448 19.7237 11.024 21.3263 11.024C22.9397 11.024 24.2277 12.46 24.2023 14.1974C24.2023 15.9467 22.941 17.3707 21.3263 17.3707Z" fill="white"/>
</svg>
