<svg width="50" height="50" viewBox="0 0 50 50" fill="none" xmlns="http://www.w3.org/2000/svg">
<path d="M41.1875 15.0625L41.2083 15.0417L33.4583 7.29167L31.25 9.5L35.6458 13.8958C33.6875 14.6458 32.2916 16.5208 32.2916 18.75C32.2916 19.434 32.4264 20.1112 32.6881 20.7431C32.9498 21.375 33.3335 21.9492 33.8171 22.4328C34.7939 23.4096 36.1186 23.9583 37.5 23.9583C38.25 23.9583 38.9375 23.7917 39.5833 23.5208V38.5417C39.5833 39.0942 39.3638 39.6241 38.9731 40.0148C38.5824 40.4055 38.0525 40.625 37.5 40.625C36.9474 40.625 36.4175 40.4055 36.0268 40.0148C35.6361 39.6241 35.4166 39.0942 35.4166 38.5417V29.1667C35.4166 28.0616 34.9777 27.0018 34.1963 26.2204C33.4149 25.439 32.355 25 31.25 25H29.1666V10.4167C29.1666 9.3116 28.7277 8.25179 27.9463 7.47039C27.1649 6.68899 26.105 6.25 25 6.25H12.5C11.3949 6.25 10.3351 6.68899 9.5537 7.47039C8.7723 8.25179 8.33331 9.3116 8.33331 10.4167V43.75H29.1666V28.125H32.2916V38.5417C32.2916 39.923 32.8404 41.2478 33.8171 42.2245C34.7939 43.2013 36.1186 43.75 37.5 43.75C38.1839 43.75 38.8612 43.6153 39.4931 43.3535C40.125 43.0918 40.6992 42.7082 41.1828 42.2245C41.6665 41.7409 42.0501 41.1667 42.3118 40.5348C42.5736 39.9029 42.7083 39.2256 42.7083 38.5417V18.75C42.7083 17.3125 42.125 16 41.1875 15.0625ZM25 28.125V39.5833H12.5V25H25V28.125ZM25 20.8333H12.5V10.4167H25V20.8333ZM37.5 20.8333C36.9474 20.8333 36.4175 20.6138 36.0268 20.2231C35.6361 19.8324 35.4166 19.3025 35.4166 18.75C35.4166 18.1975 35.6361 17.6676 36.0268 17.2769C36.4175 16.8862 36.9474 16.6667 37.5 16.6667C38.0525 16.6667 38.5824 16.8862 38.9731 17.2769C39.3638 17.6676 39.5833 18.1975 39.5833 18.75C39.5833 19.3025 39.3638 19.8324 38.9731 20.2231C38.5824 20.6138 38.0525 20.8333 37.5 20.8333Z" fill="url(#paint0_linear_5_3)"/>
<defs>
<linearGradient id="paint0_linear_5_3" x1="8" y1="6" x2="25.5208" y2="43.75" gradientUnits="userSpaceOnUse">
<stop stop-color="#149EED"/>
<stop offset="1" stop-color="#B440FC"/>
</linearGradient>
</defs>
</svg>
