<svg width="24" height="24" viewBox="0 0 24 24" fill="none" xmlns="http://www.w3.org/2000/svg">
  <path
    d="M21.4487 6.03846L21.4615 6.02566L16.6922 1.25641L15.3333 2.61539L18.0384 5.32049C16.8333 5.78203 15.9743 6.93588 15.9743 8.30769C15.9743 8.72862 16.0572 9.14536 16.2183 9.53422C16.3793 9.92308 16.6154 10.2764 16.913 10.574C17.5142 11.1751 18.3294 11.5128 19.1794 11.5128C19.641 11.5128 20.0641 11.4103 20.4615 11.2436V20.4872C20.4615 20.8272 20.3264 21.1533 20.086 21.3937C19.8455 21.6342 19.5194 21.7692 19.1794 21.7692C18.8394 21.7692 18.5133 21.6342 18.2729 21.3937C18.0324 21.1533 17.8974 20.8272 17.8974 20.4872V14.718C17.8974 14.0379 17.6273 13.3857 17.1464 12.9049C16.6655 12.424 16.0133 12.1538 15.3333 12.1538H14.0512V3.17951C14.0512 2.49945 13.7811 1.84726 13.3002 1.3664C12.8194 0.885535 12.1671 0.615387 11.4871 0.615387H3.79483C3.11477 0.615387 2.46258 0.885535 1.98172 1.3664C1.50086 1.84726 1.23071 2.49945 1.23071 3.17951V23.6923H14.0512V14.0769H15.9743V20.4872C15.9743 21.3372 16.312 22.1525 16.913 22.7535C17.5142 23.3546 18.3294 23.6923 19.1794 23.6923C19.6003 23.6923 20.0171 23.6094 20.406 23.4483C20.7948 23.2873 21.1482 23.0512 21.4458 22.7535C21.7434 22.4559 21.9795 22.1026 22.1406 21.7137C22.3017 21.3249 22.3846 20.9081 22.3846 20.4872V8.30769C22.3846 7.42308 22.0256 6.61539 21.4487 6.03846ZM11.4871 14.0769V21.1282H3.79483V12.1538H11.4871V14.0769ZM11.4871 9.58973H3.79483V3.17951H11.4871V9.58973ZM19.1794 9.58973C18.8394 9.58973 18.5133 9.45465 18.2729 9.21422C18.0324 8.97379 17.8974 8.64769 17.8974 8.30769C17.8974 7.96769 18.0324 7.6416 18.2729 7.40117C18.5133 7.16074 18.8394 7.02566 19.1794 7.02566C19.5194 7.02566 19.8455 7.16074 20.086 7.40117C20.3264 7.6416 20.4615 7.96769 20.4615 8.30769C20.4615 8.64769 20.3264 8.97379 20.086 9.21422C19.8455 9.45465 19.5194 9.58973 19.1794 9.58973Z"
    fill="url(#paint0_linear_505_4)" />
  <defs>
    <linearGradient id="paint0_linear_505_4" x1="1.0256" y1="0.461541" x2="11.8076" y2="23.6923"
      gradientUnits="userSpaceOnUse">
      <stop stop-color="#149EED" />
      <stop offset="1" stop-color="#B440FC" />
    </linearGradient>
  </defs>
</svg>