<svg width="181" height="48" viewBox="0 0 181 48" fill="none" xmlns="http://www.w3.org/2000/svg">
<rect width="48" height="48" rx="24" fill="url(#paint0_linear_230_9085)"/>
<path d="M19.8752 24.1103L20.1267 25.0781H20.1267L19.8752 24.1103ZM21.9107 23.6914L22.064 24.6795H22.064L21.9107 23.6914ZM23.3333 23.5164L23.2417 22.5206H23.2417L23.3333 23.5164ZM24.9012 23.4215L24.8711 22.422L24.9012 23.4215ZM27.7725 23.4796L27.7051 24.4773H27.7051L27.7725 23.4796ZM30.3333 38.6667L30.9593 37.8868L30.9587 37.8863L30.3333 38.6667ZM10.7486 32.9694L9.92095 33.5307L10.7486 32.9694ZM9.4204 17.3999L8.50965 16.987L9.4204 17.3999ZM14.7921 10.9135L14.2159 10.0962L14.7921 10.9135ZM33.2053 10.9116L33.7813 10.0942L33.2053 10.9116ZM30.3584 38.6868L30.7561 39.6043L30.3584 38.6868ZM18.9888 25.418C19.3488 25.2955 19.7277 25.1818 20.1267 25.0781L19.6238 23.1424C19.1784 23.2581 18.7523 23.3859 18.3446 23.5246L18.9888 25.418ZM20.1267 25.0781C20.5696 24.9631 21.0315 24.8606 21.5132 24.7725L21.1535 22.8051C20.6243 22.9019 20.1146 23.0149 19.6238 23.1424L20.1267 25.0781ZM21.5132 24.7725C21.694 24.7395 21.8776 24.7084 22.064 24.6795L21.7575 22.7032C21.5534 22.7348 21.3521 22.7688 21.1535 22.8051L21.5132 24.7725ZM22.064 24.6795C22.5018 24.6116 22.9554 24.5555 23.425 24.5122L23.2417 22.5206C22.7315 22.5676 22.2369 22.6288 21.7575 22.7032L22.064 24.6795ZM23.425 24.5122C23.635 24.4929 23.8482 24.4761 24.0647 24.4621L23.9353 22.4663C23.7009 22.4815 23.4697 22.4996 23.2417 22.5206L23.425 24.5122ZM24.0647 24.4621C24.348 24.4437 24.6368 24.43 24.9313 24.4211L24.8711 22.422C24.5537 22.4316 24.2418 22.4464 23.9353 22.4663L24.0647 24.4621ZM24.9313 24.4211C25.4791 24.4046 26.0467 24.4049 26.6347 24.4238L26.6987 22.4248C26.0703 22.4047 25.4613 22.4042 24.8711 22.422L24.9313 24.4211ZM26.6347 24.4238C26.9842 24.4349 27.341 24.4527 27.7051 24.4773L27.84 22.4818C27.4526 22.4557 27.0722 22.4367 26.6987 22.4248L26.6347 24.4238ZM27.7051 24.4773C28.1466 24.5071 28.6678 24.5469 29.2466 24.5973L29.4201 22.6049C28.8289 22.5534 28.2948 22.5126 27.84 22.4818L27.7051 24.4773ZM25 23.4642V8H23V23.4642H25ZM11.7222 33.1976C12.1355 31.4336 13.3939 27.3216 18.9888 25.418L18.3446 23.5246C11.7989 25.7516 10.2573 30.6828 9.77495 32.7413L11.7222 33.1976ZM24 39C18.8329 39 14.2754 36.3882 11.5762 32.4081L9.92095 33.5307C12.9765 38.0361 18.1419 41 24 41V39ZM11.5762 32.4081C9.95 30.0103 9 27.1176 9 24H7C7 27.5303 8.07719 30.8121 9.92095 33.5307L11.5762 32.4081ZM19.2742 23.677L10.0279 16.6056L8.81291 18.1943L18.0592 25.2656L19.2742 23.677ZM9 24C9 21.792 9.47644 19.698 10.3312 17.8129L8.50965 16.987C7.53963 19.1264 7 21.5015 7 24H9ZM10.3312 17.8129C11.4415 15.3641 13.1914 13.2653 15.3682 11.7308L14.2159 10.0962C11.751 11.8337 9.76852 14.2105 8.50965 16.987L10.3312 17.8129ZM15.3682 11.7308C17.809 10.0103 20.785 9 24 9V7C20.3591 7 16.9829 8.14569 14.2159 10.0962L15.3682 11.7308ZM13.9005 11.3664L20.4418 24.2418L22.2249 23.3359L15.6836 10.4606L13.9005 11.3664ZM32.319 10.4485L25.7804 22.9611L27.5529 23.8874L34.0916 11.3748L32.319 10.4485ZM24 9C27.2139 9 30.189 10.0096 32.6293 11.7291L33.7813 10.0942C31.0149 8.14492 27.6396 7 24 7V9ZM32.6293 11.7291C34.8055 13.2625 36.5553 15.3598 37.6662 17.807L39.4874 16.9804C38.2279 14.2057 36.2456 11.8305 33.7813 10.0942L32.6293 11.7291ZM37.6662 17.807C38.5226 19.6936 39 21.7897 39 24H41C41 21.4989 40.4593 19.1215 39.4874 16.9804L37.6662 17.807ZM29.8908 24.4313L39.1343 18.2239L38.0193 16.5635L28.7758 22.7709L29.8908 24.4313ZM29.2466 24.5973C32.2696 24.8605 36.7385 25.4015 39.66 26.2753L40.2331 24.3592C37.0976 23.4213 32.4483 22.8685 29.4201 22.6049L29.2466 24.5973ZM39 24C39 24.4164 38.9831 24.8286 38.9499 25.236L40.9433 25.3985C40.9809 24.9371 41 24.4707 41 24H39ZM38.9499 25.236C38.9494 25.2411 38.949 25.2461 38.9486 25.2512L40.9418 25.4156C40.9423 25.4099 40.9428 25.4042 40.9433 25.3985L38.9499 25.236ZM30.9587 37.8863C28.9458 36.2732 27.8885 34.7574 27.5083 33.4611C27.142 32.2124 27.3768 31.0873 28.1431 30.0884C28.9371 29.0536 30.3424 28.11 32.3664 27.4242C34.3796 26.742 36.9396 26.3381 39.9468 26.3334L39.9437 24.3334C36.7699 24.3383 33.9866 24.7635 31.7246 25.5299C29.4733 26.2928 27.6714 27.4176 26.5563 28.8711C25.4136 30.3606 25.0377 32.144 25.5892 34.0241C26.1267 35.8567 27.5158 37.6901 29.708 39.447L30.9587 37.8863ZM38.9486 25.2512C38.4848 30.8735 34.9178 35.6202 29.9606 37.7693L30.7561 39.6043C36.3706 37.1703 40.4156 31.7939 40.9418 25.4156L38.9486 25.2512ZM29.9606 37.7693C28.1349 38.5608 26.1201 39 24 39V41C26.3988 41 28.6841 40.5026 30.7561 39.6043L29.9606 37.7693ZM29.7073 39.4465L29.7324 39.4666L30.9844 37.9069L30.9593 37.8868L29.7073 39.4465Z" fill="#F8FAFC"/>
<path d="M73.504 37.384C75.2107 37.384 76.736 37.096 78.08 36.52C79.4453 35.944 80.5973 35.1867 81.536 34.248C82.4747 33.288 83.1467 32.2427 83.552 31.112L79.648 29.288C79.1787 30.4827 78.4107 31.4747 77.344 32.264C76.2987 33.032 75.0187 33.416 73.504 33.416C72.0107 33.416 70.6987 33.064 69.568 32.36C68.4373 31.656 67.552 30.6853 66.912 29.448C66.272 28.1893 65.952 26.728 65.952 25.064C65.952 23.4 66.272 21.9493 66.912 20.712C67.552 19.4533 68.4373 18.4827 69.568 17.8C70.6987 17.096 72.0107 16.744 73.504 16.744C75.0187 16.744 76.2987 17.1387 77.344 17.928C78.4107 18.696 79.1787 19.6773 79.648 20.872L83.552 19.048C83.1467 17.9173 82.4747 16.8827 81.536 15.944C80.5973 14.984 79.4453 14.216 78.08 13.64C76.736 13.064 75.2107 12.776 73.504 12.776C71.7973 12.776 70.2187 13.0853 68.768 13.704C67.3173 14.3013 66.0587 15.1547 64.992 16.264C63.9253 17.352 63.0933 18.6533 62.496 20.168C61.8987 21.6613 61.6 23.2933 61.6 25.064C61.6 26.8347 61.8987 28.4773 62.496 29.992C63.0933 31.4853 63.9253 32.7867 64.992 33.896C66.0587 35.0053 67.3173 35.8693 68.768 36.488C70.2187 37.0853 71.7973 37.384 73.504 37.384ZM91.7008 37.384C93.9621 37.384 95.7754 36.6373 97.1408 35.144V37H101.109V25.416C101.109 24.2 100.799 23.1227 100.181 22.184C99.5621 21.2453 98.7088 20.52 97.6208 20.008C96.5541 19.4747 95.3061 19.208 93.8767 19.208C92.1274 19.208 90.5701 19.624 89.2048 20.456C87.8394 21.288 86.9008 22.3867 86.3888 23.752L89.8128 25.416C90.1328 24.6267 90.6341 23.9973 91.3168 23.528C91.9994 23.0373 92.7994 22.792 93.7168 22.792C94.6768 22.792 95.4448 23.048 96.0208 23.56C96.6181 24.0507 96.9168 24.6693 96.9168 25.416V25.992L91.7328 26.824C89.6848 27.1653 88.1701 27.816 87.1888 28.776C86.2074 29.736 85.7168 30.9413 85.7168 32.392C85.7168 33.928 86.2608 35.144 87.3488 36.04C88.4368 36.936 89.8874 37.384 91.7008 37.384ZM90.0688 32.232C90.0688 31.016 90.8901 30.248 92.5328 29.928L96.9168 29.192V29.896C96.9168 31.0907 96.5008 32.104 95.6688 32.936C94.8581 33.768 93.7914 34.184 92.4688 34.184C91.7648 34.184 91.1888 34.0133 90.7408 33.672C90.2928 33.3093 90.0688 32.8293 90.0688 32.232ZM104.983 37H109.175V26.792C109.175 25.6613 109.485 24.7547 110.103 24.072C110.722 23.3893 111.533 23.048 112.535 23.048C113.559 23.048 114.37 23.3893 114.967 24.072C115.586 24.7333 115.895 25.64 115.895 26.792V37H120.087V26.792C120.087 25.6613 120.397 24.7547 121.015 24.072C121.634 23.3893 122.445 23.048 123.447 23.048C124.471 23.048 125.282 23.3893 125.879 24.072C126.498 24.7333 126.807 25.64 126.807 26.792V37H130.999V25.8C130.999 24.4987 130.711 23.3573 130.135 22.376C129.581 21.3733 128.823 20.5947 127.863 20.04C126.903 19.4853 125.805 19.208 124.567 19.208C123.415 19.208 122.37 19.4427 121.431 19.912C120.514 20.3813 119.757 21.0853 119.159 22.024C118.647 21.1707 117.911 20.488 116.951 19.976C116.013 19.464 114.957 19.208 113.783 19.208C112.695 19.208 111.725 19.4213 110.871 19.848C110.018 20.2747 109.367 20.9147 108.919 21.768V19.592H104.983V37ZM134.546 17.64H138.738V13.16H134.546V17.64ZM134.546 37H138.738V19.592H134.546V37ZM142.608 37H146.8V26.792C146.8 25.6613 147.12 24.7547 147.76 24.072C148.422 23.3893 149.275 23.048 150.32 23.048C151.366 23.048 152.208 23.3893 152.848 24.072C153.51 24.7333 153.84 25.64 153.84 26.792V37H158.032V25.8C158.032 24.4987 157.755 23.3573 157.2 22.376C156.646 21.3733 155.867 20.5947 154.864 20.04C153.883 19.4853 152.752 19.208 151.472 19.208C150.384 19.208 149.403 19.4213 148.528 19.848C147.675 20.2747 147.014 20.904 146.544 21.736V19.592H142.608V37ZM170.089 37.384C171.774 37.384 173.31 37 174.697 36.232C176.084 35.4427 177.193 34.3653 178.025 33C178.857 31.6133 179.273 30.0453 179.273 28.296C179.273 26.5467 178.857 24.9893 178.025 23.624C177.214 22.2587 176.116 21.1813 174.729 20.392C173.342 19.6027 171.796 19.208 170.089 19.208C168.361 19.208 166.804 19.6027 165.417 20.392C164.03 21.1813 162.921 22.2587 162.089 23.624C161.278 24.9893 160.873 26.5467 160.873 28.296C160.873 30.0453 161.278 31.6027 162.089 32.968C162.921 34.3333 164.03 35.4107 165.417 36.2C166.825 36.9893 168.382 37.384 170.089 37.384ZM170.089 33.544C169.15 33.544 168.308 33.32 167.561 32.872C166.836 32.424 166.26 31.8053 165.833 31.016C165.428 30.2053 165.225 29.2987 165.225 28.296C165.225 27.2933 165.428 26.3973 165.833 25.608C166.26 24.8187 166.836 24.2 167.561 23.752C168.308 23.2827 169.15 23.048 170.089 23.048C171.028 23.048 171.849 23.2827 172.553 23.752C173.278 24.2 173.844 24.8187 174.249 25.608C174.676 26.3973 174.889 27.2933 174.889 28.296C174.889 29.2987 174.676 30.2053 174.249 31.016C173.844 31.8053 173.278 32.424 172.553 32.872C171.849 33.32 171.028 33.544 170.089 33.544Z" fill="#F8FAFC"/>
<defs>
<linearGradient id="paint0_linear_230_9085" x1="0" y1="0" x2="48" y2="48" gradientUnits="userSpaceOnUse">
<stop offset="0.104757" stop-color="#149EED"/>
<stop offset="0.895243" stop-color="#B440FC"/>
</linearGradient>
</defs>
</svg>
