<svg width="151" height="40" viewBox="0 0 151 40" fill="none" xmlns="http://www.w3.org/2000/svg">
<rect width="40" height="40" rx="20" fill="url(#paint0_linear_108_5)"/>
<path d="M16.5627 20.0919L16.7722 20.8984H16.7722L16.5627 20.0919ZM18.2589 19.7428L18.3866 20.5663H18.3866L18.2589 19.7428ZM19.4444 19.597L19.368 18.7672L19.4444 19.597ZM20.751 19.5179L20.7259 18.685L20.751 19.5179ZM23.1438 19.5663L23.0876 20.3977L23.1438 19.5663ZM25.2778 32.2222L25.7994 31.5724L25.7989 31.5719L25.2778 32.2222ZM8.95714 27.4745L8.26746 27.9422L8.95714 27.4745ZM7.85033 14.4999L7.09137 14.1558H7.09137L7.85033 14.4999ZM12.3267 9.09457L11.8466 8.41345L12.3267 9.09457ZM27.6711 9.09303L28.1511 8.41182L27.6711 9.09303ZM25.2986 32.239L25.6301 33.0035L25.2986 32.239ZM15.824 21.1817C16.124 21.0796 16.4398 20.9848 16.7722 20.8984L16.3531 19.2853C15.982 19.3817 15.6269 19.4882 15.2871 19.6038L15.824 21.1817ZM16.7722 20.8984C17.1413 20.8025 17.5263 20.7171 17.9277 20.6438L17.6279 19.0043C17.187 19.0849 16.7622 19.179 16.3531 19.2853L16.7722 20.8984ZM17.9276 20.6438C18.0783 20.6162 18.2313 20.5904 18.3866 20.5663L18.1312 18.9193C17.9612 18.9457 17.7934 18.974 17.6279 19.0043L17.9276 20.6438ZM18.3866 20.5663C18.7515 20.5097 19.1295 20.4629 19.5208 20.4268L19.368 18.7672C18.9429 18.8063 18.5308 18.8573 18.1312 18.9193L18.3866 20.5663ZM19.5208 20.4268C19.6958 20.4107 19.8735 20.3968 20.0539 20.3851L19.9461 18.7219C19.7508 18.7346 19.5581 18.7497 19.368 18.7672L19.5208 20.4268ZM20.0539 20.3851C20.29 20.3698 20.5307 20.3583 20.7761 20.3509L20.7259 18.685C20.4614 18.693 20.2015 18.7053 19.9461 18.7219L20.0539 20.3851ZM20.7761 20.3509C21.2326 20.3371 21.7056 20.3374 22.1955 20.3531L22.2489 18.6873C21.7253 18.6705 21.2178 18.6702 20.7259 18.685L20.7761 20.3509ZM22.1955 20.3531C22.4869 20.3624 22.7842 20.3772 23.0876 20.3977L23.2 18.7348C22.8772 18.713 22.5602 18.6973 22.2489 18.6873L22.1955 20.3531ZM23.0876 20.3977C23.4555 20.4226 23.8898 20.4558 24.3722 20.4978L24.5167 18.8374C24.0241 18.7945 23.579 18.7605 23.2 18.7348L23.0876 20.3977ZM20.8333 19.5535V6.66666H19.1667V19.5535H20.8333ZM9.7685 27.6646C10.1129 26.1947 11.1616 22.768 15.824 21.1817L15.2871 19.6038C9.83244 21.4597 8.54773 25.569 8.14579 27.2844L9.7685 27.6646ZM20 32.5C15.694 32.5 11.8962 30.3235 9.64683 27.0068L8.26746 27.9422C10.8137 31.6967 15.1183 34.1667 20 34.1667V32.5ZM9.64683 27.0068C8.29167 25.0086 7.5 22.598 7.5 20H5.83333C5.83333 22.9419 6.73099 25.6767 8.26746 27.9422L9.64683 27.0068ZM16.0618 19.7308L8.35658 13.838L7.34409 15.1619L15.0493 21.0547L16.0618 19.7308ZM7.5 20C7.5 18.16 7.89703 16.415 8.6093 14.844L7.09137 14.1558C6.28302 15.9386 5.83333 17.9179 5.83333 20H7.5ZM8.6093 14.844C9.53455 12.8034 10.9928 11.0544 12.8068 9.77569L11.8466 8.41345C9.79249 9.86142 8.14044 11.8421 7.09137 14.1558L8.6093 14.844ZM12.8068 9.77569C14.8408 8.34192 17.3208 7.49999 20 7.49999V5.83332C16.9659 5.83332 14.1524 6.78807 11.8466 8.41345L12.8068 9.77569ZM11.5838 9.47202L17.0348 20.2015L18.5207 19.4466L13.0697 8.71712L11.5838 9.47202ZM26.9325 8.70708L21.4837 19.1343L22.9608 19.9062L28.4097 9.47898L26.9325 8.70708ZM20 7.49999C22.6783 7.49999 25.1575 8.34135 27.1911 9.77424L28.1511 8.41182C25.8457 6.78742 23.033 5.83332 20 5.83332V7.49999ZM27.1911 9.77424C29.0046 11.0521 30.4628 12.7998 31.3885 14.8392L32.9061 14.1503C31.8565 11.8381 30.2046 9.85878 28.1511 8.41182L27.1911 9.77424ZM31.3885 14.8392C32.1021 16.4114 32.5 18.1581 32.5 20H34.1667C34.1667 17.9158 33.716 15.9345 32.9061 14.1503L31.3885 14.8392ZM24.909 20.3594L32.6119 15.1866L31.6827 13.8029L23.9799 18.9758L24.909 20.3594ZM24.3722 20.4978C26.8913 20.7171 30.6154 21.1679 33.05 21.8961L33.5276 20.2993C30.9147 19.5178 27.0402 19.0571 24.5167 18.8374L24.3722 20.4978ZM32.5 20C32.5 20.347 32.4859 20.6905 32.4582 21.03L34.1194 21.1654C34.1507 20.7809 34.1667 20.3922 34.1667 20H32.5ZM32.4582 21.03C32.4579 21.0342 32.4575 21.0384 32.4572 21.0426L34.1182 21.1797C34.1186 21.1749 34.119 21.1702 34.1194 21.1654L32.4582 21.03ZM25.7989 31.5719C24.1215 30.2276 23.2404 28.9645 22.9236 27.8843C22.6183 26.8436 22.814 25.9061 23.4526 25.0737C24.1142 24.2113 25.2853 23.425 26.972 22.8534C28.6497 22.285 30.783 21.9484 33.289 21.9445L33.2864 20.2778C30.6416 20.2819 28.3222 20.6362 26.4371 21.2749C24.5611 21.9106 23.0595 22.848 22.1303 24.0592C21.178 25.3005 20.8647 26.7866 21.3243 28.3534C21.7723 29.8805 22.9298 31.4084 24.7566 32.8725L25.7989 31.5719ZM32.4572 21.0426C32.0706 25.7279 29.0982 29.6835 24.9672 31.4744L25.6301 33.0035C30.3088 30.9752 33.6797 26.4949 34.1182 21.1797L32.4572 21.0426ZM24.9672 31.4744C23.4458 32.134 21.7667 32.5 20 32.5V34.1667C21.999 34.1667 23.9034 33.7521 25.6301 33.0035L24.9672 31.4744ZM24.7561 32.8721L24.777 32.8888L25.8203 31.5891L25.7994 31.5724L24.7561 32.8721Z" fill="#F8FAFC"/>
<path d="M61.2533 31.32C59.8311 31.32 58.5156 31.0622 57.3067 30.5467C56.1156 30.0311 55.0667 29.3111 54.16 28.3867C53.2711 27.4622 52.5778 26.3778 52.08 25.1333C51.5822 23.8889 51.3333 22.5289 51.3333 21.0533C51.3333 19.5778 51.5733 18.2178 52.0533 16.9733C52.5511 15.7111 53.2444 14.6267 54.1333 13.72C55.04 12.7956 56.0978 12.0844 57.3067 11.5867C58.5156 11.0711 59.8311 10.8133 61.2533 10.8133C62.6756 10.8133 63.9467 11.0533 65.0667 11.5333C66.2044 12.0133 67.1644 12.6533 67.9467 13.4533C68.7289 14.2356 69.2889 15.0978 69.6267 16.04L66.3733 17.56C66 16.5644 65.3689 15.7467 64.48 15.1067C63.5911 14.4489 62.5156 14.12 61.2533 14.12C60.0089 14.12 58.9067 14.4133 57.9467 15C57.0044 15.5867 56.2667 16.3956 55.7333 17.4267C55.2178 18.4578 54.96 19.6667 54.96 21.0533C54.96 22.44 55.2178 23.6578 55.7333 24.7067C56.2667 25.7378 57.0044 26.5467 57.9467 27.1333C58.9067 27.72 60.0089 28.0133 61.2533 28.0133C62.5156 28.0133 63.5911 27.6933 64.48 27.0533C65.3689 26.3956 66 25.5689 66.3733 24.5733L69.6267 26.0933C69.2889 27.0356 68.7289 27.9067 67.9467 28.7067C67.1644 29.4889 66.2044 30.12 65.0667 30.6C63.9467 31.08 62.6756 31.32 61.2533 31.32ZM76.4173 31.32C75.404 31.32 74.524 31.1511 73.7773 30.8133C73.0306 30.4756 72.4528 29.9956 72.044 29.3733C71.6351 28.7333 71.4306 27.9956 71.4306 27.16C71.4306 26.36 71.6084 25.6489 71.964 25.0267C72.3195 24.3867 72.8706 23.8533 73.6173 23.4267C74.364 23 75.3062 22.6978 76.444 22.52L81.1906 21.7467V24.4133L77.1106 25.1067C76.4173 25.2311 75.9017 25.4533 75.564 25.7733C75.2262 26.0933 75.0573 26.5111 75.0573 27.0267C75.0573 27.5244 75.244 27.9244 75.6173 28.2267C76.0084 28.5111 76.4884 28.6533 77.0573 28.6533C77.7862 28.6533 78.4262 28.5022 78.9773 28.2C79.5462 27.88 79.9817 27.4444 80.284 26.8933C80.604 26.3422 80.764 25.7378 80.764 25.08V21.3467C80.764 20.7244 80.5151 20.2089 80.0173 19.8C79.5373 19.3733 78.8973 19.16 78.0973 19.16C77.3506 19.16 76.684 19.3644 76.0973 19.7733C75.5284 20.1644 75.1106 20.6889 74.844 21.3467L71.9906 19.96C72.2751 19.1956 72.7195 18.5378 73.324 17.9867C73.9462 17.4178 74.6751 16.9733 75.5106 16.6533C76.3462 16.3333 77.2528 16.1733 78.2306 16.1733C79.4217 16.1733 80.4706 16.3956 81.3773 16.84C82.284 17.2667 82.9862 17.8711 83.484 18.6533C83.9995 19.4178 84.2573 20.3156 84.2573 21.3467V31H80.9506V28.52L81.6973 28.4667C81.324 29.0889 80.8795 29.6133 80.364 30.04C79.8484 30.4489 79.2617 30.7689 78.604 31C77.9462 31.2133 77.2173 31.32 76.4173 31.32ZM87.486 31V16.4933H90.766V19.8533L90.3927 19.2933C90.6594 18.2444 91.1927 17.4622 91.9927 16.9467C92.7927 16.4311 93.7349 16.1733 94.8194 16.1733C96.0105 16.1733 97.0594 16.4844 97.966 17.1067C98.8727 17.7289 99.4594 18.5467 99.726 19.56L98.7394 19.64C99.1838 18.4844 99.8505 17.6222 100.739 17.0533C101.628 16.4667 102.65 16.1733 103.806 16.1733C104.837 16.1733 105.753 16.4044 106.553 16.8667C107.37 17.3289 108.01 17.9778 108.473 18.8133C108.935 19.6311 109.166 20.5822 109.166 21.6667V31H105.673V22.4933C105.673 21.8533 105.557 21.3022 105.326 20.84C105.095 20.3778 104.775 20.0222 104.366 19.7733C103.957 19.5067 103.459 19.3733 102.873 19.3733C102.322 19.3733 101.833 19.5067 101.406 19.7733C100.979 20.0222 100.65 20.3778 100.419 20.84C100.188 21.3022 100.073 21.8533 100.073 22.4933V31H96.5794V22.4933C96.5794 21.8533 96.4638 21.3022 96.2327 20.84C96.0016 20.3778 95.6727 20.0222 95.246 19.7733C94.8372 19.5067 94.3483 19.3733 93.7794 19.3733C93.2283 19.3733 92.7394 19.5067 92.3127 19.7733C91.886 20.0222 91.5572 20.3778 91.326 20.84C91.0949 21.3022 90.9794 21.8533 90.9794 22.4933V31H87.486ZM112.121 31V16.4933H115.615V31H112.121ZM112.121 14.8667V11.1333H115.615V14.8667H112.121ZM118.84 31V16.4933H122.12V19.3467L121.854 18.84C122.191 17.9689 122.742 17.3111 123.507 16.8667C124.289 16.4044 125.196 16.1733 126.227 16.1733C127.294 16.1733 128.236 16.4044 129.054 16.8667C129.889 17.3289 130.538 17.9778 131 18.8133C131.462 19.6311 131.694 20.5822 131.694 21.6667V31H128.2V22.4933C128.2 21.8533 128.076 21.3022 127.827 20.84C127.578 20.3778 127.231 20.0222 126.787 19.7733C126.36 19.5067 125.854 19.3733 125.267 19.3733C124.698 19.3733 124.191 19.5067 123.747 19.7733C123.302 20.0222 122.956 20.3778 122.707 20.84C122.458 21.3022 122.334 21.8533 122.334 22.4933V31H118.84ZM141.741 31.32C140.319 31.32 139.021 30.9911 137.847 30.3333C136.692 29.6756 135.767 28.7778 135.074 27.64C134.399 26.5022 134.061 25.2044 134.061 23.7467C134.061 22.2889 134.399 20.9911 135.074 19.8533C135.767 18.7156 136.692 17.8178 137.847 17.16C139.003 16.5022 140.301 16.1733 141.741 16.1733C143.163 16.1733 144.452 16.5022 145.607 17.16C146.763 17.8178 147.679 18.7156 148.354 19.8533C149.047 20.9733 149.394 22.2711 149.394 23.7467C149.394 25.2044 149.047 26.5022 148.354 27.64C147.661 28.7778 146.736 29.6756 145.581 30.3333C144.425 30.9911 143.145 31.32 141.741 31.32ZM141.741 28.12C142.523 28.12 143.207 27.9333 143.794 27.56C144.399 27.1867 144.87 26.6711 145.207 26.0133C145.563 25.3378 145.741 24.5822 145.741 23.7467C145.741 22.8933 145.563 22.1467 145.207 21.5067C144.87 20.8489 144.399 20.3333 143.794 19.96C143.207 19.5689 142.523 19.3733 141.741 19.3733C140.941 19.3733 140.239 19.5689 139.634 19.96C139.03 20.3333 138.55 20.8489 138.194 21.5067C137.856 22.1467 137.687 22.8933 137.687 23.7467C137.687 24.5822 137.856 25.3378 138.194 26.0133C138.55 26.6711 139.03 27.1867 139.634 27.56C140.239 27.9333 140.941 28.12 141.741 28.12Z" fill="#222222"/>
<defs>
<linearGradient id="paint0_linear_108_5" x1="0" y1="0" x2="40" y2="40" gradientUnits="userSpaceOnUse">
<stop offset="0.104757" stop-color="#149EED"/>
<stop offset="0.895243" stop-color="#B440FC"/>
</linearGradient>
</defs>
</svg>
