<svg width="151" height="40" viewBox="0 0 151 40" fill="none" xmlns="http://www.w3.org/2000/svg">
  <rect width="40" height="40" rx="20" fill="url(#paint0_linear_501_5)" />
  <path
    d="M20 6.66666V19.5535M20 6.66666C17.1434 6.66666 14.4966 7.56499 12.3267 9.09457M20 6.66666C22.8556 6.66666 25.5016 7.56439 27.6711 9.09303M15.5555 20.3927C15.8754 20.2839 16.2108 20.1833 16.5626 20.0919C16.9517 19.9908 17.3566 19.901 17.7777 19.824M15.5555 20.3927C10.497 22.1138 9.3303 25.8819 8.9571 27.4745M15.5555 20.3927L7.85029 14.4999M17.7777 19.824C17.9358 19.7951 18.0962 19.768 18.2589 19.7428C18.6411 19.6835 19.0362 19.6346 19.4444 19.597C19.6269 19.5802 19.8121 19.5657 20 19.5535M17.7777 19.824L12.3267 9.09457M20 19.5535C20.2457 19.5375 20.496 19.5256 20.751 19.5179C21.2251 19.5037 21.7154 19.504 22.2222 19.5202M22.2222 19.5202C22.5235 19.5299 22.8306 19.5451 23.1437 19.5663C23.5172 19.5915 23.9569 19.6251 24.4444 19.6676M22.2222 19.5202L27.6711 9.09303M24.4444 19.6676L32.1473 14.4947M24.4444 19.6676C26.9657 19.8871 30.765 20.3428 33.2888 21.0977M8.9571 27.4745C11.3549 31.0101 15.4061 33.3333 20 33.3333C21.8828 33.3333 23.6745 32.943 25.2986 32.239M8.9571 27.4745C7.51129 25.3426 6.66663 22.77 6.66663 20C6.66663 18.0389 7.08999 16.1768 7.85029 14.4999M7.85029 14.4999C8.83745 12.3227 10.3926 10.4579 12.3267 9.09457M27.6711 9.09303C29.6046 10.4554 31.1596 12.319 32.1473 14.4947M32.1473 14.4947C32.9091 16.173 33.3333 18.0369 33.3333 20C33.3333 20.3696 33.3183 20.7357 33.2888 21.0977M33.2888 21.0977C33.2884 21.1022 33.288 21.1067 33.2877 21.1111M33.2877 21.1111C22.986 21.1273 18.2692 26.6055 25.2777 32.2222L25.2986 32.239M33.2877 21.1111C32.8751 26.1114 29.7035 30.3294 25.2986 32.239"
    stroke="#F8FAFC" stroke-width="1.66667" />
  <path
    d="M61.2533 31.32C62.6756 31.32 63.9467 31.08 65.0667 30.6C66.2044 30.12 67.1644 29.4889 67.9467 28.7067C68.7289 27.9067 69.2889 27.0356 69.6267 26.0933L66.3733 24.5733C65.9822 25.5689 65.3422 26.3956 64.4533 27.0533C63.5822 27.6933 62.5156 28.0133 61.2533 28.0133C60.0089 28.0133 58.9156 27.72 57.9733 27.1333C57.0311 26.5467 56.2933 25.7378 55.76 24.7067C55.2267 23.6578 54.96 22.44 54.96 21.0533C54.96 19.6667 55.2267 18.4578 55.76 17.4267C56.2933 16.3778 57.0311 15.5689 57.9733 15C58.9156 14.4133 60.0089 14.12 61.2533 14.12C62.5156 14.12 63.5822 14.4489 64.4533 15.1067C65.3422 15.7467 65.9822 16.5644 66.3733 17.56L69.6267 16.04C69.2889 15.0978 68.7289 14.2356 67.9467 13.4533C67.1644 12.6533 66.2044 12.0133 65.0667 11.5333C63.9467 11.0533 62.6756 10.8133 61.2533 10.8133C59.8311 10.8133 58.5156 11.0711 57.3067 11.5867C56.0978 12.0844 55.0489 12.7956 54.16 13.72C53.2711 14.6267 52.5778 15.7111 52.08 16.9733C51.5822 18.2178 51.3333 19.5778 51.3333 21.0533C51.3333 22.5289 51.5822 23.8978 52.08 25.16C52.5778 26.4044 53.2711 27.4889 54.16 28.4133C55.0489 29.3378 56.0978 30.0578 57.3067 30.5733C58.5156 31.0711 59.8311 31.32 61.2533 31.32ZM76.4173 31.32C78.3017 31.32 79.8128 30.6978 80.9506 29.4533V31H84.2573V21.3467C84.2573 20.3333 83.9995 19.4356 83.484 18.6533C82.9684 17.8711 82.2573 17.2667 81.3506 16.84C80.4617 16.3956 79.4217 16.1733 78.2306 16.1733C76.7728 16.1733 75.4751 16.52 74.3373 17.2133C73.1995 17.9067 72.4173 18.8222 71.9906 19.96L74.844 21.3467C75.1106 20.6889 75.5284 20.1644 76.0973 19.7733C76.6662 19.3644 77.3328 19.16 78.0973 19.16C78.8973 19.16 79.5373 19.3733 80.0173 19.8C80.5151 20.2089 80.764 20.7244 80.764 21.3467V21.8267L76.444 22.52C74.7373 22.8044 73.4751 23.3467 72.6573 24.1467C71.8395 24.9467 71.4306 25.9511 71.4306 27.16C71.4306 28.44 71.884 29.4533 72.7906 30.2C73.6973 30.9467 74.9062 31.32 76.4173 31.32ZM75.0573 27.0267C75.0573 26.0133 75.7417 25.3733 77.1106 25.1067L80.764 24.4933V25.08C80.764 26.0756 80.4173 26.92 79.724 27.6133C79.0484 28.3067 78.1595 28.6533 77.0573 28.6533C76.4706 28.6533 75.9906 28.5111 75.6173 28.2267C75.244 27.9244 75.0573 27.5244 75.0573 27.0267ZM87.486 31H90.9794V22.4933C90.9794 21.5511 91.2372 20.7956 91.7527 20.2267C92.2683 19.6578 92.9438 19.3733 93.7794 19.3733C94.6327 19.3733 95.3083 19.6578 95.806 20.2267C96.3216 20.7778 96.5794 21.5333 96.5794 22.4933V31H100.073V22.4933C100.073 21.5511 100.33 20.7956 100.846 20.2267C101.362 19.6578 102.037 19.3733 102.873 19.3733C103.726 19.3733 104.402 19.6578 104.899 20.2267C105.415 20.7778 105.673 21.5333 105.673 22.4933V31H109.166V21.6667C109.166 20.5822 108.926 19.6311 108.446 18.8133C107.984 17.9778 107.353 17.3289 106.553 16.8667C105.753 16.4044 104.837 16.1733 103.806 16.1733C102.846 16.1733 101.975 16.3689 101.193 16.76C100.428 17.1511 99.7972 17.7378 99.2994 18.52C98.8727 17.8089 98.2594 17.24 97.4594 16.8133C96.6772 16.3867 95.7972 16.1733 94.8194 16.1733C93.9127 16.1733 93.1038 16.3511 92.3927 16.7067C91.6816 17.0622 91.1394 17.5956 90.766 18.3067V16.4933H87.486V31ZM112.121 14.8667H115.615V11.1333H112.121V14.8667ZM112.121 31H115.615V16.4933H112.121V31ZM118.84 31H122.334V22.4933C122.334 21.5511 122.6 20.7956 123.134 20.2267C123.685 19.6578 124.396 19.3733 125.267 19.3733C126.138 19.3733 126.84 19.6578 127.374 20.2267C127.925 20.7778 128.2 21.5333 128.2 22.4933V31H131.694V21.6667C131.694 20.5822 131.462 19.6311 131 18.8133C130.538 17.9778 129.889 17.3289 129.054 16.8667C128.236 16.4044 127.294 16.1733 126.227 16.1733C125.32 16.1733 124.502 16.3511 123.774 16.7067C123.062 17.0622 122.511 17.5867 122.12 18.28V16.4933H118.84V31ZM141.741 31.32C143.145 31.32 144.425 31 145.581 30.36C146.736 29.7022 147.661 28.8044 148.354 27.6667C149.047 26.5111 149.394 25.2044 149.394 23.7467C149.394 22.2889 149.047 20.9911 148.354 19.8533C147.679 18.7156 146.763 17.8178 145.607 17.16C144.452 16.5022 143.163 16.1733 141.741 16.1733C140.301 16.1733 139.003 16.5022 137.847 17.16C136.692 17.8178 135.767 18.7156 135.074 19.8533C134.399 20.9911 134.061 22.2889 134.061 23.7467C134.061 25.2044 134.399 26.5022 135.074 27.64C135.767 28.7778 136.692 29.6756 137.847 30.3333C139.021 30.9911 140.319 31.32 141.741 31.32ZM141.741 28.12C140.959 28.12 140.256 27.9333 139.634 27.56C139.03 27.1867 138.55 26.6711 138.194 26.0133C137.856 25.3378 137.687 24.5822 137.687 23.7467C137.687 22.9111 137.856 22.1644 138.194 21.5067C138.55 20.8489 139.03 20.3333 139.634 19.96C140.256 19.5689 140.959 19.3733 141.741 19.3733C142.523 19.3733 143.207 19.5689 143.794 19.96C144.399 20.3333 144.87 20.8489 145.207 21.5067C145.563 22.1644 145.741 22.9111 145.741 23.7467C145.741 24.5822 145.563 25.3378 145.207 26.0133C144.87 26.6711 144.399 27.1867 143.794 27.56C143.207 27.9333 142.523 28.12 141.741 28.12Z"
    fill="#F8FAFC" />
  <defs>
    <linearGradient id="paint0_linear_501_5" x1="0" y1="0" x2="40" y2="40"
      gradientUnits="userSpaceOnUse">
      <stop offset="0.104757" stop-color="#149EED" />
      <stop offset="0.895243" stop-color="#B440FC" />
    </linearGradient>
  </defs>
</svg>