<svg width="151" height="40" viewBox="0 0 151 40" fill="none" xmlns="http://www.w3.org/2000/svg">
  <rect width="40" height="40" rx="20" fill="url(#paint0_linear_501_9)" />
  <path
    d="M20 6.66669V19.5535M20 6.66669C17.1434 6.66669 14.4966 7.56502 12.3267 9.0946M20 6.66669C22.8556 6.66669 25.5016 7.56442 27.6711 9.09306M15.5555 20.3928C15.8754 20.2839 16.2108 20.1833 16.5626 20.0919C16.9517 19.9908 17.3566 19.901 17.7777 19.824M15.5555 20.3928C10.497 22.1138 9.3303 25.8819 8.9571 27.4745M15.5555 20.3928L7.85029 14.5M17.7777 19.824C17.9358 19.7951 18.0962 19.768 18.2589 19.7428C18.6411 19.6835 19.0362 19.6346 19.4444 19.597C19.6269 19.5802 19.8121 19.5657 20 19.5535M17.7777 19.824L12.3267 9.0946M20 19.5535C20.2457 19.5376 20.496 19.5257 20.751 19.518C21.2251 19.5037 21.7154 19.504 22.2222 19.5202M22.2222 19.5202C22.5235 19.5299 22.8306 19.5452 23.1437 19.5663C23.5172 19.5915 23.9569 19.6252 24.4444 19.6676M22.2222 19.5202L27.6711 9.09306M24.4444 19.6676L32.1473 14.4948M24.4444 19.6676C26.9657 19.8871 30.765 20.3429 33.2888 21.0977M8.9571 27.4745C11.3549 31.0101 15.4061 33.3334 20 33.3334C21.8828 33.3334 23.6745 32.9431 25.2986 32.239M8.9571 27.4745C7.51129 25.3427 6.66663 22.77 6.66663 20C6.66663 18.039 7.08999 16.1768 7.85029 14.5M7.85029 14.5C8.83745 12.3228 10.3926 10.4579 12.3267 9.0946M27.6711 9.09306C29.6046 10.4555 31.1596 12.319 32.1473 14.4948M32.1473 14.4948C32.9091 16.173 33.3333 18.037 33.3333 20C33.3333 20.3696 33.3183 20.7357 33.2888 21.0977M33.2888 21.0977C33.2884 21.1022 33.288 21.1067 33.2877 21.1112M33.2877 21.1112C22.986 21.1273 18.2692 26.6055 25.2777 32.2222L25.2986 32.239M33.2877 21.1112C32.8751 26.1115 29.7035 30.3294 25.2986 32.239"
    stroke="#F8FAFC" stroke-width="1.66667" />
  <path
    d="M61.2533 31.32C59.8311 31.32 58.5156 31.0622 57.3067 30.5467C56.1156 30.0311 55.0667 29.3111 54.16 28.3867C53.2711 27.4622 52.5778 26.3778 52.08 25.1333C51.5822 23.8889 51.3333 22.5289 51.3333 21.0533C51.3333 19.5778 51.5733 18.2178 52.0533 16.9733C52.5511 15.7111 53.2444 14.6267 54.1333 13.72C55.04 12.7956 56.0978 12.0844 57.3067 11.5867C58.5156 11.0711 59.8311 10.8133 61.2533 10.8133C62.6756 10.8133 63.9467 11.0533 65.0667 11.5333C66.2044 12.0133 67.1644 12.6533 67.9467 13.4533C68.7289 14.2356 69.2889 15.0978 69.6267 16.04L66.3733 17.56C66 16.5644 65.3689 15.7467 64.48 15.1067C63.5911 14.4489 62.5156 14.12 61.2533 14.12C60.0089 14.12 58.9067 14.4133 57.9467 15C57.0044 15.5867 56.2667 16.3956 55.7333 17.4267C55.2178 18.4578 54.96 19.6667 54.96 21.0533C54.96 22.44 55.2178 23.6578 55.7333 24.7067C56.2667 25.7378 57.0044 26.5467 57.9467 27.1333C58.9067 27.72 60.0089 28.0133 61.2533 28.0133C62.5156 28.0133 63.5911 27.6933 64.48 27.0533C65.3689 26.3956 66 25.5689 66.3733 24.5733L69.6267 26.0933C69.2889 27.0356 68.7289 27.9067 67.9467 28.7067C67.1644 29.4889 66.2044 30.12 65.0667 30.6C63.9467 31.08 62.6756 31.32 61.2533 31.32ZM76.4173 31.32C75.404 31.32 74.524 31.1511 73.7773 30.8133C73.0306 30.4756 72.4528 29.9956 72.044 29.3733C71.6351 28.7333 71.4306 27.9956 71.4306 27.16C71.4306 26.36 71.6084 25.6489 71.964 25.0267C72.3195 24.3867 72.8706 23.8533 73.6173 23.4267C74.364 23 75.3062 22.6978 76.444 22.52L81.1906 21.7467V24.4133L77.1106 25.1067C76.4173 25.2311 75.9017 25.4533 75.564 25.7733C75.2262 26.0933 75.0573 26.5111 75.0573 27.0267C75.0573 27.5244 75.244 27.9244 75.6173 28.2267C76.0084 28.5111 76.4884 28.6533 77.0573 28.6533C77.7862 28.6533 78.4262 28.5022 78.9773 28.2C79.5462 27.88 79.9817 27.4444 80.284 26.8933C80.604 26.3422 80.764 25.7378 80.764 25.08V21.3467C80.764 20.7244 80.5151 20.2089 80.0173 19.8C79.5373 19.3733 78.8973 19.16 78.0973 19.16C77.3506 19.16 76.684 19.3644 76.0973 19.7733C75.5284 20.1644 75.1106 20.6889 74.844 21.3467L71.9906 19.96C72.2751 19.1956 72.7195 18.5378 73.324 17.9867C73.9462 17.4178 74.6751 16.9733 75.5106 16.6533C76.3462 16.3333 77.2528 16.1733 78.2306 16.1733C79.4217 16.1733 80.4706 16.3956 81.3773 16.84C82.284 17.2667 82.9862 17.8711 83.484 18.6533C83.9995 19.4178 84.2573 20.3156 84.2573 21.3467V31H80.9506V28.52L81.6973 28.4667C81.324 29.0889 80.8795 29.6133 80.364 30.04C79.8484 30.4489 79.2617 30.7689 78.604 31C77.9462 31.2133 77.2173 31.32 76.4173 31.32ZM87.486 31V16.4933H90.766V19.8533L90.3927 19.2933C90.6594 18.2444 91.1927 17.4622 91.9927 16.9467C92.7927 16.4311 93.7349 16.1733 94.8194 16.1733C96.0105 16.1733 97.0594 16.4844 97.966 17.1067C98.8727 17.7289 99.4594 18.5467 99.726 19.56L98.7394 19.64C99.1838 18.4844 99.8505 17.6222 100.739 17.0533C101.628 16.4667 102.65 16.1733 103.806 16.1733C104.837 16.1733 105.753 16.4044 106.553 16.8667C107.37 17.3289 108.01 17.9778 108.473 18.8133C108.935 19.6311 109.166 20.5822 109.166 21.6667V31H105.673V22.4933C105.673 21.8533 105.557 21.3022 105.326 20.84C105.095 20.3778 104.775 20.0222 104.366 19.7733C103.957 19.5067 103.459 19.3733 102.873 19.3733C102.322 19.3733 101.833 19.5067 101.406 19.7733C100.979 20.0222 100.65 20.3778 100.419 20.84C100.188 21.3022 100.073 21.8533 100.073 22.4933V31H96.5794V22.4933C96.5794 21.8533 96.4638 21.3022 96.2327 20.84C96.0016 20.3778 95.6727 20.0222 95.246 19.7733C94.8372 19.5067 94.3483 19.3733 93.7794 19.3733C93.2283 19.3733 92.7394 19.5067 92.3127 19.7733C91.886 20.0222 91.5572 20.3778 91.326 20.84C91.0949 21.3022 90.9794 21.8533 90.9794 22.4933V31H87.486ZM112.121 31V16.4933H115.615V31H112.121ZM112.121 14.8667V11.1333H115.615V14.8667H112.121ZM118.84 31V16.4933H122.12V19.3467L121.854 18.84C122.191 17.9689 122.742 17.3111 123.507 16.8667C124.289 16.4044 125.196 16.1733 126.227 16.1733C127.294 16.1733 128.236 16.4044 129.054 16.8667C129.889 17.3289 130.538 17.9778 131 18.8133C131.462 19.6311 131.694 20.5822 131.694 21.6667V31H128.2V22.4933C128.2 21.8533 128.076 21.3022 127.827 20.84C127.578 20.3778 127.231 20.0222 126.787 19.7733C126.36 19.5067 125.854 19.3733 125.267 19.3733C124.698 19.3733 124.191 19.5067 123.747 19.7733C123.302 20.0222 122.956 20.3778 122.707 20.84C122.458 21.3022 122.334 21.8533 122.334 22.4933V31H118.84ZM141.741 31.32C140.319 31.32 139.021 30.9911 137.847 30.3333C136.692 29.6756 135.767 28.7778 135.074 27.64C134.399 26.5022 134.061 25.2044 134.061 23.7467C134.061 22.2889 134.399 20.9911 135.074 19.8533C135.767 18.7156 136.692 17.8178 137.847 17.16C139.003 16.5022 140.301 16.1733 141.741 16.1733C143.163 16.1733 144.452 16.5022 145.607 17.16C146.763 17.8178 147.679 18.7156 148.354 19.8533C149.047 20.9733 149.394 22.2711 149.394 23.7467C149.394 25.2044 149.047 26.5022 148.354 27.64C147.661 28.7778 146.736 29.6756 145.581 30.3333C144.425 30.9911 143.145 31.32 141.741 31.32ZM141.741 28.12C142.523 28.12 143.207 27.9333 143.794 27.56C144.399 27.1867 144.87 26.6711 145.207 26.0133C145.563 25.3378 145.741 24.5822 145.741 23.7467C145.741 22.8933 145.563 22.1467 145.207 21.5067C144.87 20.8489 144.399 20.3333 143.794 19.96C143.207 19.5689 142.523 19.3733 141.741 19.3733C140.941 19.3733 140.239 19.5689 139.634 19.96C139.03 20.3333 138.55 20.8489 138.194 21.5067C137.856 22.1467 137.687 22.8933 137.687 23.7467C137.687 24.5822 137.856 25.3378 138.194 26.0133C138.55 26.6711 139.03 27.1867 139.634 27.56C140.239 27.9333 140.941 28.12 141.741 28.12Z"
    fill="#222222" />
  <defs>
    <linearGradient id="paint0_linear_501_9" x1="0" y1="0" x2="40" y2="40"
      gradientUnits="userSpaceOnUse">
      <stop offset="0.104757" stop-color="#149EED" />
      <stop offset="0.895243" stop-color="#B440FC" />
    </linearGradient>
  </defs>
</svg>