<svg width="24" height="24" viewBox="0 0 24 24" fill="none" xmlns="http://www.w3.org/2000/svg">
<rect width="24.0001" height="24" rx="12" fill="url(#paint0_linear_1943_97)"/>
<path d="M9.93761 12.0551L10.0633 12.5391H10.0633L9.93761 12.0551ZM10.9554 11.8457L11.032 12.3398H11.032L10.9554 11.8457ZM11.6667 11.7582L11.6208 11.2603H11.6208L11.6667 11.7582ZM12.4506 11.7108L12.4356 11.211H12.4355L12.4506 11.7108ZM13.8863 11.7398L13.8526 12.2386L13.8863 11.7398ZM5.37429 16.4847L4.96047 16.7654L5.37429 16.4847ZM4.7102 8.69996L4.25482 8.49349H4.25482L4.7102 8.69996ZM7.39603 5.45675L7.10796 5.04808L7.39603 5.45675ZM16.6027 5.45582L16.8907 5.0471L16.6027 5.45582ZM20 12.5L19.8567 12.979L20.5 13.1714V12.5H20ZM9.49438 12.709C9.67439 12.6478 9.86386 12.5909 10.0633 12.5391L9.81188 11.5712C9.5892 11.629 9.37614 11.6929 9.17229 11.7623L9.49438 12.709ZM10.0633 12.5391C10.2848 12.4815 10.5158 12.4303 10.7566 12.3863L10.5767 11.4026C10.3122 11.4509 10.0573 11.5074 9.81188 11.5712L10.0633 12.5391ZM10.7566 12.3863C10.847 12.3697 10.9388 12.3542 11.032 12.3398L10.8787 11.3516C10.7767 11.3674 10.676 11.3844 10.5767 11.4026L10.7566 12.3863ZM11.032 12.3398C11.2509 12.3058 11.4777 12.2777 11.7125 12.2561L11.6208 11.2603C11.3658 11.2838 11.1185 11.3144 10.8787 11.3516L11.032 12.3398ZM11.7125 12.2561C11.8175 12.2464 11.9241 12.2381 12.0324 12.231L11.9676 11.2331C11.8505 11.2407 11.7349 11.2498 11.6208 11.2603L11.7125 12.2561ZM12.0324 12.231C12.174 12.2219 12.3184 12.215 12.4657 12.2105L12.4355 11.211C12.2769 11.2158 12.1209 11.2232 11.9676 11.2331L12.0324 12.231ZM12.4657 12.2105C12.7396 12.2023 13.0233 12.2025 13.3173 12.2119L13.3493 11.2124C13.0352 11.2023 12.7307 11.2021 12.4356 11.211L12.4657 12.2105ZM13.3173 12.2119C13.4921 12.2175 13.6705 12.2263 13.8526 12.2386L13.92 11.2409C13.7263 11.2278 13.5361 11.2184 13.3493 11.2124L13.3173 12.2119ZM13.8526 12.2386C14.0733 12.2536 14.3339 12.2735 14.6233 12.2987L14.71 11.3024C14.4145 11.2767 14.1474 11.2563 13.92 11.2409L13.8526 12.2386ZM12.5 11.7321V4H11.5V11.7321H12.5ZM5.8611 16.5988C6.06776 15.7168 6.69695 13.6608 9.49438 12.709L9.17228 11.7623C5.89946 12.8758 5.12864 15.3414 4.88747 16.3706L5.8611 16.5988ZM12 19.5C9.41643 19.5 7.13771 18.1941 5.7881 16.2041L4.96047 16.7654C6.48823 19.0181 9.07097 20.5 12 20.5V19.5ZM5.7881 16.2041C4.975 15.0051 4.5 13.5588 4.5 12H3.5C3.5 13.7652 4.0386 15.406 4.96047 16.7654L5.7881 16.2041ZM9.63708 11.8385L5.01395 8.3028L4.40646 9.09713L9.02959 12.6328L9.63708 11.8385ZM4.5 12C4.5 10.896 4.73822 9.84898 5.16558 8.90643L4.25482 8.49349C3.76981 9.56318 3.5 10.7508 3.5 12H4.5ZM5.16558 8.90643C5.72073 7.68204 6.59571 6.63265 7.68411 5.86542L7.10796 5.04808C5.87549 5.91686 4.88426 7.10526 4.25482 8.49349L5.16558 8.90643ZM7.68411 5.86542C8.90449 5.00516 10.3925 4.5 12 4.5V3.5C10.1796 3.5 8.49143 4.07285 7.10796 5.04808L7.68411 5.86542ZM6.95026 5.68322L10.2209 12.1209L11.1124 11.6679L7.8418 5.23028L6.95026 5.68322ZM16.1595 5.22425L12.8902 11.4806L13.7765 11.9437L17.0458 5.68739L16.1595 5.22425ZM12 4.5C13.607 4.5 15.0945 5.00482 16.3147 5.86455L16.8907 5.0471C15.5074 4.07246 13.8198 3.5 12 3.5V4.5ZM16.3147 5.86455C17.4028 6.63125 18.2777 7.67991 18.8331 8.90352L19.7437 8.49018C19.1139 7.10285 18.1228 5.91527 16.8907 5.0471L16.3147 5.86455ZM18.8331 8.90352C19.2613 9.84682 19.5 10.8949 19.5 12H20.5C20.5 10.7495 20.2296 9.56073 19.7437 8.49018L18.8331 8.90352ZM14.9454 12.2156L19.5671 9.11194L19.0096 8.28176L14.3879 11.3855L14.9454 12.2156ZM14.6233 12.2987C16.1795 12.4341 18.4066 12.5453 19.8567 12.979L20.1433 12.021C18.5649 11.5489 16.1794 11.4304 14.71 11.3024L14.6233 12.2987ZM19.5 12V12.5H20.5V12H19.5Z" fill="#F8FAFC"/>
<path d="M14.55 20H16.05V16.81C16.05 16.4967 16.1433 16.2467 16.33 16.06C16.5167 15.8667 16.7567 15.77 17.05 15.77C17.3433 15.77 17.5833 15.8667 17.77 16.06C17.9567 16.2467 18.05 16.4967 18.05 16.81V20H19.55V16.49C19.55 16.0767 19.4633 15.7167 19.29 15.41C19.1167 15.0967 18.8733 14.8533 18.56 14.68C18.2533 14.5067 17.8933 14.42 17.48 14.42C17.1333 14.42 16.8267 14.4867 16.56 14.62C16.2933 14.7467 16.09 14.9433 15.95 15.21V14.54H14.55V20Z" fill="white"/>
<defs>
<linearGradient id="paint0_linear_1943_97" x1="0" y1="0" x2="24" y2="24.0001" gradientUnits="userSpaceOnUse">
<stop offset="0.104757" stop-color="#149EED"/>
<stop offset="0.895243" stop-color="#B440FC"/>
</linearGradient>
</defs>
</svg>
