<svg width="260" height="280" viewBox="0 0 260 280" fill="none" xmlns="http://www.w3.org/2000/svg">
<path opacity="0.1" d="M91.4976 279.593C65.2297 277.031 35.9437 273.692 18.2205 254.146C0.475721 234.576 0.0536286 205.095 0.000253234 178.685C-0.0473624 155.124 6.89483 132.612 17.9328 111.794C28.3665 92.1157 46.1647 79.0804 61.4189 62.8463C81.8799 41.0708 93.0872 2.52297 122.878 0.107277C152.136 -2.26522 167.615 35.3282 191.564 52.293C213.659 67.9442 249.148 70.3808 258.13 95.9153C267.248 121.835 240.39 146.266 234.025 172.995C228.55 195.988 238.114 223.129 223.425 241.652C208.686 260.238 181.601 261.3 158.798 267.858C136.461 274.282 114.631 281.849 91.4976 279.593Z" fill="url(#paint0_linear_1207_1393)"/>
<path d="M33.8315 35.9618C33.6012 35.961 33.3739 35.9099 33.1654 35.8123C32.9568 35.7147 32.7721 35.5728 32.624 35.3965C32.4758 35.2202 32.3679 35.0138 32.3077 34.7915C32.2475 34.5693 32.2364 34.3366 32.2752 34.1096L32.8003 31.0831C32.8153 30.983 32.8067 30.8808 32.7753 30.7847C32.7438 30.6885 32.6902 30.6011 32.6189 30.5293L30.4135 28.3811C30.2013 28.1758 30.0511 27.915 29.98 27.6284C29.9089 27.3419 29.9197 27.0411 30.0113 26.7604C30.1028 26.4798 30.2715 26.2304 30.4979 26.041C30.7243 25.8515 30.9994 25.7294 31.2918 25.6887L34.3375 25.2495C34.437 25.2332 34.5313 25.1935 34.6126 25.1338C34.6939 25.0741 34.76 24.996 34.8053 24.9058L36.161 22.1466C36.2895 21.8755 36.4923 21.6465 36.7458 21.4861C36.9994 21.3257 37.2932 21.2406 37.5932 21.2406C37.8932 21.2406 38.187 21.3257 38.4405 21.4861C38.694 21.6465 38.8968 21.8755 39.0253 22.1466L40.3811 24.9058C40.4273 24.9971 40.4948 25.076 40.5779 25.1358C40.661 25.1956 40.7572 25.2346 40.8584 25.2495L43.8945 25.7174C44.187 25.7581 44.4621 25.8801 44.6885 26.0696C44.9149 26.2591 45.0835 26.5084 45.1751 26.7891C45.2666 27.0698 45.2775 27.3705 45.2064 27.6571C45.1353 27.9436 44.9851 28.2044 44.7729 28.4098L42.5388 30.4911C42.4672 30.5625 42.4142 30.6502 42.3842 30.7467C42.3543 30.8432 42.3483 30.9456 42.3669 31.0449L42.8825 34.0714C42.9331 34.362 42.9011 34.6608 42.7902 34.9341C42.6793 35.2073 42.4939 35.444 42.2552 35.6171C42.0164 35.7902 41.7339 35.8928 41.4397 35.9132C41.1455 35.9337 40.8515 35.8711 40.5911 35.7327L37.8701 34.3006C37.7809 34.2512 37.6807 34.2254 37.5789 34.2254C37.477 34.2254 37.3768 34.2512 37.2877 34.3006L34.5666 35.7231C34.3454 35.8629 34.0926 35.945 33.8315 35.9618V35.9618ZM37.5836 22.223C37.4665 22.2191 37.3507 22.2496 37.2506 22.3107C37.1506 22.3718 37.0705 22.4607 37.0203 22.5667L35.655 25.3259C35.5431 25.556 35.3768 25.7553 35.1705 25.9067C34.9642 26.0581 34.7242 26.157 34.4712 26.1947L31.4255 26.6339C31.3107 26.6504 31.2028 26.6988 31.114 26.7735C31.0253 26.8483 30.9593 26.9464 30.9235 27.0567C30.8877 27.1671 30.8836 27.2853 30.9116 27.3979C30.9395 27.5104 30.9985 27.6129 31.0818 27.6937L33.2873 29.8419C33.4701 30.022 33.6065 30.2438 33.6846 30.4883C33.7628 30.7328 33.7804 30.9926 33.736 31.2454L33.2204 34.2719C33.2002 34.386 33.2124 34.5035 33.2555 34.611C33.2985 34.7185 33.3709 34.8119 33.4643 34.8804C33.5577 34.949 33.6684 34.99 33.7839 34.9989C33.8994 35.0078 34.0151 34.9842 34.1179 34.9307L36.8485 33.4986C37.0739 33.3806 37.3245 33.319 37.5789 33.319C37.8332 33.319 38.0838 33.3806 38.3092 33.4986L41.0398 34.9307C41.1406 34.9946 41.2577 35.028 41.377 35.027C41.4963 35.0261 41.6128 34.9907 41.7126 34.9252C41.8123 34.8598 41.8911 34.7669 41.9394 34.6578C41.9877 34.5487 42.0036 34.428 41.985 34.3101L41.4695 31.2836C41.4275 31.0308 41.4462 30.7717 41.5243 30.5276C41.6023 30.2835 41.7373 30.0616 41.9182 29.8801L44.1237 27.7319C44.2091 27.652 44.2698 27.5492 44.2986 27.4358C44.3274 27.3225 44.323 27.2032 44.286 27.0922C44.2495 26.9818 44.1827 26.8839 44.0932 26.8096C44.0037 26.7353 43.8952 26.6877 43.78 26.6721L40.7343 26.2329C40.4813 26.1951 40.2412 26.0963 40.0349 25.9449C39.8287 25.7935 39.6624 25.5942 39.5504 25.3641L38.166 22.5667C38.1146 22.4576 38.0316 22.3665 37.9277 22.3052C37.8239 22.2439 37.704 22.2153 37.5836 22.223V22.223Z" fill="url(#paint1_linear_1207_1393)"/>
<path opacity="0.5" d="M33.8315 35.9618C33.6012 35.961 33.3739 35.9099 33.1654 35.8123C32.9568 35.7147 32.7721 35.5728 32.624 35.3965C32.4758 35.2202 32.3679 35.0138 32.3077 34.7915C32.2475 34.5693 32.2364 34.3366 32.2752 34.1096L32.8003 31.0831C32.8153 30.983 32.8067 30.8808 32.7753 30.7847C32.7438 30.6885 32.6902 30.6011 32.6189 30.5293L30.4135 28.3811C30.2013 28.1758 30.0511 27.915 29.98 27.6284C29.9089 27.3419 29.9197 27.0411 30.0113 26.7604C30.1028 26.4798 30.2715 26.2304 30.4979 26.041C30.7243 25.8515 30.9994 25.7294 31.2918 25.6887L34.3375 25.2495C34.437 25.2332 34.5313 25.1935 34.6126 25.1338C34.6939 25.0741 34.76 24.996 34.8053 24.9058L36.161 22.1466C36.2895 21.8755 36.4923 21.6465 36.7458 21.4861C36.9994 21.3257 37.2932 21.2406 37.5932 21.2406C37.8932 21.2406 38.187 21.3257 38.4405 21.4861C38.694 21.6465 38.8968 21.8755 39.0253 22.1466L40.3811 24.9058C40.4273 24.9971 40.4948 25.076 40.5779 25.1358C40.661 25.1956 40.7572 25.2346 40.8584 25.2495L43.8945 25.7174C44.187 25.7581 44.4621 25.8801 44.6885 26.0696C44.9149 26.2591 45.0835 26.5084 45.1751 26.7891C45.2666 27.0698 45.2775 27.3705 45.2064 27.6571C45.1353 27.9436 44.9851 28.2044 44.7729 28.4098L42.5388 30.4911C42.4672 30.5625 42.4142 30.6502 42.3842 30.7467C42.3543 30.8432 42.3483 30.9456 42.3669 31.0449L42.8825 34.0714C42.9331 34.362 42.9011 34.6608 42.7902 34.9341C42.6793 35.2073 42.4939 35.444 42.2552 35.6171C42.0164 35.7902 41.7339 35.8928 41.4397 35.9132C41.1455 35.9337 40.8515 35.8711 40.5911 35.7327L37.8701 34.3006C37.7809 34.2512 37.6807 34.2254 37.5789 34.2254C37.477 34.2254 37.3768 34.2512 37.2877 34.3006L34.5666 35.7231C34.3454 35.8629 34.0926 35.945 33.8315 35.9618V35.9618ZM37.5836 22.223C37.4665 22.2191 37.3507 22.2496 37.2506 22.3107C37.1506 22.3718 37.0705 22.4607 37.0203 22.5667L35.655 25.3259C35.5431 25.556 35.3768 25.7553 35.1705 25.9067C34.9642 26.0581 34.7242 26.157 34.4712 26.1947L31.4255 26.6339C31.3107 26.6504 31.2028 26.6988 31.114 26.7735C31.0253 26.8483 30.9593 26.9464 30.9235 27.0567C30.8877 27.1671 30.8836 27.2853 30.9116 27.3979C30.9395 27.5104 30.9985 27.6129 31.0818 27.6937L33.2873 29.8419C33.4701 30.022 33.6065 30.2438 33.6846 30.4883C33.7628 30.7328 33.7804 30.9926 33.736 31.2454L33.2204 34.2719C33.2002 34.386 33.2124 34.5035 33.2555 34.611C33.2985 34.7185 33.3709 34.8119 33.4643 34.8804C33.5577 34.949 33.6684 34.99 33.7839 34.9989C33.8994 35.0078 34.0151 34.9842 34.1179 34.9307L36.8485 33.4986C37.0739 33.3806 37.3245 33.319 37.5789 33.319C37.8332 33.319 38.0838 33.3806 38.3092 33.4986L41.0398 34.9307C41.1406 34.9946 41.2577 35.028 41.377 35.027C41.4963 35.0261 41.6128 34.9907 41.7126 34.9252C41.8123 34.8598 41.8911 34.7669 41.9394 34.6578C41.9877 34.5487 42.0036 34.428 41.985 34.3101L41.4695 31.2836C41.4275 31.0308 41.4462 30.7717 41.5243 30.5276C41.6023 30.2835 41.7373 30.0616 41.9182 29.8801L44.1237 27.7319C44.2091 27.652 44.2698 27.5492 44.2986 27.4358C44.3274 27.3225 44.323 27.2032 44.286 27.0922C44.2495 26.9818 44.1827 26.8839 44.0932 26.8096C44.0037 26.7353 43.8952 26.6877 43.78 26.6721L40.7343 26.2329C40.4813 26.1951 40.2412 26.0963 40.0349 25.9449C39.8287 25.7935 39.6624 25.5942 39.5504 25.3641L38.166 22.5667C38.1146 22.4576 38.0316 22.3665 37.9277 22.3052C37.8239 22.2439 37.704 22.2153 37.5836 22.223V22.223Z" fill="white"/>
<path d="M88.4312 8.04494L88.708 13.9358C88.7187 14.2736 88.8112 14.6039 88.9774 14.8982C89.1437 15.1925 89.3789 15.4421 89.6628 15.6257L94.6657 18.7381C94.9987 18.9466 95.2669 19.244 95.4401 19.5967C95.6133 19.9494 95.6845 20.3434 95.6458 20.7344C95.6071 21.1255 95.46 21.4979 95.2211 21.8098C94.9821 22.1217 94.6608 22.3607 94.2933 22.4999L88.7844 24.5812C88.465 24.6998 88.1795 24.895 87.9531 25.1497C87.7267 25.4044 87.5663 25.7108 87.486 26.042L86.0729 31.7705C85.9795 32.1531 85.7809 32.502 85.4996 32.7776C85.2182 33.0532 84.8653 33.2445 84.4808 33.33C84.0963 33.4154 83.6956 33.3915 83.324 33.261C82.9524 33.1305 82.6247 32.8986 82.3781 32.5916L78.6927 27.9897C78.4818 27.7206 78.2074 27.5082 77.8941 27.3716C77.5808 27.2349 77.2384 27.1783 76.8978 27.2068L71.0261 27.6269C70.6351 27.653 70.2446 27.5697 69.8983 27.3864C69.552 27.2031 69.2636 26.927 69.0653 26.589C68.8671 26.2511 68.7669 25.8645 68.776 25.4728C68.785 25.0811 68.9029 24.6996 69.1166 24.3712L72.3532 19.4447C72.5359 19.165 72.6486 18.8456 72.6819 18.5132C72.7151 18.1809 72.6678 17.8454 72.5441 17.5352L70.3291 12.074C70.1727 11.7087 70.1227 11.3068 70.1847 10.9143C70.2467 10.5219 70.4182 10.1549 70.6796 9.85564C70.9409 9.55639 71.2815 9.33701 71.662 9.22274C72.0425 9.10847 72.4476 9.10396 72.8306 9.20974L78.5113 10.766C78.8399 10.8552 79.1852 10.8636 79.5177 10.7905C79.8502 10.7173 80.16 10.5648 80.4208 10.3459L84.9272 6.52689C85.2277 6.26215 85.5973 6.08837 85.9928 6.02586C86.3884 5.96336 86.7935 6.0147 87.161 6.17389C87.5284 6.33309 87.843 6.59356 88.0679 6.92488C88.2928 7.2562 88.4188 7.64468 88.4312 8.04494V8.04494Z" fill="url(#paint2_linear_1207_1393)"/>
<path opacity="0.2" d="M88.4312 8.04494L88.708 13.9358C88.7187 14.2736 88.8112 14.6039 88.9774 14.8982C89.1437 15.1925 89.3789 15.4421 89.6628 15.6257L94.6657 18.7381C94.9987 18.9466 95.2669 19.244 95.4401 19.5967C95.6133 19.9494 95.6845 20.3434 95.6458 20.7344C95.6071 21.1255 95.46 21.4979 95.2211 21.8098C94.9821 22.1217 94.6608 22.3607 94.2933 22.4999L88.7844 24.5812C88.465 24.6998 88.1795 24.895 87.9531 25.1497C87.7267 25.4044 87.5663 25.7108 87.486 26.042L86.0729 31.7705C85.9795 32.1531 85.7809 32.502 85.4996 32.7776C85.2182 33.0532 84.8653 33.2445 84.4808 33.33C84.0963 33.4154 83.6956 33.3915 83.324 33.261C82.9524 33.1305 82.6247 32.8986 82.3781 32.5916L78.6927 27.9897C78.4818 27.7206 78.2074 27.5082 77.8941 27.3716C77.5808 27.2349 77.2384 27.1783 76.8978 27.2068L71.0261 27.6269C70.6351 27.653 70.2446 27.5697 69.8983 27.3864C69.552 27.2031 69.2636 26.927 69.0653 26.589C68.8671 26.2511 68.7669 25.8645 68.776 25.4728C68.785 25.0811 68.9029 24.6996 69.1166 24.3712L72.3532 19.4447C72.5359 19.165 72.6486 18.8456 72.6819 18.5132C72.7151 18.1809 72.6678 17.8454 72.5441 17.5352L70.3291 12.074C70.1727 11.7087 70.1227 11.3068 70.1847 10.9143C70.2467 10.5219 70.4182 10.1549 70.6796 9.85564C70.9409 9.55639 71.2815 9.33701 71.662 9.22274C72.0425 9.10847 72.4476 9.10396 72.8306 9.20974L78.5113 10.766C78.8399 10.8552 79.1852 10.8636 79.5177 10.7905C79.8502 10.7173 80.16 10.5648 80.4208 10.3459L84.9272 6.52689C85.2277 6.26215 85.5973 6.08837 85.9928 6.02586C86.3884 5.96336 86.7935 6.0147 87.161 6.17389C87.5284 6.33309 87.843 6.59356 88.0679 6.92488C88.2928 7.2562 88.4188 7.64468 88.4312 8.04494V8.04494Z" fill="black"/>
<path d="M210.141 109.621C209.787 109.616 209.438 109.54 209.115 109.397C208.792 109.254 208.501 109.046 208.26 108.788C208.019 108.529 207.833 108.224 207.713 107.891C207.593 107.558 207.542 107.205 207.563 106.852L207.964 100.971C207.982 100.708 207.936 100.444 207.83 100.203C207.723 99.9618 207.56 99.7501 207.353 99.5863L202.741 95.9201C202.363 95.6215 202.076 95.2234 201.912 94.7705C201.748 94.3177 201.714 93.828 201.813 93.3567C201.913 92.8853 202.141 92.4511 202.474 92.1027C202.807 91.7544 203.23 91.5058 203.696 91.385L209.425 89.9529C209.682 89.8916 209.92 89.7669 210.117 89.5902C210.313 89.4134 210.463 89.1902 210.551 88.9409L212.614 83.4224C212.783 82.9715 213.075 82.5768 213.457 82.2829C213.839 81.989 214.295 81.8075 214.774 81.7589C215.254 81.7103 215.737 81.7964 216.17 82.0077C216.603 82.2189 216.968 82.5469 217.225 82.9546L220.357 87.9479C220.495 88.1726 220.687 88.3597 220.915 88.4929C221.143 88.626 221.401 88.7012 221.665 88.7117L227.555 88.9695C228.04 88.9847 228.51 89.1355 228.913 89.4049C229.315 89.6742 229.634 90.0512 229.833 90.493C230.032 90.9347 230.103 91.4235 230.038 91.9036C229.973 92.3837 229.774 92.8359 229.465 93.2086L225.646 97.7246C225.467 97.9271 225.341 98.171 225.279 98.4343C225.217 98.6976 225.222 98.972 225.293 99.2331L226.868 104.914C226.999 105.378 226.997 105.869 226.862 106.332C226.727 106.794 226.464 107.209 226.104 107.53C225.744 107.852 225.302 108.067 224.826 108.152C224.35 108.236 223.861 108.186 223.412 108.007L217.951 105.802C217.706 105.703 217.44 105.666 217.178 105.692C216.915 105.719 216.662 105.809 216.442 105.955L211.535 109.21C211.118 109.475 210.635 109.618 210.141 109.621ZM215.058 82.6968H214.886C214.582 82.7227 214.291 82.8355 214.049 83.0217C213.807 83.2079 213.624 83.4596 213.521 83.747L211.458 89.2655C211.314 89.66 211.075 90.0129 210.762 90.2927C210.449 90.5725 210.072 90.7706 209.663 90.8695L203.935 92.3016C203.639 92.3751 203.369 92.5301 203.157 92.7491C202.944 92.9681 202.797 93.2422 202.733 93.5404C202.668 93.8387 202.688 94.149 202.791 94.4363C202.894 94.7236 203.075 94.9764 203.314 95.1658L207.926 98.8321C208.251 99.093 208.508 99.4294 208.675 99.812C208.841 100.195 208.912 100.612 208.88 101.028L208.48 106.909C208.454 107.212 208.517 107.516 208.659 107.785C208.801 108.054 209.017 108.277 209.281 108.427C209.539 108.588 209.837 108.673 210.141 108.673C210.445 108.673 210.742 108.588 211 108.427L215.917 105.172C216.265 104.941 216.664 104.797 217.08 104.754C217.496 104.711 217.916 104.769 218.304 104.923L223.775 107.129C224.053 107.237 224.356 107.267 224.65 107.215C224.944 107.163 225.218 107.031 225.442 106.834C225.667 106.637 225.833 106.383 225.922 106.098C226.012 105.813 226.022 105.509 225.951 105.219L224.376 99.5386C224.263 99.1355 224.251 98.7109 224.339 98.3017C224.427 97.8925 224.613 97.5109 224.882 97.1899L228.701 92.674C228.894 92.4391 229.018 92.1553 229.06 91.8541C229.101 91.553 229.058 91.2462 228.935 90.9681C228.812 90.69 228.615 90.4514 228.364 90.2789C228.114 90.1064 227.821 90.0068 227.517 89.9911L221.636 89.7429C221.217 89.7239 220.809 89.6037 220.446 89.3925C220.084 89.1813 219.778 88.8855 219.555 88.5303L216.433 83.537C216.298 83.2881 216.1 83.0793 215.858 82.9317C215.617 82.7842 215.341 82.7031 215.058 82.6968Z" fill="url(#paint3_linear_1207_1393)"/>
<path opacity="0.5" d="M210.141 109.621C209.787 109.616 209.438 109.54 209.115 109.397C208.792 109.254 208.501 109.046 208.26 108.788C208.019 108.529 207.833 108.224 207.713 107.891C207.593 107.558 207.542 107.205 207.563 106.852L207.964 100.971C207.982 100.708 207.936 100.444 207.83 100.203C207.723 99.9618 207.56 99.7501 207.353 99.5863L202.741 95.9201C202.363 95.6215 202.076 95.2234 201.912 94.7705C201.748 94.3177 201.714 93.828 201.813 93.3567C201.913 92.8853 202.141 92.4511 202.474 92.1027C202.807 91.7544 203.23 91.5058 203.696 91.385L209.425 89.9529C209.682 89.8916 209.92 89.7669 210.117 89.5902C210.313 89.4134 210.463 89.1902 210.551 88.9409L212.614 83.4224C212.783 82.9715 213.075 82.5768 213.457 82.2829C213.839 81.989 214.295 81.8075 214.774 81.7589C215.254 81.7103 215.737 81.7964 216.17 82.0077C216.603 82.2189 216.968 82.5469 217.225 82.9546L220.357 87.9479C220.495 88.1726 220.687 88.3597 220.915 88.4929C221.143 88.626 221.401 88.7012 221.665 88.7117L227.555 88.9695C228.04 88.9847 228.51 89.1355 228.913 89.4049C229.315 89.6742 229.634 90.0512 229.833 90.493C230.032 90.9347 230.103 91.4235 230.038 91.9036C229.973 92.3837 229.774 92.8359 229.465 93.2086L225.646 97.7246C225.467 97.9271 225.341 98.171 225.279 98.4343C225.217 98.6976 225.222 98.972 225.293 99.2331L226.868 104.914C226.999 105.378 226.997 105.869 226.862 106.332C226.727 106.794 226.464 107.209 226.104 107.53C225.744 107.852 225.302 108.067 224.826 108.152C224.35 108.236 223.861 108.186 223.412 108.007L217.951 105.802C217.706 105.703 217.44 105.666 217.178 105.692C216.915 105.719 216.662 105.809 216.442 105.955L211.535 109.21C211.118 109.475 210.635 109.618 210.141 109.621ZM215.058 82.6968H214.886C214.582 82.7227 214.291 82.8355 214.049 83.0217C213.807 83.2079 213.624 83.4596 213.521 83.747L211.458 89.2655C211.314 89.66 211.075 90.0129 210.762 90.2927C210.449 90.5725 210.072 90.7706 209.663 90.8695L203.935 92.3016C203.639 92.3751 203.369 92.5301 203.157 92.7491C202.944 92.9681 202.797 93.2422 202.733 93.5404C202.668 93.8387 202.688 94.149 202.791 94.4363C202.894 94.7236 203.075 94.9764 203.314 95.1658L207.926 98.8321C208.251 99.093 208.508 99.4294 208.675 99.812C208.841 100.195 208.912 100.612 208.88 101.028L208.48 106.909C208.454 107.212 208.517 107.516 208.659 107.785C208.801 108.054 209.017 108.277 209.281 108.427C209.539 108.588 209.837 108.673 210.141 108.673C210.445 108.673 210.742 108.588 211 108.427L215.917 105.172C216.265 104.941 216.664 104.797 217.08 104.754C217.496 104.711 217.916 104.769 218.304 104.923L223.775 107.129C224.053 107.237 224.356 107.267 224.65 107.215C224.944 107.163 225.218 107.031 225.442 106.834C225.667 106.637 225.833 106.383 225.922 106.098C226.012 105.813 226.022 105.509 225.951 105.219L224.376 99.5386C224.263 99.1355 224.251 98.7109 224.339 98.3017C224.427 97.8925 224.613 97.5109 224.882 97.1899L228.701 92.674C228.894 92.4391 229.018 92.1553 229.06 91.8541C229.101 91.553 229.058 91.2462 228.935 90.9681C228.812 90.69 228.615 90.4514 228.364 90.2789C228.114 90.1064 227.821 90.0068 227.517 89.9911L221.636 89.7429C221.217 89.7239 220.809 89.6037 220.446 89.3925C220.084 89.1813 219.778 88.8855 219.555 88.5303L216.433 83.537C216.298 83.2881 216.1 83.0793 215.858 82.9317C215.617 82.7842 215.341 82.7031 215.058 82.6968Z" fill="white"/>
<path d="M214.595 148.46L213.812 151.401C213.771 151.567 213.77 151.74 213.81 151.906C213.85 152.072 213.929 152.227 214.042 152.355L216.018 154.666C216.15 154.821 216.237 155.009 216.267 155.21C216.298 155.412 216.271 155.617 216.191 155.804C216.11 155.991 215.979 156.152 215.812 156.268C215.644 156.384 215.448 156.451 215.245 156.461L212.209 156.623C212.032 156.635 211.862 156.689 211.71 156.78C211.559 156.872 211.432 156.998 211.34 157.148L209.755 159.745C209.644 159.906 209.492 160.035 209.315 160.117C209.138 160.2 208.941 160.234 208.747 160.215C208.552 160.197 208.366 160.127 208.207 160.012C208.049 159.898 207.924 159.743 207.845 159.564L206.757 156.7C206.691 156.536 206.588 156.39 206.455 156.274C206.323 156.157 206.164 156.074 205.993 156.031L203.033 155.325C202.834 155.279 202.651 155.178 202.507 155.034C202.362 154.889 202.261 154.707 202.215 154.508C202.169 154.308 202.181 154.1 202.248 153.907C202.315 153.714 202.435 153.543 202.594 153.415L204.962 151.506C205.101 151.391 205.21 151.244 205.278 151.078C205.346 150.911 205.372 150.73 205.353 150.551L205.115 147.515C205.108 147.317 205.156 147.121 205.252 146.948C205.349 146.776 205.491 146.632 205.663 146.534C205.834 146.436 206.03 146.387 206.228 146.391C206.426 146.396 206.618 146.454 206.786 146.56L209.344 148.212C209.493 148.307 209.663 148.365 209.839 148.381C210.015 148.398 210.192 148.373 210.356 148.307L213.163 147.133C213.353 147.064 213.558 147.049 213.756 147.089C213.953 147.129 214.136 147.223 214.284 147.36C214.432 147.497 214.539 147.672 214.594 147.866C214.649 148.06 214.65 148.266 214.595 148.46V148.46Z" fill="url(#paint4_linear_1207_1393)"/>
<path opacity="0.2" d="M214.595 148.46L213.812 151.401C213.771 151.567 213.77 151.74 213.81 151.906C213.85 152.072 213.929 152.227 214.042 152.355L216.018 154.666C216.15 154.821 216.237 155.009 216.267 155.21C216.298 155.412 216.271 155.617 216.191 155.804C216.11 155.991 215.979 156.152 215.812 156.268C215.644 156.384 215.448 156.451 215.245 156.461L212.209 156.623C212.032 156.635 211.862 156.689 211.71 156.78C211.559 156.872 211.432 156.998 211.34 157.148L209.755 159.745C209.644 159.906 209.492 160.035 209.315 160.117C209.138 160.2 208.941 160.234 208.747 160.215C208.552 160.197 208.366 160.127 208.207 160.012C208.049 159.898 207.924 159.743 207.845 159.564L206.757 156.7C206.691 156.536 206.588 156.39 206.455 156.274C206.323 156.157 206.164 156.074 205.993 156.031L203.033 155.325C202.834 155.279 202.651 155.178 202.507 155.034C202.362 154.889 202.261 154.707 202.215 154.508C202.169 154.308 202.181 154.1 202.248 153.907C202.315 153.714 202.435 153.543 202.594 153.415L204.962 151.506C205.101 151.391 205.21 151.244 205.278 151.078C205.346 150.911 205.372 150.73 205.353 150.551L205.115 147.515C205.108 147.317 205.156 147.121 205.252 146.948C205.349 146.776 205.491 146.632 205.663 146.534C205.834 146.436 206.03 146.387 206.228 146.391C206.426 146.396 206.618 146.454 206.786 146.56L209.344 148.212C209.493 148.307 209.663 148.365 209.839 148.381C210.015 148.398 210.192 148.373 210.356 148.307L213.163 147.133C213.353 147.064 213.558 147.049 213.756 147.089C213.953 147.129 214.136 147.223 214.284 147.36C214.432 147.497 214.539 147.672 214.594 147.866C214.649 148.06 214.65 148.266 214.595 148.46V148.46Z" fill="black"/>
<path d="M36.4352 152.308L35.9005 154.303C35.8722 154.419 35.8712 154.539 35.8977 154.655C35.9242 154.771 35.9775 154.88 36.0533 154.971L37.3995 156.518C37.4881 156.624 37.5457 156.752 37.5658 156.888C37.5859 157.025 37.5677 157.164 37.5133 157.291C37.4588 157.418 37.3703 157.527 37.2574 157.606C37.1446 157.685 37.012 157.732 36.8744 157.74L34.8121 157.855C34.6933 157.861 34.5779 157.896 34.4762 157.958C34.3745 158.019 34.2898 158.105 34.2297 158.208L33.1508 159.965C33.08 160.083 32.9773 160.179 32.8545 160.242C32.7317 160.305 32.5936 160.332 32.4562 160.32C32.3188 160.308 32.1875 160.257 32.0773 160.174C31.9672 160.091 31.8826 159.979 31.8333 159.85L31.0886 157.941C31.0467 157.828 30.9778 157.727 30.8879 157.647C30.798 157.567 30.6899 157.511 30.573 157.482L28.568 157.005C28.4336 156.974 28.3106 156.906 28.2131 156.808C28.1156 156.711 28.0476 156.588 28.0167 156.453C27.9858 156.319 27.9934 156.178 28.0386 156.048C28.0837 155.918 28.1646 155.803 28.2721 155.716L29.8665 154.418C29.9606 154.343 30.035 154.247 30.0832 154.137C30.1315 154.027 30.1522 153.907 30.1434 153.787L29.9715 151.725C29.962 151.587 29.9909 151.45 30.0552 151.327C30.1194 151.205 30.2164 151.103 30.3352 151.033C30.4541 150.962 30.5902 150.927 30.7283 150.929C30.8664 150.932 31.001 150.973 31.1172 151.047L32.8453 152.164C32.9457 152.231 33.0608 152.272 33.1807 152.284C33.3006 152.295 33.4214 152.277 33.5327 152.231L35.4422 151.439C35.569 151.386 35.7081 151.37 35.8436 151.392C35.9792 151.414 36.1058 151.474 36.2092 151.564C36.3125 151.655 36.3885 151.772 36.4284 151.904C36.4684 152.035 36.4707 152.175 36.4352 152.308V152.308Z" fill="url(#paint5_linear_1207_1393)"/>
<path opacity="0.2" d="M36.4352 152.308L35.9005 154.303C35.8722 154.419 35.8712 154.539 35.8977 154.655C35.9242 154.771 35.9775 154.88 36.0533 154.971L37.3995 156.518C37.4881 156.624 37.5457 156.752 37.5658 156.888C37.5859 157.025 37.5677 157.164 37.5133 157.291C37.4588 157.418 37.3703 157.527 37.2574 157.606C37.1446 157.685 37.012 157.732 36.8744 157.74L34.8121 157.855C34.6933 157.861 34.5779 157.896 34.4762 157.958C34.3745 158.019 34.2898 158.105 34.2297 158.208L33.1508 159.965C33.08 160.083 32.9773 160.179 32.8545 160.242C32.7317 160.305 32.5936 160.332 32.4562 160.32C32.3188 160.308 32.1875 160.257 32.0773 160.174C31.9672 160.091 31.8826 159.979 31.8333 159.85L31.0886 157.941C31.0467 157.828 30.9778 157.727 30.8879 157.647C30.798 157.567 30.6899 157.511 30.573 157.482L28.568 157.005C28.4336 156.974 28.3106 156.906 28.2131 156.808C28.1156 156.711 28.0476 156.588 28.0167 156.453C27.9858 156.319 27.9934 156.178 28.0386 156.048C28.0837 155.918 28.1646 155.803 28.2721 155.716L29.8665 154.418C29.9606 154.343 30.035 154.247 30.0832 154.137C30.1315 154.027 30.1522 153.907 30.1434 153.787L29.9715 151.725C29.962 151.587 29.9909 151.45 30.0552 151.327C30.1194 151.205 30.2164 151.103 30.3352 151.033C30.4541 150.962 30.5902 150.927 30.7283 150.929C30.8664 150.932 31.001 150.973 31.1172 151.047L32.8453 152.164C32.9457 152.231 33.0608 152.272 33.1807 152.284C33.3006 152.295 33.4214 152.277 33.5327 152.231L35.4422 151.439C35.569 151.386 35.7081 151.37 35.8436 151.392C35.9792 151.414 36.1058 151.474 36.2092 151.564C36.3125 151.655 36.3885 151.772 36.4284 151.904C36.4684 152.035 36.4707 152.175 36.4352 152.308V152.308Z" fill="black"/>
<path d="M150.738 169.331C166.558 186.068 191.859 195.863 215.813 195.863C223.604 195.916 231.358 194.793 238.813 192.531L237.677 188.894C209.846 197.563 173.652 188.025 153.516 166.715C138.603 150.933 134.631 130.979 142.269 110.518L138.698 109.182C130.497 131.064 134.774 152.432 150.738 169.331Z" fill="#B3CAFF"/>
<path opacity="0.5" d="M150.738 169.331C166.558 186.068 191.859 195.863 215.813 195.863C223.604 195.916 231.358 194.793 238.813 192.531L237.677 188.894C209.846 197.563 173.652 188.025 153.516 166.715C138.603 150.933 134.631 130.979 142.269 110.518L138.698 109.182C130.497 131.064 134.774 152.432 150.738 169.331Z" fill="#D9D9D9"/>
<path d="M132.127 83.4511L130.838 83.9571L129.644 84.4059L127.257 85.2174C125.663 85.7425 124.059 86.1721 122.484 86.64C119.192 87.5147 115.85 88.1937 112.478 88.6736C108.879 89.2055 105.239 89.4037 101.603 89.2655C99.5576 89.1641 97.5236 88.8959 95.5216 88.4635C93.4864 88.0039 91.4959 87.3649 89.5735 86.554C82.1169 83.2602 76.7512 78.0568 72.5121 72.6242C70.4337 69.9128 68.5755 67.0394 66.9555 64.0315C66.163 62.5421 65.4088 61.0622 64.7309 59.5346C64.3872 58.7708 64.0626 57.9975 63.7762 57.2241C63.4897 56.4508 63.2033 55.687 62.8691 54.7609L71.3473 50.5695L72.6362 52.1926C73.0945 52.7559 73.5432 53.3192 74.0206 53.873C74.9754 54.99 75.9301 56.088 76.8849 57.1477C78.7706 59.2472 80.7758 61.2364 82.8902 63.1054C84.8629 64.8793 86.9874 66.4767 89.2393 67.8791C90.2769 68.518 91.3478 69.1012 92.4473 69.6263C93.4733 70.0906 94.5329 70.4768 95.6171 70.7816C97.6014 71.3809 99.6884 71.5629 101.747 71.3162C104.298 71.1184 106.832 70.7323 109.327 70.161C111.981 69.5881 114.702 68.8816 117.414 68.0796C118.779 67.7073 120.135 67.2776 121.491 66.8575L123.878 65.9887L132.127 83.4511Z" fill="url(#paint6_linear_1207_1393)"/>
<path opacity="0.6" d="M132.127 83.4511L130.838 83.9571L129.644 84.4059L127.257 85.2174C125.663 85.7425 124.059 86.1721 122.484 86.64C119.192 87.5147 115.85 88.1937 112.478 88.6736C108.879 89.2055 105.239 89.4037 101.603 89.2655C99.5576 89.1641 97.5236 88.8959 95.5216 88.4635C93.4864 88.0039 91.4959 87.3649 89.5735 86.554C82.1169 83.2602 76.7512 78.0568 72.5121 72.6242C70.4337 69.9128 68.5755 67.0394 66.9555 64.0315C66.163 62.5421 65.4088 61.0622 64.7309 59.5346C64.3872 58.7708 64.0626 57.9975 63.7762 57.2241C63.4897 56.4508 63.2033 55.687 62.8691 54.7609L71.3473 50.5695L72.6362 52.1926C73.0945 52.7559 73.5432 53.3192 74.0206 53.873C74.9754 54.99 75.9301 56.088 76.8849 57.1477C78.7706 59.2472 80.7758 61.2364 82.8902 63.1054C84.8629 64.8793 86.9874 66.4767 89.2393 67.8791C90.2769 68.518 91.3478 69.1012 92.4473 69.6263C93.4733 70.0906 94.5329 70.4768 95.6171 70.7816C97.6014 71.3809 99.6884 71.5629 101.747 71.3162C104.298 71.1184 106.832 70.7323 109.327 70.161C111.981 69.5881 114.702 68.8816 117.414 68.0796C118.779 67.7073 120.135 67.2776 121.491 66.8575L123.878 65.9887L132.127 83.4511Z" fill="white"/>
<path d="M123.781 65.9887C123.781 65.9887 106.805 82.6682 100.428 123.713L141.138 139.791C143.582 134.397 149.731 106.833 165.962 83.2983C162.111 80.2631 157.928 77.675 153.493 75.5839C147.841 73.0157 142.064 70.7342 136.183 68.7479C132.117 67.5456 127.973 66.6237 123.781 65.9887V65.9887Z" fill="url(#paint7_linear_1207_1393)"/>
<path opacity="0.6" d="M123.781 65.9887C123.781 65.9887 106.805 82.6682 100.428 123.713L141.138 139.791C143.582 134.397 149.731 106.833 165.962 83.2983C162.111 80.2631 157.928 77.675 153.493 75.5839C147.841 73.0157 142.064 70.7342 136.183 68.7479C132.117 67.5456 127.973 66.6237 123.781 65.9887V65.9887Z" fill="white"/>
<path d="M156.439 56.9091C153.575 61.4346 149.03 70.0273 151.169 74.6579C151.169 74.6579 149.994 76.6915 141.717 73.3976C134.957 70.7052 135.941 68.6238 135.941 68.6238C141.917 69.4736 143.378 65.3681 143.932 61.1768L156.439 56.9091Z" fill="#E4897B"/>
<path d="M151.341 58.6658L143.941 61.1959C143.82 62.1656 143.619 63.1237 143.34 64.0601C145.545 64.5757 149.317 63.4204 150.405 61.32C150.872 60.498 151.189 59.5991 151.341 58.6658V58.6658Z" fill="#CE6F64"/>
<path d="M151.982 33.3553C148.163 32.8016 140.525 41.4898 143.179 45.7671C145.834 50.0444 159.191 34.4438 151.982 33.3553Z" fill="#263238"/>
<path d="M160.143 51.677C155.685 57.2718 153.365 60.7662 148.314 61.6923C140.676 63.0958 135.377 55.3623 138.069 48.5549C140.495 42.4255 147.378 34.3101 154.73 36C156.351 36.3642 157.853 37.1369 159.091 38.2447C160.33 39.3524 161.265 40.7584 161.807 42.3292C162.35 43.9 162.482 45.5833 162.19 47.2194C161.899 48.8555 161.194 50.3899 160.143 51.677Z" fill="#E4897B"/>
<path d="M155.725 57.1191C151.754 56.2216 154.284 41.1938 164.547 43.9626C176.978 47.3138 162.151 58.5607 155.725 57.1191Z" fill="#263238"/>
<path d="M164.843 47.8962C160.069 46.1299 146.98 39.4562 149.376 31.3886C150.551 27.4645 158.045 28.0851 163.249 30.8634C154.799 31.169 159.038 35.1885 164.566 36.9261C173.56 39.7522 171.23 50.283 164.843 47.8962Z" fill="#263238"/>
<path d="M166.076 45.8625C166.076 45.8625 171.155 45.1942 170.096 49.8057C169.818 48.8601 169.302 48.0014 168.599 47.3112C167.895 46.621 167.027 46.1223 166.076 45.8625V45.8625Z" fill="#263238"/>
<path d="M166.307 45.4424C166.307 45.4424 169.41 49.5097 171.94 45.5188C171.072 45.9862 170.099 46.2245 169.113 46.2111C168.128 46.1978 167.162 45.9332 166.307 45.4424V45.4424Z" fill="#263238"/>
<path d="M158.264 59.9642C157.443 60.3049 156.562 60.4802 155.672 60.4802C154.783 60.4802 153.902 60.3049 153.08 59.9642C150.875 59.0095 151.247 56.7276 153.08 55.4196C154.741 54.2453 157.854 53.3096 159.496 54.9804C161.138 56.6512 160.289 59.1336 158.264 59.9642Z" fill="#E4897B"/>
<path d="M100.427 123.713C100.427 123.713 68.462 147.782 58.4944 167.364C48.1545 187.748 38.416 229.079 38.416 229.079L53.5679 234.578C53.5679 234.578 66.2374 199.491 77.7517 180.224C90.3067 159.22 111.111 154.399 127.217 134.244L100.427 123.713Z" fill="url(#paint8_linear_1207_1393)"/>
<path opacity="0.6" d="M100.427 123.713C100.427 123.713 68.462 147.782 58.4944 167.364C48.1545 187.748 38.416 229.079 38.416 229.079L53.5679 234.578C53.5679 234.578 66.2374 199.491 77.7517 180.224C90.3067 159.22 111.111 154.399 127.217 134.244L100.427 123.713Z" fill="white"/>
<path d="M114.903 129.413C114.903 129.413 93.8982 163.65 91.0339 184.702C87.931 207.75 95.3017 251.115 95.3017 251.115L110.387 247.496C110.387 247.496 106.778 216.056 112.029 194.087C117.757 170.219 134.504 156.575 141.139 139.791L114.903 129.413Z" fill="url(#paint9_linear_1207_1393)"/>
<path opacity="0.6" d="M114.903 129.413C114.903 129.413 93.8982 163.65 91.0339 184.702C87.931 207.75 95.3017 251.115 95.3017 251.115L110.387 247.496C110.387 247.496 106.778 216.056 112.029 194.087C117.757 170.219 134.504 156.575 141.139 139.791L114.903 129.413Z" fill="white"/>
<path d="M150.14 47.0942C149.806 47.5716 149.281 47.7816 148.976 47.562C148.67 47.3424 148.68 46.7887 148.976 46.3113C149.272 45.8339 149.835 45.6239 150.14 45.8435C150.446 46.0631 150.475 46.6264 150.14 47.0942Z" fill="#263238"/>
<path d="M144.761 43.3229C144.427 43.8003 143.902 44.0104 143.597 43.7908C143.291 43.5712 143.301 43.0174 143.597 42.54C143.893 42.0627 144.456 41.8526 144.761 42.0722C145.067 42.2918 145.096 42.9028 144.761 43.3229Z" fill="#263238"/>
<path d="M146.307 44.8124C144.719 45.8682 142.994 46.7003 141.18 47.2852C141.466 48.66 143.146 49.3093 143.146 49.3093L146.307 44.8124Z" fill="#DE5753"/>
<path d="M146.569 52.5076C145.51 52.5053 144.479 52.1714 143.619 51.5529C143.598 51.5409 143.58 51.5246 143.566 51.5051C143.552 51.4857 143.542 51.4635 143.537 51.4399C143.532 51.4164 143.532 51.392 143.537 51.3685C143.542 51.3449 143.552 51.3227 143.566 51.3032C143.58 51.2837 143.598 51.2674 143.619 51.2553C143.64 51.2432 143.663 51.2357 143.687 51.2331C143.711 51.2305 143.735 51.233 143.758 51.2404C143.781 51.2478 143.802 51.2599 143.82 51.276C144.402 51.7042 145.078 51.9888 145.791 52.1066C146.505 52.2244 147.236 52.1721 147.925 51.9539C147.967 51.9404 148.013 51.9427 148.053 51.9602C148.093 51.9778 148.126 52.0095 148.145 52.0494C148.161 52.0912 148.159 52.1375 148.142 52.1785C148.124 52.2195 148.091 52.2519 148.049 52.2689C147.575 52.4374 147.073 52.5183 146.569 52.5076V52.5076Z" fill="#263238"/>
<path d="M153.173 46.5595C153.085 46.5597 153.001 46.5261 152.937 46.4657C152.873 46.4053 152.834 46.3227 152.83 46.2349C152.826 45.8067 152.722 45.3853 152.524 45.0052C152.327 44.6252 152.042 44.2973 151.693 44.0485C151.615 44.0017 151.558 43.9256 151.536 43.837C151.513 43.7483 151.527 43.6544 151.574 43.5759C151.621 43.4974 151.697 43.4408 151.786 43.4184C151.874 43.396 151.968 43.4098 152.047 43.4566C152.491 43.7659 152.855 44.1767 153.109 44.6549C153.363 45.1331 153.5 45.6649 153.507 46.2063C153.511 46.2513 153.506 46.2966 153.491 46.3393C153.477 46.3821 153.454 46.4213 153.423 46.4546C153.393 46.4878 153.355 46.5143 153.314 46.5324C153.273 46.5505 153.228 46.5597 153.183 46.5595H153.173Z" fill="#263238"/>
<path d="M143.904 39.8954C143.841 39.8949 143.78 39.8778 143.726 39.8459C143.673 39.8141 143.628 39.7686 143.598 39.714C143.557 39.6352 143.547 39.5434 143.572 39.4579C143.597 39.3724 143.654 39.2999 143.732 39.2557C144.199 38.9816 144.726 38.823 145.267 38.7931C145.808 38.7633 146.349 38.8629 146.844 39.0839C146.885 39.105 146.92 39.1339 146.949 39.1689C146.978 39.2039 147 39.2443 147.014 39.2879C147.027 39.3314 147.031 39.3771 147.027 39.4224C147.022 39.4677 147.009 39.5117 146.987 39.5517C146.945 39.6307 146.873 39.6898 146.787 39.7166C146.702 39.7434 146.609 39.7356 146.529 39.6949C146.136 39.5229 145.707 39.4471 145.279 39.4736C144.851 39.5002 144.435 39.6284 144.066 39.8477C144.017 39.8777 143.961 39.8941 143.904 39.8954V39.8954Z" fill="#263238"/>
<path d="M165.997 83.2983L166.627 83.9189L167.343 84.8737L168.709 86.7832C169.577 88.0625 170.427 89.3514 171.229 90.669C172.031 91.9865 172.804 93.3327 173.549 94.7076C174.294 96.0824 174.981 97.4763 175.659 98.8989C177.032 101.815 178.199 104.824 179.154 107.902C179.402 108.676 179.621 109.487 179.822 110.308L180.137 111.53L180.213 111.836L180.309 112.275L180.5 113.144C180.879 115.196 181.004 117.286 180.872 119.369C180.622 122.782 179.981 126.155 178.963 129.422C178.058 132.398 176.971 135.316 175.707 138.158C174.485 140.946 173.129 143.619 171.687 146.235C170.246 148.851 168.718 151.343 166.914 153.873L158.436 149.673C159.887 144.431 161.395 138.998 162.531 133.776C163.066 131.15 163.591 128.563 163.887 126.071C164.04 124.811 164.145 123.608 164.231 122.443C164.294 121.365 164.294 120.284 164.231 119.206C164.166 118.437 164.012 117.678 163.773 116.944L163.706 116.781V116.695L163.62 116.505L163.276 115.693C163.047 115.158 162.818 114.614 162.541 114.07C161.49 111.817 160.327 109.619 159.056 107.482C158.426 106.375 157.767 105.277 157.07 104.179C156.373 103.081 155.705 101.983 154.979 100.894C154.254 99.8059 153.547 98.7175 152.822 97.6387L150.74 94.5644L165.997 83.2983Z" fill="url(#paint10_linear_1207_1393)"/>
<path opacity="0.6" d="M165.997 83.2983L166.627 83.9189L167.343 84.8737L168.709 86.7832C169.577 88.0625 170.427 89.3514 171.229 90.669C172.031 91.9865 172.804 93.3327 173.549 94.7076C174.294 96.0824 174.981 97.4763 175.659 98.8989C177.032 101.815 178.199 104.824 179.154 107.902C179.402 108.676 179.621 109.487 179.822 110.308L180.137 111.53L180.213 111.836L180.309 112.275L180.5 113.144C180.879 115.196 181.004 117.286 180.872 119.369C180.622 122.782 179.981 126.155 178.963 129.422C178.058 132.398 176.971 135.316 175.707 138.158C174.485 140.946 173.129 143.619 171.687 146.235C170.246 148.851 168.718 151.343 166.914 153.873L158.436 149.673C159.887 144.431 161.395 138.998 162.531 133.776C163.066 131.15 163.591 128.563 163.887 126.071C164.04 124.811 164.145 123.608 164.231 122.443C164.294 121.365 164.294 120.284 164.231 119.206C164.166 118.437 164.012 117.678 163.773 116.944L163.706 116.781V116.695L163.62 116.505L163.276 115.693C163.047 115.158 162.818 114.614 162.541 114.07C161.49 111.817 160.327 109.619 159.056 107.482C158.426 106.375 157.767 105.277 157.07 104.179C156.373 103.081 155.705 101.983 154.979 100.894C154.254 99.8059 153.547 98.7175 152.822 97.6387L150.74 94.5644L165.997 83.2983Z" fill="white"/>
<path opacity="0.1" d="M162.515 74.8489C176.358 68.907 182.764 52.8678 176.822 39.0243C170.88 25.1809 154.841 18.7754 140.997 24.7173C127.154 30.6592 120.749 46.6984 126.69 60.5418C132.632 74.3853 148.671 80.7908 162.515 74.8489Z" fill="url(#paint11_linear_1207_1393)"/>
<path d="M151.771 78.0281C147.649 78.0211 143.578 77.1155 139.842 75.3742C136.105 73.633 132.793 71.098 130.137 67.9459C130.057 67.8494 129.996 67.738 129.959 67.6181C129.922 67.4982 129.909 67.3721 129.92 67.2471C129.932 67.1221 129.968 67.0006 130.026 66.8895C130.085 66.7784 130.164 66.68 130.261 66.5997C130.357 66.5195 130.469 66.459 130.589 66.4218C130.709 66.3847 130.835 66.3714 130.96 66.383C131.085 66.3945 131.206 66.4305 131.317 66.489C131.428 66.5475 131.527 66.6273 131.607 66.7238C134.528 70.1935 138.295 72.8512 142.543 74.44C146.791 76.0289 151.377 76.4952 155.858 75.794C156.111 75.7547 156.369 75.8177 156.576 75.9689C156.783 76.1202 156.921 76.3475 156.961 76.6007C157 76.8539 156.937 77.1124 156.786 77.3192C156.634 77.526 156.407 77.6642 156.154 77.7035C154.704 77.926 153.238 78.0346 151.771 78.0281V78.0281Z" fill="#263238"/>
<path d="M112.396 250.58L93.9024 255.325L92.5371 237.166L110.553 234.903L112.396 250.58Z" fill="url(#paint12_linear_1207_1393)"/>
<path opacity="0.2" d="M112.396 250.58L93.9024 255.325L92.5371 237.166L110.553 234.903L112.396 250.58Z" fill="black"/>
<path d="M94.8633 251.506L110.674 247.974C110.903 247.933 111.139 247.972 111.344 248.083C111.548 248.194 111.709 248.371 111.801 248.585L115.944 258.419C116.042 258.659 116.085 258.918 116.069 259.177C116.053 259.436 115.98 259.688 115.853 259.915C115.726 260.141 115.55 260.336 115.338 260.486C115.126 260.635 114.883 260.734 114.627 260.777C110.092 261.521 107.848 261.655 102.158 262.686C98.6537 263.326 91.493 265.006 86.662 265.885C81.831 266.763 80.4561 262.371 82.2224 261.302C88.7052 257.349 90.7483 255.621 93.1257 252.547C93.5588 252 94.1767 251.63 94.8633 251.506Z" fill="url(#paint13_linear_1207_1393)"/>
<path opacity="0.2" d="M94.8633 251.506L110.674 247.974C110.903 247.933 111.139 247.972 111.344 248.083C111.548 248.194 111.709 248.371 111.801 248.585L115.944 258.419C116.042 258.659 116.085 258.918 116.069 259.177C116.053 259.436 115.98 259.688 115.853 259.915C115.726 260.141 115.55 260.336 115.338 260.486C115.126 260.635 114.883 260.734 114.627 260.777C110.092 261.521 107.848 261.655 102.158 262.686C98.6537 263.326 91.493 265.006 86.662 265.885C81.831 266.763 80.4561 262.371 82.2224 261.302C88.7052 257.349 90.7483 255.621 93.1257 252.547C93.5588 252 94.1767 251.63 94.8633 251.506Z" fill="black"/>
<path d="M53.281 237.414L34.7207 232.908L40.8693 216.314L59.0191 222.711L53.281 237.414Z" fill="url(#paint14_linear_1207_1393)"/>
<path opacity="0.2" d="M53.281 237.414L34.7207 232.908L40.8693 216.314L59.0191 222.711L53.281 237.414Z" fill="black"/>
<path d="M37.4122 230.034L53.0224 234.359C53.2437 234.428 53.4347 234.571 53.5633 234.764C53.6919 234.957 53.7503 235.188 53.7289 235.419L52.7741 246.045C52.7494 246.304 52.6662 246.554 52.5309 246.776C52.3955 246.998 52.2115 247.187 51.9927 247.327C51.7739 247.468 51.526 247.557 51.2678 247.588C51.0095 247.619 50.7477 247.591 50.5018 247.506C46.1482 246.035 44.105 245.1 38.5865 243.334C35.1972 242.255 28.0843 240.374 23.4156 238.875C18.7468 237.376 19.5966 232.86 21.6493 232.745C29.23 232.306 31.846 231.743 35.3881 230.148C36.0263 229.865 36.7461 229.824 37.4122 230.034V230.034Z" fill="url(#paint15_linear_1207_1393)"/>
<path opacity="0.2" d="M37.4122 230.034L53.0224 234.359C53.2437 234.428 53.4347 234.571 53.5633 234.764C53.6919 234.957 53.7503 235.188 53.7289 235.419L52.7741 246.045C52.7494 246.304 52.6662 246.554 52.5309 246.776C52.3955 246.998 52.2115 247.187 51.9927 247.327C51.7739 247.468 51.526 247.557 51.2678 247.588C51.0095 247.619 50.7477 247.591 50.5018 247.506C46.1482 246.035 44.105 245.1 38.5865 243.334C35.1972 242.255 28.0843 240.374 23.4156 238.875C18.7468 237.376 19.5966 232.86 21.6493 232.745C29.23 232.306 31.846 231.743 35.3881 230.148C36.0263 229.865 36.7461 229.824 37.4122 230.034V230.034Z" fill="black"/>
<path d="M141.483 142.712C114.215 135.485 98.1468 125.527 97.4785 125.116L100.515 120.257C100.667 120.362 116.583 130.186 142.953 137.175L141.483 142.712Z" fill="url(#paint16_linear_1207_1393)"/>
<path opacity="0.2" d="M141.483 142.712C114.215 135.485 98.1468 125.527 97.4785 125.116L100.515 120.257C100.667 120.362 116.583 130.186 142.953 137.175L141.483 142.712Z" fill="black"/>
<path d="M59.8038 177.675C59.2647 177.679 58.732 177.559 58.2476 177.322C56.8632 176.616 56.0325 175.021 55.918 172.825C55.929 170.39 56.5118 167.991 57.6196 165.822C58.7273 163.652 60.329 161.774 62.2957 160.337C64.1288 159.144 65.9142 158.876 67.2986 159.583C68.683 160.289 69.5232 161.884 69.6377 164.07C69.6772 166.522 69.0924 168.943 67.9383 171.107V171.107C66.8634 173.334 65.2159 175.235 63.1645 176.616C62.1632 177.271 61.0002 177.638 59.8038 177.675V177.675ZM65.6373 159.382C64.4838 159.435 63.37 159.82 62.4294 160.49C60.4924 161.91 58.9159 163.766 57.8264 165.906C56.737 168.047 56.1651 170.414 56.1567 172.816C56.2617 174.916 57.0446 176.444 58.3621 177.112C59.6797 177.78 61.2264 177.456 63.0118 176.367C65.0379 175.011 66.6659 173.139 67.7282 170.944C68.8626 168.823 69.4376 166.447 69.399 164.041C69.2845 161.941 68.5016 160.413 67.1936 159.745C66.7106 159.503 66.1774 159.379 65.6373 159.382V159.382Z" fill="url(#paint17_linear_1207_1393)"/>
<path opacity="0.2" d="M59.8038 177.675C59.2647 177.679 58.732 177.559 58.2476 177.322C56.8632 176.616 56.0325 175.021 55.918 172.825C55.929 170.39 56.5118 167.991 57.6196 165.822C58.7273 163.652 60.329 161.774 62.2957 160.337C64.1288 159.144 65.9142 158.876 67.2986 159.583C68.683 160.289 69.5232 161.884 69.6377 164.07C69.6772 166.522 69.0924 168.943 67.9383 171.107V171.107C66.8634 173.334 65.2159 175.235 63.1645 176.616C62.1632 177.271 61.0002 177.638 59.8038 177.675V177.675ZM65.6373 159.382C64.4838 159.435 63.37 159.82 62.4294 160.49C60.4924 161.91 58.9159 163.766 57.8264 165.906C56.737 168.047 56.1651 170.414 56.1567 172.816C56.2617 174.916 57.0446 176.444 58.3621 177.112C59.6797 177.78 61.2264 177.456 63.0118 176.367C65.0379 175.011 66.6659 173.139 67.7282 170.944C68.8626 168.823 69.4376 166.447 69.399 164.041C69.2845 161.941 68.5016 160.413 67.1936 159.745C66.7106 159.503 66.1774 159.379 65.6373 159.382V159.382Z" fill="black"/>
<path d="M94.5899 197.019H94.3608C91.1719 196.761 88.9282 192.092 89.3674 186.612C89.7875 181.275 92.5754 177.064 95.6592 177.064H95.9265C99.1154 177.313 101.35 181.981 100.92 187.462C100.423 193.305 97.33 197.019 94.5899 197.019ZM95.6497 177.341C92.6899 177.341 90.0071 181.418 89.5966 186.631C89.186 191.844 91.3151 196.532 94.3703 196.78C97.0054 196.99 100.232 193.228 100.681 187.5C101.101 182.153 98.9627 177.599 95.9075 177.36L95.6497 177.341Z" fill="url(#paint18_linear_1207_1393)"/>
<path opacity="0.2" d="M94.5899 197.019H94.3608C91.1719 196.761 88.9282 192.092 89.3674 186.612C89.7875 181.275 92.5754 177.064 95.6592 177.064H95.9265C99.1154 177.313 101.35 181.981 100.92 187.462C100.423 193.305 97.33 197.019 94.5899 197.019ZM95.6497 177.341C92.6899 177.341 90.0071 181.418 89.5966 186.631C89.186 191.844 91.3151 196.532 94.3703 196.78C97.0054 196.99 100.232 193.228 100.681 187.5C101.101 182.153 98.9627 177.599 95.9075 177.36L95.6497 177.341Z" fill="black"/>
<path d="M128.802 105.706C127.648 105.71 126.505 105.483 125.441 105.038C120.113 102.813 118.013 95.6719 120.743 89.1032C121.966 86.0396 124.2 83.4862 127.073 81.8662C128.308 81.1081 129.704 80.6545 131.148 80.5431C132.592 80.4316 134.042 80.6654 135.378 81.2251C136.714 81.7848 137.897 82.6544 138.831 83.7619C139.764 84.8695 140.42 86.1833 140.745 87.5947C141.609 90.762 141.37 94.1286 140.068 97.1422V97.1422C138.844 100.206 136.611 102.759 133.738 104.379C132.23 105.229 130.532 105.685 128.802 105.706V105.706ZM132 80.7873C130.326 80.8128 128.685 81.2559 127.226 82.0762C124.399 83.6708 122.203 86.184 121.001 89.1987C118.318 95.6432 120.371 102.651 125.574 104.818C126.883 105.332 128.291 105.541 129.691 105.43C131.092 105.319 132.45 104.891 133.661 104.179C136.488 102.584 138.684 100.071 139.886 97.0563L139.991 97.104L139.886 97.0563C141.175 94.0828 141.411 90.7585 140.554 87.6329C140.209 86.2699 139.557 85.0036 138.649 83.93C137.74 82.8564 136.6 82.0037 135.313 81.4365C134.262 81.0032 133.136 80.7825 132 80.7873V80.7873Z" fill="url(#paint19_linear_1207_1393)"/>
<path opacity="0.2" d="M128.802 105.706C127.648 105.71 126.505 105.483 125.441 105.038C120.113 102.813 118.013 95.6719 120.743 89.1032C121.966 86.0396 124.2 83.4862 127.073 81.8662C128.308 81.1081 129.704 80.6545 131.148 80.5431C132.592 80.4316 134.042 80.6654 135.378 81.2251C136.714 81.7848 137.897 82.6544 138.831 83.7619C139.764 84.8695 140.42 86.1833 140.745 87.5947C141.609 90.762 141.37 94.1286 140.068 97.1422V97.1422C138.844 100.206 136.611 102.759 133.738 104.379C132.23 105.229 130.532 105.685 128.802 105.706V105.706ZM132 80.7873C130.326 80.8128 128.685 81.2559 127.226 82.0762C124.399 83.6708 122.203 86.184 121.001 89.1987C118.318 95.6432 120.371 102.651 125.574 104.818C126.883 105.332 128.291 105.541 129.691 105.43C131.092 105.319 132.45 104.891 133.661 104.179C136.488 102.584 138.684 100.071 139.886 97.0563L139.991 97.104L139.886 97.0563C141.175 94.0828 141.411 90.7585 140.554 87.6329C140.209 86.2699 139.557 85.0036 138.649 83.93C137.74 82.8564 136.6 82.0037 135.313 81.4365C134.262 81.0032 133.136 80.7825 132 80.7873V80.7873Z" fill="black"/>
<path d="M63.6017 59.2481L74.7055 53.7965C74.7055 53.7965 68.681 39.0074 62.3892 40.3154C55.8873 41.6616 57.7586 48.0394 63.6017 59.2481Z" fill="url(#paint20_linear_1207_1393)"/>
<path opacity="0.2" d="M63.6017 59.2481L74.7055 53.7965C74.7055 53.7965 68.681 39.0074 62.3892 40.3154C55.8873 41.6616 57.7586 48.0394 63.6017 59.2481Z" fill="black"/>
<path d="M68.9188 49.8248L73.8835 52.689C73.8835 52.689 74.2463 42.2822 71.8021 41.8049C69.358 41.3275 68.365 44.2299 68.9188 49.8248Z" fill="url(#paint21_linear_1207_1393)"/>
<path opacity="0.2" d="M68.9188 49.8248L73.8835 52.689C73.8835 52.689 74.2463 42.2822 71.8021 41.8049C69.358 41.3275 68.365 44.2299 68.9188 49.8248Z" fill="black"/>
<path d="M170.772 149.042L159.687 143.533C159.687 143.533 151.61 157.32 156.479 161.521C161.53 165.865 165.425 160.499 170.772 149.042Z" fill="url(#paint22_linear_1207_1393)"/>
<path opacity="0.2" d="M170.772 149.042L159.687 143.533C159.687 143.533 151.61 157.32 156.479 161.521C161.53 165.865 165.425 160.499 170.772 149.042Z" fill="black"/>
<path d="M160.069 150.57L159.353 144.841C159.353 144.841 150.865 150.885 151.982 153.11C153.099 155.334 155.944 154.389 160.069 150.57Z" fill="url(#paint23_linear_1207_1393)"/>
<path opacity="0.2" d="M160.069 150.57L159.353 144.841C159.353 144.841 150.865 150.885 151.982 153.11C153.099 155.334 155.944 154.389 160.069 150.57Z" fill="black"/>
<path d="M173.291 98.0692L164.762 102.38L167.526 107.85L176.056 103.54L173.291 98.0692Z" fill="url(#paint24_linear_1207_1393)"/>
<path opacity="0.2" d="M173.291 98.0692L164.762 102.38L167.526 107.85L176.056 103.54L173.291 98.0692Z" fill="black"/>
<path d="M141.136 127.37C141.01 127.356 140.891 127.304 140.796 127.219C140.701 127.135 140.634 127.023 140.606 126.899C140.577 126.776 140.588 126.646 140.636 126.529C140.685 126.411 140.769 126.312 140.876 126.244C140.984 126.177 141.11 126.144 141.237 126.152C141.364 126.159 141.485 126.206 141.584 126.286C141.683 126.366 141.755 126.474 141.789 126.597C141.824 126.719 141.819 126.849 141.776 126.969C141.742 127.105 141.656 127.223 141.537 127.298C141.418 127.373 141.274 127.398 141.136 127.37V127.37Z" fill="url(#paint25_linear_1207_1393)"/>
<path d="M140.285 129.728C140.171 129.652 140.086 129.541 140.043 129.411C140 129.281 140.001 129.141 140.048 129.012C140.094 128.883 140.182 128.774 140.298 128.701C140.413 128.628 140.55 128.597 140.686 128.611C140.8 128.686 140.885 128.798 140.929 128.928C140.972 129.057 140.97 129.198 140.924 129.326C140.877 129.455 140.789 129.565 140.674 129.637C140.558 129.71 140.421 129.742 140.285 129.728V129.728Z" fill="url(#paint26_linear_1207_1393)"/>
<path d="M139.435 132.076C139.308 132.065 139.187 132.014 139.091 131.931C138.994 131.847 138.926 131.736 138.896 131.612C138.866 131.488 138.876 131.358 138.923 131.24C138.971 131.121 139.054 131.021 139.162 130.952C139.269 130.884 139.396 130.851 139.523 130.858C139.65 130.865 139.772 130.911 139.872 130.991C139.971 131.071 140.044 131.18 140.078 131.302C140.113 131.425 140.108 131.556 140.065 131.675C140.033 131.811 139.949 131.929 139.831 132.004C139.713 132.079 139.571 132.105 139.435 132.076Z" fill="url(#paint27_linear_1207_1393)"/>
<path d="M141.985 129.012C141.858 129 141.738 128.949 141.642 128.866C141.545 128.783 141.477 128.671 141.447 128.547C141.417 128.423 141.426 128.293 141.474 128.175C141.522 128.057 141.605 127.956 141.713 127.888C141.82 127.819 141.947 127.786 142.074 127.793C142.201 127.8 142.323 127.847 142.423 127.926C142.522 128.006 142.594 128.115 142.629 128.238C142.663 128.36 142.659 128.491 142.615 128.611C142.584 128.747 142.5 128.865 142.382 128.94C142.264 129.014 142.122 129.04 141.985 129.012V129.012Z" fill="url(#paint28_linear_1207_1393)"/>
<path d="M141.14 131.36C141.013 131.349 140.892 131.298 140.796 131.215C140.699 131.131 140.631 131.02 140.601 130.896C140.571 130.772 140.581 130.642 140.628 130.524C140.676 130.405 140.759 130.305 140.867 130.236C140.975 130.168 141.101 130.135 141.228 130.142C141.355 130.149 141.477 130.195 141.577 130.275C141.677 130.355 141.749 130.464 141.783 130.586C141.818 130.709 141.813 130.839 141.77 130.959C141.738 131.095 141.654 131.213 141.536 131.288C141.419 131.363 141.276 131.389 141.14 131.36Z" fill="url(#paint29_linear_1207_1393)"/>
<path d="M140.285 133.719C140.16 133.653 140.066 133.542 140.023 133.408C139.981 133.274 139.992 133.128 140.056 133.003C140.064 132.933 140.088 132.866 140.126 132.806C140.163 132.747 140.214 132.697 140.274 132.66C140.333 132.622 140.401 132.599 140.471 132.592C140.54 132.584 140.611 132.592 140.677 132.616C140.744 132.64 140.804 132.678 140.853 132.728C140.903 132.778 140.94 132.838 140.963 132.905C140.986 132.971 140.994 133.042 140.985 133.112C140.977 133.182 140.953 133.249 140.915 133.308C140.885 133.446 140.803 133.566 140.685 133.643C140.567 133.72 140.423 133.747 140.285 133.719V133.719Z" fill="url(#paint30_linear_1207_1393)"/>
<path opacity="0.2" d="M141.136 127.37C141.01 127.356 140.891 127.304 140.796 127.219C140.701 127.135 140.634 127.023 140.606 126.899C140.577 126.776 140.588 126.646 140.636 126.529C140.685 126.411 140.769 126.312 140.876 126.244C140.984 126.177 141.11 126.145 141.237 126.152C141.364 126.159 141.485 126.206 141.584 126.286C141.683 126.366 141.755 126.474 141.789 126.597C141.824 126.719 141.819 126.849 141.776 126.969C141.742 127.105 141.656 127.223 141.537 127.298C141.418 127.373 141.274 127.398 141.136 127.37V127.37Z" fill="black"/>
<path opacity="0.2" d="M140.285 129.728C140.171 129.652 140.086 129.541 140.043 129.411C140 129.281 140.001 129.141 140.048 129.012C140.094 128.883 140.182 128.774 140.298 128.701C140.413 128.628 140.55 128.597 140.686 128.611C140.8 128.686 140.885 128.798 140.929 128.928C140.972 129.057 140.97 129.198 140.924 129.327C140.877 129.455 140.789 129.565 140.674 129.637C140.558 129.71 140.421 129.742 140.285 129.728V129.728Z" fill="black"/>
<path opacity="0.2" d="M139.435 132.076C139.308 132.065 139.187 132.014 139.091 131.931C138.994 131.847 138.926 131.736 138.896 131.612C138.866 131.488 138.876 131.358 138.923 131.24C138.971 131.121 139.054 131.021 139.162 130.952C139.269 130.884 139.396 130.851 139.523 130.858C139.65 130.865 139.772 130.911 139.872 130.991C139.971 131.071 140.044 131.18 140.078 131.302C140.113 131.425 140.108 131.556 140.065 131.675C140.033 131.811 139.949 131.929 139.831 132.004C139.713 132.079 139.571 132.105 139.435 132.076Z" fill="black"/>
<path opacity="0.2" d="M141.987 129.012C141.86 129 141.74 128.949 141.644 128.866C141.547 128.783 141.479 128.671 141.449 128.547C141.419 128.423 141.428 128.293 141.476 128.175C141.524 128.057 141.607 127.956 141.715 127.888C141.822 127.819 141.949 127.786 142.076 127.793C142.203 127.8 142.325 127.847 142.425 127.926C142.524 128.006 142.596 128.115 142.631 128.238C142.665 128.36 142.661 128.491 142.617 128.611C142.585 128.747 142.502 128.865 142.384 128.94C142.266 129.014 142.124 129.04 141.987 129.012V129.012Z" fill="black"/>
<path opacity="0.2" d="M141.134 131.36C141.007 131.349 140.887 131.298 140.79 131.215C140.693 131.131 140.625 131.02 140.595 130.896C140.565 130.772 140.575 130.642 140.622 130.524C140.67 130.405 140.754 130.305 140.861 130.236C140.969 130.168 141.095 130.135 141.222 130.142C141.35 130.149 141.472 130.195 141.571 130.275C141.671 130.355 141.743 130.464 141.777 130.586C141.812 130.709 141.807 130.839 141.764 130.959C141.732 131.095 141.648 131.213 141.53 131.288C141.413 131.363 141.27 131.389 141.134 131.36Z" fill="black"/>
<path opacity="0.2" d="M140.285 133.719C140.16 133.653 140.066 133.542 140.023 133.408C139.981 133.274 139.992 133.128 140.056 133.003C140.064 132.933 140.088 132.866 140.126 132.806C140.163 132.747 140.214 132.697 140.274 132.66C140.333 132.622 140.401 132.599 140.471 132.592C140.54 132.584 140.611 132.592 140.677 132.616C140.744 132.64 140.804 132.678 140.853 132.728C140.903 132.778 140.94 132.838 140.963 132.905C140.986 132.971 140.994 133.042 140.985 133.112C140.977 133.182 140.953 133.249 140.915 133.308C140.885 133.446 140.803 133.566 140.685 133.643C140.567 133.72 140.423 133.747 140.285 133.719V133.719Z" fill="black"/>
<defs>
<linearGradient id="paint0_linear_1207_1393" x1="260" y1="280" x2="-19.2329" y2="20.7123" gradientUnits="userSpaceOnUse">
<stop offset="0.104757" stop-color="#149EED"/>
<stop offset="0.895243" stop-color="#B440FC"/>
</linearGradient>
<linearGradient id="paint1_linear_1207_1393" x1="29.9336" y1="21.2406" x2="44.6432" y2="36.5476" gradientUnits="userSpaceOnUse">
<stop offset="0.104757" stop-color="#149EED"/>
<stop offset="0.895243" stop-color="#B440FC"/>
</linearGradient>
<linearGradient id="paint2_linear_1207_1393" x1="68.7754" y1="6" x2="96.151" y2="32.8762" gradientUnits="userSpaceOnUse">
<stop offset="0.104757" stop-color="#149EED"/>
<stop offset="0.895243" stop-color="#B440FC"/>
</linearGradient>
<linearGradient id="paint3_linear_1207_1393" x1="201.758" y1="81.7457" x2="229.63" y2="110.046" gradientUnits="userSpaceOnUse">
<stop offset="0.104757" stop-color="#149EED"/>
<stop offset="0.895243" stop-color="#B440FC"/>
</linearGradient>
<linearGradient id="paint4_linear_1207_1393" x1="202.188" y1="146.391" x2="216.015" y2="160.48" gradientUnits="userSpaceOnUse">
<stop offset="0.104757" stop-color="#149EED"/>
<stop offset="0.895243" stop-color="#B440FC"/>
</linearGradient>
<linearGradient id="paint5_linear_1207_1393" x1="27.998" y1="150.929" x2="37.3898" y2="160.503" gradientUnits="userSpaceOnUse">
<stop offset="0.104757" stop-color="#149EED"/>
<stop offset="0.895243" stop-color="#B440FC"/>
</linearGradient>
<linearGradient id="paint6_linear_1207_1393" x1="62.8691" y1="50.5695" x2="95.8781" y2="109.583" gradientUnits="userSpaceOnUse">
<stop offset="0.104757" stop-color="#149EED"/>
<stop offset="0.895243" stop-color="#B440FC"/>
</linearGradient>
<linearGradient id="paint7_linear_1207_1393" x1="100.428" y1="65.9887" x2="173.712" y2="131.063" gradientUnits="userSpaceOnUse">
<stop offset="0.104757" stop-color="#149EED"/>
<stop offset="0.895243" stop-color="#B440FC"/>
</linearGradient>
<linearGradient id="paint8_linear_1207_1393" x1="38.416" y1="123.713" x2="146.607" y2="210.372" gradientUnits="userSpaceOnUse">
<stop offset="0.104757" stop-color="#149EED"/>
<stop offset="0.895243" stop-color="#B440FC"/>
</linearGradient>
<linearGradient id="paint9_linear_1207_1393" x1="90.2715" y1="129.413" x2="176.877" y2="165.611" gradientUnits="userSpaceOnUse">
<stop offset="0.104757" stop-color="#149EED"/>
<stop offset="0.895243" stop-color="#B440FC"/>
</linearGradient>
<linearGradient id="paint10_linear_1207_1393" x1="150.74" y1="83.2983" x2="201.772" y2="105.123" gradientUnits="userSpaceOnUse">
<stop offset="0.104757" stop-color="#149EED"/>
<stop offset="0.895243" stop-color="#B440FC"/>
</linearGradient>
<linearGradient id="paint11_linear_1207_1393" x1="115.932" y1="35.476" x2="187.581" y2="64.0901" gradientUnits="userSpaceOnUse">
<stop offset="0.104757" stop-color="#149EED"/>
<stop offset="0.895243" stop-color="#B440FC"/>
</linearGradient>
<linearGradient id="paint12_linear_1207_1393" x1="92.5371" y1="234.903" x2="112.951" y2="254.754" gradientUnits="userSpaceOnUse">
<stop offset="0.104757" stop-color="#149EED"/>
<stop offset="0.895243" stop-color="#B440FC"/>
</linearGradient>
<linearGradient id="paint13_linear_1207_1393" x1="81.4844" y1="247.958" x2="96.2807" y2="276.324" gradientUnits="userSpaceOnUse">
<stop offset="0.104757" stop-color="#149EED"/>
<stop offset="0.895243" stop-color="#B440FC"/>
</linearGradient>
<linearGradient id="paint14_linear_1207_1393" x1="34.7207" y1="216.314" x2="55.6123" y2="240.372" gradientUnits="userSpaceOnUse">
<stop offset="0.104757" stop-color="#149EED"/>
<stop offset="0.895243" stop-color="#B440FC"/>
</linearGradient>
<linearGradient id="paint15_linear_1207_1393" x1="20" y1="229.901" x2="34.5629" y2="257.658" gradientUnits="userSpaceOnUse">
<stop offset="0.104757" stop-color="#149EED"/>
<stop offset="0.895243" stop-color="#B440FC"/>
</linearGradient>
<linearGradient id="paint16_linear_1207_1393" x1="97.4785" y1="120.257" x2="115.308" y2="156.364" gradientUnits="userSpaceOnUse">
<stop offset="0.104757" stop-color="#149EED"/>
<stop offset="0.895243" stop-color="#B440FC"/>
</linearGradient>
<linearGradient id="paint17_linear_1207_1393" x1="55.918" y1="159.196" x2="73.6077" y2="172.331" gradientUnits="userSpaceOnUse">
<stop offset="0.104757" stop-color="#149EED"/>
<stop offset="0.895243" stop-color="#B440FC"/>
</linearGradient>
<linearGradient id="paint18_linear_1207_1393" x1="89.3125" y1="177.064" x2="106.697" y2="187.223" gradientUnits="userSpaceOnUse">
<stop offset="0.104757" stop-color="#149EED"/>
<stop offset="0.895243" stop-color="#B440FC"/>
</linearGradient>
<linearGradient id="paint19_linear_1207_1393" x1="119.547" y1="80.516" x2="144.461" y2="101.986" gradientUnits="userSpaceOnUse">
<stop offset="0.104757" stop-color="#149EED"/>
<stop offset="0.895243" stop-color="#B440FC"/>
</linearGradient>
<linearGradient id="paint20_linear_1207_1393" x1="58.2949" y1="40.2335" x2="77.1051" y2="56.4677" gradientUnits="userSpaceOnUse">
<stop offset="0.104757" stop-color="#149EED"/>
<stop offset="0.895243" stop-color="#B440FC"/>
</linearGradient>
<linearGradient id="paint21_linear_1207_1393" x1="68.7695" y1="41.7541" x2="77.1818" y2="45.7029" gradientUnits="userSpaceOnUse">
<stop offset="0.104757" stop-color="#149EED"/>
<stop offset="0.895243" stop-color="#B440FC"/>
</linearGradient>
<linearGradient id="paint22_linear_1207_1393" x1="154.918" y1="143.533" x2="173.998" y2="159.055" gradientUnits="userSpaceOnUse">
<stop offset="0.104757" stop-color="#149EED"/>
<stop offset="0.895243" stop-color="#B440FC"/>
</linearGradient>
<linearGradient id="paint23_linear_1207_1393" x1="151.881" y1="144.841" x2="161.236" y2="152.946" gradientUnits="userSpaceOnUse">
<stop offset="0.104757" stop-color="#149EED"/>
<stop offset="0.895243" stop-color="#B440FC"/>
</linearGradient>
<linearGradient id="paint24_linear_1207_1393" x1="164.762" y1="102.38" x2="173.651" y2="107.62" gradientUnits="userSpaceOnUse">
<stop offset="0.104757" stop-color="#149EED"/>
<stop offset="0.895243" stop-color="#B440FC"/>
</linearGradient>
<linearGradient id="paint25_linear_1207_1393" x1="140.59" y1="126.151" x2="141.82" y2="127.373" gradientUnits="userSpaceOnUse">
<stop offset="0.104757" stop-color="#149EED"/>
<stop offset="0.895243" stop-color="#B440FC"/>
</linearGradient>
<linearGradient id="paint26_linear_1207_1393" x1="140.012" y1="128.607" x2="141.119" y2="129.542" gradientUnits="userSpaceOnUse">
<stop offset="0.104757" stop-color="#149EED"/>
<stop offset="0.895243" stop-color="#B440FC"/>
</linearGradient>
<linearGradient id="paint27_linear_1207_1393" x1="138.879" y1="130.857" x2="140.11" y2="132.079" gradientUnits="userSpaceOnUse">
<stop offset="0.104757" stop-color="#149EED"/>
<stop offset="0.895243" stop-color="#B440FC"/>
</linearGradient>
<linearGradient id="paint28_linear_1207_1393" x1="141.43" y1="127.792" x2="142.661" y2="129.014" gradientUnits="userSpaceOnUse">
<stop offset="0.104757" stop-color="#149EED"/>
<stop offset="0.895243" stop-color="#B440FC"/>
</linearGradient>
<linearGradient id="paint29_linear_1207_1393" x1="140.584" y1="130.141" x2="141.815" y2="131.363" gradientUnits="userSpaceOnUse">
<stop offset="0.104757" stop-color="#149EED"/>
<stop offset="0.895243" stop-color="#B440FC"/>
</linearGradient>
<linearGradient id="paint30_linear_1207_1393" x1="139.998" y1="132.589" x2="141.127" y2="133.57" gradientUnits="userSpaceOnUse">
<stop offset="0.104757" stop-color="#149EED"/>
<stop offset="0.895243" stop-color="#B440FC"/>
</linearGradient>
</defs>
</svg>
