<svg width="40" height="40" viewBox="0 0 40 40" fill="none" xmlns="http://www.w3.org/2000/svg">
  <path fill-rule="evenodd" clip-rule="evenodd" d="M10.781 5.06214L17.5563 18.3982C17.9539 18.3395 18.3603 18.2884 18.7755 18.2455V2.49099C15.8555 2.69205 13.1337 3.60679 10.781 5.06214ZM21.2245 2.49099V18.0918C21.6082 18.0826 21.9986 18.0799 22.3958 18.0841L29.2051 5.05353C26.8555 3.60319 24.1387 2.69165 21.2245 2.49099ZM31.2136 6.49775L25.0937 18.2091C25.3577 18.2288 25.6384 18.2508 25.9333 18.2753L35.536 11.8266C34.4557 9.77767 32.9813 7.96759 31.2136 6.49775ZM36.5367 14.1046L29.7551 18.6587C32.3041 18.9588 35.1518 19.3872 37.551 19.967C37.5472 17.9091 37.1897 15.9362 36.5367 14.1046ZM30.7408 21.2489C29.0952 21.0338 27.5014 20.8692 26.1523 20.7518C25.4734 20.6927 24.8621 20.646 24.3444 20.611C23.9177 20.5821 23.4997 20.5614 23.0901 20.5483C22.4011 20.5262 21.7362 20.5258 21.0944 20.5451C20.7494 20.5555 20.411 20.5716 20.0793 20.5932C19.8257 20.6096 19.5759 20.6292 19.33 20.6519C18.7799 20.7025 18.2487 20.7683 17.7359 20.8478L17.5483 19.6378L17.7359 20.8478C17.5176 20.8817 17.3027 20.918 17.091 20.9567C16.527 21.0598 15.9861 21.1798 15.4676 21.3145C15.0006 21.4358 14.5571 21.569 14.1359 21.7123C8.09958 23.766 6.38234 28.0161 5.77345 30.2806C8.96401 34.6878 14.1478 37.551 20 37.551C21.7781 37.551 23.493 37.287 25.1083 36.7964C23.4194 35.1546 22.3116 33.4674 21.8159 31.7773C21.164 29.555 21.6088 27.4454 22.9593 25.685C24.276 23.9687 26.4006 22.6441 29.0482 21.747C29.5877 21.5642 30.1523 21.3979 30.7408 21.2489ZM27.6496 35.801C25.6468 34.0824 24.5724 32.4739 24.1659 31.088C23.7407 29.6387 24.0127 28.3353 24.9023 27.1757C25.8258 25.9719 27.4648 24.8693 29.8341 24.0665C31.8748 23.375 34.3974 22.9272 37.3264 22.8162C36.4026 28.5453 32.7037 33.3495 27.6496 35.801ZM4.14203 27.5311C5.1643 25.1603 7.1771 22.1978 11.2979 20.2258L3.42733 14.2065C2.79372 16.0191 2.44898 17.9683 2.44898 20C2.44898 22.6968 3.05648 25.2497 4.14203 27.5311ZM4.43044 11.8906L13.9763 19.1911C14.2609 19.1043 14.5526 19.022 14.8518 18.9442C14.9208 18.9263 14.9902 18.9086 15.0598 18.8912L8.77025 6.5112C6.99133 7.99392 5.51046 9.82158 4.43044 11.8906ZM8.48928 3.64256C11.7445 1.34789 15.7167 0 20 0C24.2819 0 28.2528 1.34698 31.5075 3.64025C34.4065 5.68299 36.7386 8.47724 38.2204 11.7416C39.3638 14.2606 40 17.0577 40 20C40 20.5537 39.9775 21.1024 39.9332 21.6452L39.9316 21.6654C39.3125 29.1694 34.5536 35.4944 27.9484 38.3579C25.5106 39.4148 22.822 40 20 40C13.1081 40 7.03107 36.513 3.43644 31.2126C1.2673 28.0142 0 24.1532 0 20C0 17.0607 0.63485 14.2663 1.77608 11.7494C3.25712 8.48291 5.58941 5.68672 8.48928 3.64256Z" fill="url(#paint0_linear_401_7)" />
  <defs>
    <linearGradient id="paint0_linear_401_7" x1="40" y1="0" x2="0" y2="40" gradientUnits="userSpaceOnUse">
      <stop stop-color="#BD00FF" />
      <stop offset="1" stop-color="#00ACFF" />
    </linearGradient>
  </defs>
</svg>