<svg width="260" height="280" viewBox="0 0 260 280" fill="none" xmlns="http://www.w3.org/2000/svg">
<path opacity="0.3" d="M91.4976 279.593C65.2297 277.031 35.9437 273.692 18.2205 254.146C0.475708 234.576 0.0536194 205.095 0.000244141 178.685C-0.0473633 155.124 6.89484 132.612 17.9328 111.794C28.3665 92.1157 46.1647 79.0804 61.4189 62.8463C81.8799 41.0708 93.0872 2.52298 122.878 0.107269C152.136 -2.26523 167.615 35.3282 191.564 52.293C213.659 67.9442 249.148 70.3808 258.13 95.9153C267.248 121.835 240.39 146.266 234.025 172.995C228.55 195.988 238.114 223.129 223.425 241.652C208.686 260.238 181.601 261.3 158.798 267.858C136.461 274.282 114.631 281.849 91.4976 279.593Z" fill="url(#paint0_linear_2413_2015)"/>
<path d="M215.613 25.4335C215.613 28.4551 199.086 31.0504 175.414 32.1905L173.514 32.2831L170.956 32.3851C167.406 32.5241 163.717 32.6261 159.917 32.7095H158.211H157.284C154.365 32.7559 151.38 32.7744 148.349 32.7744C142.862 32.7744 137.533 32.7002 132.426 32.5705L128.718 32.45C119.403 32.1441 110.95 31.6158 103.831 30.9299C89.8634 29.5767 81.0488 27.6024 81.0488 25.3687C81.0488 22.0412 101.069 19.242 128.607 18.3151L130.766 18.241C132.688 18.1854 134.638 18.139 136.615 18.1019C138.997 18.0556 141.425 18.0278 143.882 18.0093H148.359C155.292 18.0093 161.984 18.1205 168.277 18.3429L171.262 18.4449L175.145 18.6117L176.156 18.6673L178.742 18.7971C200.551 20.0762 215.613 22.5509 215.613 25.4335Z" fill="url(#paint1_linear_2413_2015)"/>
<path opacity="0.4" d="M215.613 25.4335C215.613 28.4551 199.086 31.0504 175.414 32.1905L173.514 32.2831L170.956 32.3851C167.406 32.5241 163.717 32.6261 159.917 32.7095H158.211H157.284C154.365 32.7559 151.38 32.7744 148.349 32.7744C142.862 32.7744 137.533 32.7002 132.426 32.5705L128.718 32.45C119.403 32.1441 110.95 31.6158 103.831 30.9299C89.8634 29.5767 81.0488 27.6024 81.0488 25.3687C81.0488 24.3862 82.8006 23.4408 85.9798 22.588C91.8517 23.9638 97.8193 24.8933 103.831 25.3687C110.95 26.0545 119.403 26.5829 128.718 26.8887L132.426 27.0092C137.533 27.139 142.862 27.2131 148.349 27.2131C151.38 27.2131 154.365 27.2131 157.284 27.1483H158.211H159.917C163.717 27.0648 167.406 26.9629 170.956 26.8238L173.514 26.7219L175.414 26.6292C191.384 25.8599 204.092 24.4325 210.682 22.6529C213.814 23.5149 215.613 24.4418 215.613 25.4335Z" fill="black"/>
<path d="M143.779 18.0741C143.712 19.1783 143.297 20.2329 142.593 21.0865C141.823 22.0133 141.165 22.7178 140.415 23.4871C139.97 23.9412 139.488 24.4139 139.071 24.8218C138.774 25.1276 138.468 25.415 138.144 25.693C136.574 27.1429 134.915 28.4926 133.176 29.7342L132.87 29.9474L132.063 30.485C130.953 31.2274 129.795 31.8962 128.597 32.487C128.152 32.7095 127.67 32.9227 127.225 33.1266C126.115 33.5938 124.972 33.978 123.805 34.2759C122.767 34.554 121.775 34.795 120.793 34.9989C119.412 35.3047 118.012 35.5828 116.687 35.833C114.156 36.3243 111.635 36.7599 109.096 37.1307C106.936 37.4551 104.776 37.7609 102.607 38.0575C100.865 38.2707 99.1223 38.4561 97.3613 38.6044C97.1673 38.6277 96.9713 38.6277 96.7773 38.6044C96.1904 38.5243 95.6483 38.2464 95.2406 37.8167C94.8328 37.387 94.5837 36.8312 94.5343 36.2409C94.525 36.1237 94.525 36.0059 94.5343 35.8887C94.5578 35.3758 94.7335 34.8816 95.0388 34.469C95.3442 34.0563 95.7655 33.7439 96.249 33.5715L96.4715 33.4973C98.8721 32.6353 101.282 31.8197 103.701 31.0318L107.362 29.8454C111.07 28.6405 114.777 27.5097 118.383 26.314C119.31 26.0174 120.172 25.7116 120.997 25.3872C121.707 25.1517 122.391 24.841 123.036 24.4603C123.453 24.2193 123.87 23.9505 124.296 23.6632C125.231 23.0351 126.131 22.3575 126.993 21.6333C128.217 20.623 129.44 19.5108 130.636 18.3522C132.558 18.2966 134.507 18.2502 136.485 18.2132C138.895 18.1205 141.323 18.0926 143.779 18.0741Z" fill="#FFB573"/>
<path d="M143.893 21.8187C143.828 22.0134 143.754 22.1988 143.68 22.3841C143.606 22.5695 143.522 22.7549 143.43 22.9402C143.348 23.122 143.255 23.2985 143.152 23.4686L142.846 23.9969V24.0432C142.636 24.3707 142.413 24.6797 142.178 24.9701C141.928 25.2945 141.669 25.6097 141.391 25.897L141.131 26.1843C140.728 26.6156 140.301 27.0241 139.852 27.4078C139.704 27.5468 139.546 27.6766 139.389 27.7971C139.334 27.8518 139.276 27.9015 139.212 27.9454C137.823 29.0541 136.333 30.0315 134.763 30.865L134.198 31.1524L133.642 31.4304L133.429 31.5231L132.752 30.9299L132.177 30.4109L130.88 29.2615L124.392 23.5427L123.9 23.1071C123.9 23.1071 125.884 20.8919 128.535 18.3059L130.694 18.2317C132.616 18.1761 134.566 18.1298 136.543 18.0927C138.925 18.0463 141.353 18.0185 143.81 18H144.347C144.48 19.2908 144.325 20.5951 143.893 21.8187Z" fill="url(#paint2_linear_2413_2015)"/>
<path opacity="0.6" d="M143.902 21.8187C143.838 22.0109 143.764 22.1996 143.68 22.3841C143.606 22.5695 143.522 22.7549 143.43 22.9402C143.348 23.122 143.255 23.2985 143.152 23.4686L142.846 23.9969V24.0432C142.636 24.3707 142.413 24.6797 142.178 24.9701C141.928 25.2945 141.669 25.6097 141.391 25.897L141.131 26.1843C140.728 26.6156 140.301 27.0241 139.852 27.4078C139.704 27.5468 139.546 27.6766 139.389 27.7971C139.334 27.8518 139.276 27.9015 139.212 27.9454C137.823 29.0541 136.333 30.0315 134.763 30.865L134.198 31.1524L133.642 31.4304L133.429 31.5231L132.752 30.9299L132.177 30.4109L130.88 29.2615L124.392 23.5427L123.9 23.1071C123.9 23.1071 125.884 20.8919 128.535 18.3059L130.694 18.2317C132.616 18.1761 134.566 18.1298 136.543 18.0927C138.925 18.0463 141.353 18.0185 143.81 18H144.357C144.49 19.2908 144.335 20.5952 143.902 21.8187Z" fill="white"/>
<path opacity="0.1" d="M139.146 28.0103C137.361 29.4367 135.409 30.6411 133.334 31.5973L130.785 29.345C132.124 25.3686 134.536 21.84 137.755 19.1493C138.914 21.2997 139.285 25.795 139.146 28.0103Z" fill="black"/>
<path d="M97.2303 33.5437L88.6289 32.2275L88.6938 39.8464C88.6938 39.8464 94.5887 41.6168 97.7123 37.6127L97.2303 33.5437Z" fill="#EBB376"/>
<path d="M82.7637 34.2852L84.1818 39.9484L88.6864 39.8464L88.6215 32.2275L82.7637 34.2852Z" fill="#EBB376"/>
<path d="M175.045 18.6581C174.971 18.8527 174.887 19.0474 174.813 19.2513C174.591 19.8167 174.377 20.3913 174.174 20.966C174.044 21.3182 173.923 21.6704 173.803 22.0319C173.682 22.3934 173.553 22.7549 173.441 23.1163C173.098 24.1915 172.765 25.276 172.44 26.3789C172.429 26.4387 172.414 26.4976 172.394 26.555C172.042 27.7785 171.727 29.0298 171.421 30.2626V30.4108C171.263 31.0597 171.096 31.7085 170.948 32.3665C170.874 32.6631 170.809 32.9505 170.744 33.2471C170.494 34.3871 170.253 35.5365 170.03 36.6765C169.947 37.1029 169.864 37.5292 169.789 37.9463C169.715 38.3634 169.613 38.8732 169.539 39.2718C169.539 39.3645 169.539 39.4571 169.493 39.5498C169.446 39.7908 169.4 40.0318 169.363 40.2728C169.243 40.9494 169.131 41.6168 169.02 42.2749C169.02 42.3768 169.02 42.4695 168.974 42.5715L168.863 43.2666C168.64 44.6199 168.445 45.9453 168.269 47.2336C168.265 47.3077 168.265 47.382 168.269 47.4561C168.075 48.8742 167.908 50.2367 167.76 51.5621C167.695 52.109 167.63 52.6466 167.574 53.1749C167.491 53.9164 167.417 54.6301 167.352 55.3253C167.296 55.835 167.25 56.3356 167.203 56.8175C167.157 57.2995 167.12 57.7444 167.083 58.143C167.046 58.5415 167.009 58.9957 166.972 59.3942C166.879 60.525 166.805 61.5446 166.74 62.4251C166.74 62.8144 166.694 63.1666 166.666 63.5003C166.592 64.7331 166.555 65.595 166.536 65.9843C166.536 66.1419 166.536 66.2253 166.536 66.2253L150.103 64.7145H149.862L147.081 64.455L142.901 64.0657L137.757 63.6393L136.542 63.5281L130.397 62.9627C130.397 62.3788 130.342 61.8134 130.332 61.2387C130.332 61.0812 130.332 60.9236 130.332 60.766C130.156 55.7053 130.249 51.0616 130.518 46.8629C130.666 44.6631 130.858 42.5715 131.092 40.5879C131.426 37.7332 131.843 35.1101 132.316 32.691C132.418 32.1441 132.529 31.6065 132.64 31.0875C132.714 30.726 132.789 30.383 132.872 30.0401C133.494 27.2583 134.261 24.5109 135.171 21.8094C135.615 20.5118 136.097 19.3347 136.496 18.2688C138.878 18.2224 141.307 18.1946 143.763 18.1761H148.24C155.173 18.1761 161.865 18.2873 168.158 18.5098L171.143 18.6117L175.045 18.6581Z" fill="url(#paint3_linear_2413_2015)"/>
<path opacity="0.6" d="M175.045 18.6581C174.971 18.8527 174.887 19.0474 174.813 19.2513C174.591 19.8167 174.377 20.3913 174.174 20.966C174.044 21.3182 173.923 21.6704 173.803 22.0319C173.682 22.3934 173.553 22.7549 173.441 23.1163V23.1812C173.098 24.2379 172.783 25.2945 172.468 26.3789C172.457 26.4387 172.441 26.4976 172.422 26.555C171.977 28.1307 171.56 29.7342 171.17 31.347C171.087 31.6899 171.013 32.0421 170.939 32.3851C170.865 32.728 170.8 32.969 170.735 33.2656C170.485 34.4057 170.244 35.555 170.021 36.6951C169.928 37.1214 169.845 37.5478 169.771 37.9741C169.687 38.4098 169.604 38.8547 169.53 39.2903C169.53 39.383 169.53 39.485 169.474 39.5776C169.428 39.8186 169.382 40.0596 169.344 40.3006C169.224 40.9772 169.113 41.6446 169.002 42.3027C169.002 42.4046 169.002 42.4973 168.955 42.5993L168.844 43.2944C168.631 44.6477 168.427 45.9731 168.251 47.2614C168.246 47.3355 168.246 47.4098 168.251 47.4839C168.056 48.902 167.889 50.2645 167.741 51.59C167.676 52.1368 167.611 52.6744 167.556 53.2027C167.472 53.9442 167.398 54.6579 167.333 55.3531C167.278 55.8629 167.231 56.3634 167.185 56.8453C167.139 57.3273 167.101 57.7722 167.064 58.1708C167.027 58.5693 166.99 59.0235 166.953 59.4221C166.86 60.5528 166.786 61.5724 166.721 62.4529C166.721 62.8422 166.675 63.1944 166.647 63.5281C166.573 64.7609 166.536 65.6228 166.518 66.0121C166.518 66.1697 166.518 66.2531 166.518 66.2531L150.084 64.7423H149.843L147.062 64.4828L142.882 64.0935L137.757 63.6393L136.542 63.5281L130.397 62.9627C130.397 62.3788 130.342 61.8134 130.332 61.2387C130.332 61.0812 130.332 60.9236 130.332 60.766C130.156 55.7053 130.249 51.0616 130.518 46.8629C130.666 44.6631 130.858 42.5715 131.092 40.5879C131.426 37.7332 131.843 35.1101 132.316 32.691C132.418 32.1441 132.529 31.6065 132.64 31.0875C132.714 30.726 132.789 30.383 132.872 30.0401C133.494 27.2583 134.261 24.5109 135.171 21.8094C135.615 20.5118 136.097 19.3347 136.496 18.2688C138.878 18.2224 141.307 18.1946 143.763 18.1761H148.24C155.173 18.1761 161.865 18.2873 168.158 18.5098L171.143 18.6117L175.045 18.6581Z" fill="white"/>
<path d="M86.3145 141.682C86.3145 141.682 97.9005 136.863 98.299 132.089C98.3033 131.975 98.3313 131.863 98.3812 131.76C98.4312 131.657 98.502 131.565 98.5891 131.491C98.6763 131.417 98.7779 131.362 98.8876 131.329C98.9972 131.297 99.1124 131.287 99.2259 131.301L108.068 131.839C108.277 131.856 108.477 131.929 108.648 132.05C108.819 132.17 108.955 132.334 109.042 132.525L112.582 140.709L110.126 141.043L109.097 139.921L108.17 141.312C94.8603 143.165 89.0952 143.768 86.3516 143.304C85.8511 142.183 86.3145 141.682 86.3145 141.682Z" fill="black"/>
<path d="M140.621 93.5497C140.111 93.4384 139.833 93.355 139.833 93.355L98.1236 88.146L110.525 132.312L97.9011 133.517C97.9011 133.517 69.0939 77.9503 80.8652 69.9329C92.6365 61.9154 129.137 70.7671 129.137 70.7671L130.574 59.765L166.861 62.4715C172.691 98.7402 145.626 94.597 140.621 93.5497Z" fill="black"/>
<path d="M128.596 221.143C128.596 221.143 141.091 219.948 142.861 215.462C142.898 215.357 142.956 215.26 143.031 215.178C143.106 215.097 143.197 215.031 143.298 214.985C143.4 214.939 143.509 214.914 143.62 214.911C143.731 214.909 143.842 214.929 143.945 214.97L152.287 218.066C152.48 218.142 152.649 218.268 152.778 218.431C152.907 218.594 152.99 218.788 153.019 218.993L154.02 227.854L151.573 227.455L150.906 226.084L149.646 227.149C136.391 225.008 130.682 223.942 128.198 222.691C127.966 221.468 128.596 221.143 128.596 221.143Z" fill="black"/>
<path d="M167.222 75.6145C167.166 75.837 165.655 82.7886 163.681 92.7525C163.57 93.3179 163.459 93.9111 163.338 94.495C162.411 99.2313 161.392 104.561 160.391 110.113C159.167 116.87 157.953 124.016 156.933 130.754C155.551 139.196 154.651 147.709 154.236 156.253C153.754 177.728 152.855 220.105 152.855 220.105L141.297 218.251C141.297 218.251 134.911 173.057 134.985 151.173C135.041 137.27 138.489 108.621 140.843 90.806C142.029 81.667 142.938 75.3643 142.938 75.3643L156.034 75.4848L167.222 75.6145Z" fill="black"/>
<path d="M166.312 66.0029L167.082 66.0678L167.045 63.556L166.368 63.5096L166.312 66.0029Z" fill="#263238"/>
<path d="M137.781 63.7876L153.26 64.9926L153.334 62.4993L137.911 61.3129L137.781 63.7876Z" fill="#263238"/>
<path d="M136.717 61.2202L130.173 60.7104L129.941 63.1759L136.569 63.695L136.717 61.2202Z" fill="#263238"/>
<path d="M165.175 63.4169L154.525 62.592L154.479 65.0853L165.091 65.9102L165.175 63.4169Z" fill="#263238"/>
<g opacity="0.2">
<path d="M166.312 66.0029L167.082 66.0678L167.045 63.5559L166.368 63.5096L166.312 66.0029Z" fill="white"/>
<path d="M137.783 63.7877L153.262 64.9926L153.336 62.4993L137.913 61.3129L137.783 63.7877Z" fill="white"/>
<path d="M136.717 61.2202L130.173 60.7104L129.941 63.1759L136.569 63.695L136.717 61.2202Z" fill="white"/>
<path d="M165.173 63.4169L154.523 62.592L154.477 65.0853L165.089 65.9102L165.173 63.4169Z" fill="white"/>
</g>
<path d="M146.873 64.8257H146.799L142.943 64.4642C142.742 64.4477 142.554 64.3532 142.421 64.201C142.288 64.0487 142.219 63.8506 142.23 63.6486L142.285 62.1378C142.289 62.0314 142.314 61.927 142.361 61.8312C142.407 61.7354 142.473 61.6504 142.554 61.5817C142.632 61.5093 142.724 61.4545 142.825 61.4209C142.925 61.3873 143.032 61.3758 143.138 61.387L146.975 61.6836C147.177 61.6979 147.365 61.79 147.5 61.9405C147.635 62.091 147.706 62.288 147.698 62.49V64.0657C147.697 64.1728 147.673 64.2784 147.628 64.3758C147.583 64.4732 147.519 64.5601 147.439 64.6311C147.282 64.766 147.08 64.8357 146.873 64.8257ZM143.073 62.0451C143.049 62.0366 143.023 62.0366 142.999 62.0451C142.993 62.0582 142.99 62.0724 142.99 62.0868C142.99 62.1012 142.993 62.1154 142.999 62.1285L142.934 63.6393C142.933 63.6547 142.935 63.6702 142.94 63.6847C142.945 63.6993 142.953 63.7127 142.963 63.724C142.974 63.7354 142.986 63.7444 143 63.7506C143.015 63.7567 143.03 63.7599 143.045 63.7598L146.901 64.1213C146.916 64.1274 146.931 64.1306 146.947 64.1306C146.963 64.1306 146.979 64.1274 146.994 64.1213C147.005 64.0946 147.005 64.0646 146.994 64.0379V62.4622C146.994 62.4318 146.982 62.4025 146.962 62.3801C146.941 62.3578 146.913 62.344 146.882 62.3417L143.045 62.0451H143.073Z" fill="white"/>
<path d="M146.822 63.5467L145.645 63.4354C145.556 63.4261 145.474 63.382 145.416 63.3126C145.359 63.2433 145.331 63.1543 145.339 63.0647C145.349 62.9778 145.392 62.898 145.459 62.8425C145.527 62.787 145.614 62.7603 145.701 62.7681L146.878 62.8793C146.966 62.8793 147.051 62.9145 147.114 62.9771C147.176 63.0396 147.211 63.1245 147.211 63.213C147.211 63.3015 147.176 63.3864 147.114 63.4489C147.051 63.5115 146.966 63.5467 146.878 63.5467H146.822Z" fill="white"/>
<path opacity="0.1" d="M172.395 26.5643C171.95 28.14 171.533 29.7435 171.143 31.3563C170.995 31.9958 170.847 32.6354 170.708 33.2749C170.013 36.417 169.419 39.5684 168.928 42.6086L168.817 43.3037C162.449 45.3521 155.841 43.9433 156.054 37.8073C156.36 29.586 163.367 25.758 163.367 25.758C166.49 24.0432 169.762 24.7106 172.395 26.5643Z" fill="black"/>
<path d="M110.097 262H118.671L90.7904 41.6817H82.2168L110.097 262Z" fill="#263238"/>
<path opacity="0.4" d="M110.097 262H118.671L90.7904 41.6817H82.2168L110.097 262Z" fill="white"/>
<path d="M92.1727 74.3355H119.432C119.772 74.3172 120.099 74.203 120.376 74.0061C120.654 73.8093 120.869 73.5378 120.999 73.2233L122.732 69.5158H88.873L90.6063 73.2233C90.7355 73.5378 90.9513 73.8093 91.2285 74.0061C91.5058 74.203 91.8332 74.3172 92.1727 74.3355Z" fill="#263238"/>
<path opacity="0.4" d="M92.1727 74.3355H119.432C119.772 74.3172 120.099 74.203 120.376 74.0061C120.654 73.8093 120.869 73.5378 120.999 73.2233L122.732 69.5158H88.873L90.6063 73.2233C90.7355 73.5378 90.9513 73.8093 91.2285 74.0061C91.5058 74.203 91.8332 74.3172 92.1727 74.3355Z" fill="white"/>
<path d="M89.3237 71.2953H122.265C123.243 71.2953 124.035 70.5028 124.035 69.525V69.1265C124.035 68.1487 123.243 67.3561 122.265 67.3561H89.3237C88.346 67.3561 87.5533 68.1487 87.5533 69.1265V69.525C87.5533 70.5028 88.346 71.2953 89.3237 71.2953Z" fill="#263238"/>
<path opacity="0.1" d="M89.3237 71.2953H122.265C123.243 71.2953 124.035 70.5028 124.035 69.525V69.1265C124.035 68.1487 123.243 67.3561 122.265 67.3561H89.3237C88.346 67.3561 87.5533 68.1487 87.5533 69.1265V69.525C87.5533 70.5028 88.346 71.2953 89.3237 71.2953Z" fill="white"/>
<path d="M97.1473 105.831H124.397C124.739 105.814 125.068 105.699 125.346 105.5C125.623 105.301 125.838 105.027 125.964 104.709L127.697 101.048H93.8477L95.5716 104.709C95.6992 105.027 95.9155 105.302 96.1949 105.501C96.4742 105.7 96.8048 105.814 97.1473 105.831Z" fill="#263238"/>
<path opacity="0.4" d="M97.1473 105.831H124.397C124.739 105.814 125.068 105.699 125.346 105.5C125.623 105.301 125.838 105.027 125.964 104.709L127.697 101.048H93.8477L95.5716 104.709C95.6992 105.027 95.9155 105.302 96.1949 105.501C96.4742 105.7 96.8048 105.814 97.1473 105.831Z" fill="white"/>
<path d="M94.3022 102.791H127.243C128.221 102.791 129.014 101.998 129.014 101.02V100.622C129.014 99.644 128.221 98.8514 127.243 98.8514H94.3022C93.3244 98.8514 92.5318 99.644 92.5318 100.622V101.02C92.5318 101.998 93.3244 102.791 94.3022 102.791Z" fill="#263238"/>
<path opacity="0.1" d="M94.3022 102.791H127.243C128.221 102.791 129.014 101.998 129.014 101.02V100.622C129.014 99.644 128.221 98.8514 127.243 98.8514H94.3022C93.3244 98.8514 92.5318 99.644 92.5318 100.622V101.02C92.5318 101.998 93.3244 102.791 94.3022 102.791Z" fill="white"/>
<path d="M102.117 147.512H129.413C129.755 147.498 130.085 147.385 130.365 147.188C130.644 146.991 130.861 146.717 130.989 146.4L132.713 142.693H98.8262L100.559 146.4C100.685 146.715 100.899 146.987 101.175 147.185C101.451 147.382 101.778 147.496 102.117 147.512Z" fill="#263238"/>
<path opacity="0.4" d="M102.117 147.512H129.413C129.755 147.498 130.085 147.385 130.365 147.188C130.644 146.991 130.861 146.717 130.989 146.4L132.713 142.693H98.8262L100.559 146.4C100.685 146.715 100.899 146.987 101.175 147.185C101.451 147.382 101.778 147.496 102.117 147.512Z" fill="white"/>
<path d="M99.2749 144.481H132.216C133.194 144.481 133.986 143.689 133.986 142.711V142.313C133.986 141.335 133.194 140.542 132.216 140.542H99.2749C98.2971 140.542 97.5045 141.335 97.5045 142.313V142.711C97.5045 143.689 98.2971 144.481 99.2749 144.481Z" fill="#263238"/>
<path opacity="0.1" d="M99.2749 144.481H132.216C133.194 144.481 133.986 143.689 133.986 142.711V142.313C133.986 141.335 133.194 140.542 132.216 140.542H99.2749C98.2971 140.542 97.5045 141.335 97.5045 142.313V142.711C97.5045 143.689 98.2971 144.481 99.2749 144.481Z" fill="white"/>
<path d="M107.083 189.203H134.342C134.682 189.187 135.011 189.074 135.288 188.877C135.566 188.679 135.781 188.407 135.909 188.091L137.642 184.383H103.783L105.516 188.091C105.644 188.407 105.859 188.679 106.137 188.877C106.414 189.074 106.743 189.187 107.083 189.203Z" fill="#263238"/>
<path opacity="0.4" d="M107.083 189.203H134.342C134.682 189.187 135.011 189.074 135.288 188.877C135.566 188.679 135.781 188.407 135.909 188.091L137.642 184.383H103.783L105.516 188.091C105.644 188.407 105.859 188.679 106.137 188.877C106.414 189.074 106.743 189.187 107.083 189.203Z" fill="white"/>
<path d="M104.24 186.172H137.181C138.159 186.172 138.951 185.38 138.951 184.402V184.003C138.951 183.026 138.159 182.233 137.181 182.233H104.24C103.262 182.233 102.469 183.026 102.469 184.003V184.402C102.469 185.38 103.262 186.172 104.24 186.172Z" fill="#263238"/>
<path opacity="0.1" d="M104.24 186.172H137.181C138.159 186.172 138.951 185.38 138.951 184.402V184.003C138.951 183.026 138.159 182.233 137.181 182.233H104.24C103.262 182.233 102.469 183.026 102.469 184.003V184.402C102.469 185.38 103.262 186.172 104.24 186.172Z" fill="white"/>
<path d="M112.065 230.894H139.315C139.655 230.879 139.984 230.766 140.262 230.569C140.54 230.372 140.755 230.098 140.881 229.782L142.615 226.074H108.756L110.489 229.782C110.617 230.099 110.834 230.373 111.113 230.57C111.393 230.767 111.723 230.88 112.065 230.894Z" fill="#263238"/>
<path opacity="0.4" d="M112.065 230.894H139.315C139.655 230.879 139.984 230.766 140.262 230.569C140.54 230.372 140.755 230.098 140.881 229.782L142.615 226.074H108.756L110.489 229.782C110.617 230.099 110.834 230.373 111.113 230.57C111.393 230.767 111.723 230.88 112.065 230.894Z" fill="white"/>
<path d="M109.206 227.863H142.148C143.125 227.863 143.918 227.071 143.918 226.093V225.694C143.918 224.717 143.125 223.924 142.148 223.924H109.206C108.229 223.924 107.436 224.717 107.436 225.694V226.093C107.436 227.071 108.229 227.863 109.206 227.863Z" fill="#263238"/>
<path opacity="0.1" d="M109.206 227.863H142.148C143.125 227.863 143.918 227.071 143.918 226.093V225.694C143.918 224.717 143.125 223.924 142.148 223.924H109.206C108.229 223.924 107.436 224.717 107.436 225.694V226.093C107.436 227.071 108.229 227.863 109.206 227.863Z" fill="white"/>
<path d="M143.195 262H151.768L123.888 41.6817H115.314L143.195 262Z" fill="#263238"/>
<path opacity="0.7" d="M143.195 262H151.768L123.888 41.6817H115.314L143.195 262Z" fill="white"/>
<path d="M53.1869 262H44.6133L72.4844 41.6817H81.058L53.1869 262Z" fill="#263238"/>
<path opacity="0.4" d="M53.1869 262H44.6133L72.4844 41.6817H81.058L53.1869 262Z" fill="white"/>
<path d="M104.2 74.3355H76.9501C76.6089 74.3189 76.2795 74.2055 76.0005 74.0085C75.7214 73.8116 75.5043 73.5392 75.3744 73.2233L73.6504 69.5158H107.5L105.767 73.2233C105.639 73.5391 105.424 73.8118 105.146 74.0089C104.869 74.2061 104.54 74.3194 104.2 74.3355Z" fill="#263238"/>
<path opacity="0.5" d="M104.2 74.3355H76.9501C76.6089 74.3189 76.2795 74.2055 76.0005 74.0085C75.7214 73.8116 75.5043 73.5392 75.3744 73.2233L73.6504 69.5158H107.5L105.767 73.2233C105.639 73.5391 105.424 73.8118 105.146 74.0089C104.869 74.2061 104.54 74.3194 104.2 74.3355Z" fill="white"/>
<path d="M107.045 67.3654H74.1043C73.1266 67.3654 72.334 68.158 72.334 69.1357V69.5343C72.334 70.512 73.1266 71.3046 74.1043 71.3046H107.045C108.023 71.3046 108.816 70.512 108.816 69.5343V69.1357C108.816 68.158 108.023 67.3654 107.045 67.3654Z" fill="#263238"/>
<path opacity="0.2" d="M107.045 67.3654H74.1043C73.1266 67.3654 72.334 68.158 72.334 69.1357V69.5343C72.334 70.512 73.1266 71.3046 74.1043 71.3046H107.045C108.023 71.3046 108.816 70.512 108.816 69.5343V69.1357C108.816 68.158 108.023 67.3654 107.045 67.3654Z" fill="white"/>
<path d="M99.2353 105.831H71.9481C71.6072 105.813 71.2786 105.698 71.001 105.499C70.7235 105.3 70.5086 105.026 70.3817 104.709L68.6484 101.048H102.535L100.802 104.709C100.675 105.026 100.46 105.3 100.182 105.499C99.9048 105.698 99.5762 105.813 99.2353 105.831Z" fill="#263238"/>
<path opacity="0.5" d="M99.2353 105.831H71.9481C71.6072 105.813 71.2786 105.698 71.001 105.499C70.7235 105.3 70.5086 105.026 70.3817 104.709L68.6484 101.048H102.535L100.802 104.709C100.675 105.026 100.46 105.3 100.182 105.499C99.9048 105.698 99.5762 105.813 99.2353 105.831Z" fill="white"/>
<path d="M102.083 98.8513H69.1414C68.1637 98.8513 67.3711 99.6439 67.3711 100.622V101.02C67.3711 101.998 68.1637 102.791 69.1414 102.791H102.083C103.06 102.791 103.853 101.998 103.853 101.02V100.622C103.853 99.6439 103.06 98.8513 102.083 98.8513Z" fill="#263238"/>
<path opacity="0.2" d="M102.083 98.8513H69.1414C68.1637 98.8513 67.3711 99.6439 67.3711 100.622V101.02C67.3711 101.998 68.1637 102.791 69.1414 102.791H102.083C103.06 102.791 103.853 101.998 103.853 101.02V100.622C103.853 99.6439 103.06 98.8513 102.083 98.8513Z" fill="white"/>
<path d="M94.2569 147.512H67.0067C66.6663 147.497 66.3374 147.384 66.0595 147.187C65.7817 146.99 65.5667 146.717 65.4403 146.4L63.707 142.693H97.5565L95.8325 146.4C95.7046 146.717 95.4879 146.991 95.2084 147.188C94.929 147.385 94.5986 147.498 94.2569 147.512Z" fill="#263238"/>
<path opacity="0.5" d="M94.2569 147.512H67.0067C66.6663 147.497 66.3374 147.384 66.0595 147.187C65.7817 146.99 65.5667 146.717 65.4403 146.4L63.707 142.693H97.5565L95.8325 146.4C95.7046 146.717 95.4879 146.991 95.2084 147.188C94.929 147.385 94.5986 147.498 94.2569 147.512Z" fill="white"/>
<path d="M97.1021 140.542H64.161C63.1832 140.542 62.3906 141.335 62.3906 142.313V142.711C62.3906 143.689 63.1832 144.481 64.161 144.481H97.1021C98.0799 144.481 98.8724 143.689 98.8724 142.711V142.313C98.8724 141.335 98.0799 140.542 97.1021 140.542Z" fill="#263238"/>
<path opacity="0.2" d="M97.1021 140.542H64.161C63.1832 140.542 62.3906 141.335 62.3906 142.313V142.711C62.3906 143.689 63.1832 144.481 64.161 144.481H97.1021C98.0799 144.481 98.8724 143.689 98.8724 142.711V142.313C98.8724 141.335 98.0799 140.542 97.1021 140.542Z" fill="white"/>
<path d="M89.29 189.203H62.0399C61.6985 189.188 61.3686 189.075 61.0893 188.878C60.8101 188.68 60.5931 188.407 60.4642 188.091L58.7402 184.383H92.5897L90.8565 188.091C90.7301 188.407 90.5151 188.681 90.2373 188.878C89.9594 189.075 89.6305 189.188 89.29 189.203Z" fill="#263238"/>
<path opacity="0.5" d="M89.29 189.203H62.0399C61.6985 189.188 61.3686 189.075 61.0893 188.878C60.8101 188.68 60.5931 188.407 60.4642 188.091L58.7402 184.383H92.5897L90.8565 188.091C90.7301 188.407 90.5151 188.681 90.2373 188.878C89.9594 189.075 89.6305 189.188 89.29 189.203Z" fill="white"/>
<path d="M92.1373 182.233H59.1961C58.2184 182.233 57.4258 183.026 57.4258 184.003V184.402C57.4258 185.38 58.2184 186.172 59.1961 186.172H92.1373C93.115 186.172 93.9076 185.38 93.9076 184.402V184.003C93.9076 183.026 93.115 182.233 92.1373 182.233Z" fill="#263238"/>
<path opacity="0.2" d="M92.1373 182.233H59.1961C58.2184 182.233 57.4258 183.026 57.4258 184.003V184.402C57.4258 185.38 58.2184 186.172 59.1961 186.172H92.1373C93.115 186.172 93.9076 185.38 93.9076 184.402V184.003C93.9076 183.026 93.115 182.233 92.1373 182.233Z" fill="white"/>
<path d="M84.3208 230.894H57.0614C56.7212 230.878 56.3929 230.765 56.1152 230.567C55.8375 230.37 55.6223 230.098 55.495 229.782L53.7617 226.074H87.6205L85.8872 229.782C85.7609 230.098 85.5458 230.372 85.268 230.569C84.9901 230.766 84.6613 230.879 84.3208 230.894Z" fill="#263238"/>
<path opacity="0.5" d="M84.3208 230.894H57.0614C56.7212 230.878 56.3929 230.765 56.1152 230.567C55.8375 230.37 55.6223 230.098 55.495 229.782L53.7617 226.074H87.6205L85.8872 229.782C85.7609 230.098 85.5458 230.372 85.268 230.569C84.9901 230.766 84.6613 230.879 84.3208 230.894Z" fill="white"/>
<path d="M87.1666 223.924H54.2254C53.2477 223.924 52.4551 224.717 52.4551 225.694V226.093C52.4551 227.071 53.2477 227.863 54.2254 227.863H87.1666C88.1443 227.863 88.9369 227.071 88.9369 226.093V225.694C88.9369 224.717 88.1443 223.924 87.1666 223.924Z" fill="#263238"/>
<path opacity="0.2" d="M87.1666 223.924H54.2254C53.2477 223.924 52.4551 224.717 52.4551 225.694V226.093C52.4551 227.071 53.2477 227.863 54.2254 227.863H87.1666C88.1443 227.863 88.9369 227.071 88.9369 226.093V225.694C88.9369 224.717 88.1443 223.924 87.1666 223.924Z" fill="white"/>
<path d="M86.2748 262H77.7012L105.582 41.6817H114.155L86.2748 262Z" fill="#263238"/>
<path opacity="0.7" d="M86.2748 262H77.7012L105.582 41.6817H114.155L86.2748 262Z" fill="white"/>
<path d="M125.26 42.8032H70.9266C70.5871 42.7849 70.2597 42.6707 69.9824 42.4738C69.7052 42.2769 69.4894 42.0055 69.3602 41.6909L67.627 37.9834H128.56L126.836 41.6909C126.7 42.0031 126.482 42.2719 126.204 42.4681C125.926 42.6643 125.599 42.7802 125.26 42.8032Z" fill="#263238"/>
<path opacity="0.5" d="M125.26 42.8032H70.9266C70.5871 42.7849 70.2597 42.6707 69.9824 42.4738C69.7052 42.2769 69.4894 42.0055 69.3602 41.6909L67.627 37.9834H128.56L126.836 41.6909C126.7 42.0031 126.482 42.2719 126.204 42.4681C125.926 42.6643 125.599 42.7802 125.26 42.8032Z" fill="white"/>
<path d="M128.106 35.8331H68.0906C67.1129 35.8331 66.3203 36.6257 66.3203 37.6034V38.002C66.3203 38.9797 67.1129 39.7723 68.0906 39.7723H128.106C129.084 39.7723 129.876 38.9797 129.876 38.002V37.6034C129.876 36.6257 129.084 35.8331 128.106 35.8331Z" fill="#263238"/>
<path opacity="0.2" d="M128.106 35.8331H68.0906C67.1129 35.8331 66.3203 36.6257 66.3203 37.6034V38.002C66.3203 38.9797 67.1129 39.7723 68.0906 39.7723H128.106C129.084 39.7723 129.876 38.9797 129.876 38.002V37.6034C129.876 36.6257 129.084 35.8331 128.106 35.8331Z" fill="white"/>
<path d="M129.062 41.8856L121.934 36.8619L118.598 43.7115C118.598 43.7115 123.084 47.9195 127.662 45.7321L129.062 41.8856Z" fill="#EBB376"/>
<path d="M115.78 36.0926L114.52 41.7929L118.598 43.7115L121.935 36.8619L115.78 36.0926Z" fill="#EBB376"/>
<path d="M177.788 26.036C176.388 28.1956 174.961 30.2625 173.469 32.2831C172.347 33.7754 171.198 35.2491 169.993 36.695C169.631 37.1399 169.261 37.5756 168.89 38.0112C168.158 38.8547 167.416 39.6981 166.638 40.5323C165.711 41.5704 164.663 42.59 163.579 43.591L162.958 44.1471C162.148 44.8958 161.297 45.5983 160.409 46.2511C159.087 47.2418 157.637 48.0493 156.099 48.6518C155.644 48.8289 155.176 48.9714 154.699 49.0781C154.245 49.1893 153.856 49.245 153.439 49.3191C152.704 49.4192 151.965 49.4811 151.224 49.5045C149.824 49.5508 148.517 49.5045 147.229 49.4396C144.671 49.3006 142.205 48.9576 139.767 48.5961C136.653 48.1049 133.594 47.4932 130.564 46.7424C129.442 46.4829 128.33 46.1955 127.218 45.8989L125.447 45.4077C124.883 45.2424 124.392 44.8898 124.055 44.4079C123.718 43.926 123.555 43.3436 123.593 42.7568C123.606 42.5689 123.637 42.3826 123.686 42.2007C123.819 41.7191 124.09 41.287 124.465 40.9575C124.841 40.6281 125.305 40.4158 125.799 40.3469C125.956 40.3285 126.115 40.3285 126.272 40.3469H126.318H126.967C128.367 40.3933 129.748 40.4489 131.166 40.486C134.29 40.5972 137.404 40.6806 140.435 40.727C142.761 40.727 145.069 40.727 147.303 40.6528C148.415 40.6065 149.5 40.5138 150.482 40.3747C151.218 40.3229 151.939 40.1442 152.614 39.8464C153.258 39.4764 153.861 39.0382 154.412 38.5395C154.968 38.0576 155.552 37.52 156.127 36.936C156.294 36.7785 156.451 36.6116 156.609 36.4448C156.933 36.1111 157.248 35.7589 157.536 35.4067C158.333 34.5354 159.102 33.6271 159.871 32.691C160.214 32.2646 160.566 31.8382 160.909 31.4026C162.578 29.2986 164.237 27.0834 165.84 24.8496C166.934 23.3388 168.009 21.8094 169.047 20.3079L169.103 20.2152C169.62 19.4599 170.331 18.8579 171.161 18.4727L175.044 18.6395L176.055 18.6951C176.161 18.7533 176.263 18.8183 176.36 18.8898C177.482 19.6609 178.258 20.8388 178.525 22.1732C178.791 23.5076 178.527 24.8933 177.788 26.036Z" fill="#FFB573"/>
<path d="M175.367 32.1904C173.616 34.7189 171.653 37.0941 169.5 39.2903C168.925 39.8835 168.313 40.4952 167.646 41.144L166.608 40.5601L157.515 35.4438L156.672 34.9711C156.672 34.9711 157.265 34.0442 158.146 32.7558C159.249 31.0874 160.815 28.7054 162.27 26.4623C163.401 24.7013 164.458 23.0236 165.153 21.828C165.925 20.5034 166.945 19.3392 168.156 18.3985L171.14 18.5005L175.024 18.6673L176.034 18.7229L178.62 18.8527C179.816 21.6148 179.556 25.9989 175.367 32.1904Z" fill="url(#paint4_linear_2413_2015)"/>
<path opacity="0.6" d="M175.367 32.1904C173.616 34.7189 171.653 37.0941 169.5 39.2903C168.925 39.8835 168.313 40.4952 167.646 41.144L166.608 40.5601L157.515 35.4438L156.672 34.9711C156.672 34.9711 157.265 34.0442 158.146 32.7558C159.249 31.0874 160.815 28.7054 162.27 26.4623C163.401 24.7013 164.458 23.0236 165.153 21.828C165.925 20.5034 166.945 19.3392 168.156 18.3985L171.14 18.5005L175.024 18.6673L176.034 18.7229L178.62 18.8527C179.816 21.6148 179.556 25.9989 175.367 32.1904Z" fill="white"/>
<defs>
<linearGradient id="paint0_linear_2413_2015" x1="260" y1="280" x2="-19.2329" y2="20.7123" gradientUnits="userSpaceOnUse">
<stop offset="0.104757" stop-color="#149EED"/>
<stop offset="0.895243" stop-color="#B440FC"/>
</linearGradient>
<linearGradient id="paint1_linear_2413_2015" x1="81.0488" y1="18.0093" x2="84.2505" y2="47.1882" gradientUnits="userSpaceOnUse">
<stop offset="0.104757" stop-color="#149EED"/>
<stop offset="0.895243" stop-color="#B440FC"/>
</linearGradient>
<linearGradient id="paint2_linear_2413_2015" x1="123.9" y1="18" x2="136.334" y2="36.8416" gradientUnits="userSpaceOnUse">
<stop offset="0.104757" stop-color="#149EED"/>
<stop offset="0.895243" stop-color="#B440FC"/>
</linearGradient>
<linearGradient id="paint3_linear_2413_2015" x1="130.242" y1="18.1761" x2="178.174" y2="62.8693" gradientUnits="userSpaceOnUse">
<stop offset="0.104757" stop-color="#149EED"/>
<stop offset="0.895243" stop-color="#B440FC"/>
</linearGradient>
<linearGradient id="paint4_linear_2413_2015" x1="156.672" y1="18.3985" x2="179.417" y2="40.966" gradientUnits="userSpaceOnUse">
<stop offset="0.104757" stop-color="#149EED"/>
<stop offset="0.895243" stop-color="#B440FC"/>
</linearGradient>
</defs>
</svg>
