<svg width="32" height="32" viewBox="0 0 32 32" fill="none" xmlns="http://www.w3.org/2000/svg">
<rect width="32" height="32" rx="16" fill="url(#paint0_linear_747_189)"/>
<path d="M13.2498 16.0735L13.4174 16.7188H13.4175L13.2498 16.0735ZM14.6068 15.7942L14.709 16.453L14.709 16.453L14.6068 15.7942ZM15.5552 15.6776L15.4941 15.0138H15.4941L15.5552 15.6776ZM16.6005 15.6144L16.5804 14.948H16.5804L16.6005 15.6144ZM18.5147 15.653L18.4698 16.3182L18.5147 15.653ZM20.2219 25.7778L20.6392 25.2579L20.6388 25.2576L20.2219 25.7778ZM7.16539 21.9796L6.61364 22.3538L7.16539 21.9796ZM6.27994 11.6L5.67277 11.3247L6.27994 11.6ZM9.86105 7.27567L9.47695 6.73077L9.86105 7.27567ZM22.1366 7.27443L22.5205 6.72946H22.5205L22.1366 7.27443ZM20.2386 25.7912L20.5038 26.4028L20.2386 25.7912ZM12.6589 16.9453C12.8989 16.8637 13.1515 16.7878 13.4174 16.7188L13.0822 15.4283C12.7853 15.5054 12.5012 15.5906 12.2294 15.6831L12.6589 16.9453ZM13.4175 16.7188C13.7127 16.642 14.0207 16.5737 14.3418 16.515L14.102 15.2034C13.7492 15.2679 13.4094 15.3432 13.0822 15.4283L13.4175 16.7188ZM14.3418 16.515C14.4623 16.493 14.5847 16.4723 14.709 16.453L14.5047 15.1354C14.3686 15.1565 14.2344 15.1792 14.102 15.2034L14.3418 16.515ZM14.709 16.453C15.0009 16.4078 15.3032 16.3703 15.6164 16.3415L15.4941 15.0138C15.154 15.0451 14.8243 15.0859 14.5047 15.1354L14.709 16.453ZM15.6164 16.3415C15.7563 16.3286 15.8985 16.3174 16.0428 16.3081L15.9565 14.9775C15.8003 14.9877 15.6462 14.9998 15.4941 15.0138L15.6164 16.3415ZM16.0428 16.3081C16.2316 16.2958 16.4242 16.2866 16.6206 16.2807L16.5804 14.948C16.3688 14.9544 16.1609 14.9643 15.9565 14.9775L16.0428 16.3081ZM16.6206 16.2807C16.9858 16.2697 17.3641 16.27 17.7561 16.2825L17.7988 14.9499C17.3799 14.9364 16.9739 14.9361 16.5804 14.948L16.6206 16.2807ZM17.7561 16.2825C17.9892 16.29 18.227 16.3018 18.4698 16.3182L18.5596 14.9879C18.3014 14.9704 18.0478 14.9578 17.7988 14.9499L17.7561 16.2825ZM18.4698 16.3182C18.7641 16.3381 19.1115 16.3646 19.4974 16.3982L19.6131 15.0699C19.219 15.0356 18.8629 15.0084 18.5596 14.9879L18.4698 16.3182ZM16.6663 15.6428V5.33334H15.333V15.6428H16.6663ZM7.81448 22.1317C8.09002 20.9558 8.92894 18.2144 12.6589 16.9453L12.2294 15.6831C7.86563 17.1678 6.83786 20.4552 6.5163 21.8275L7.81448 22.1317ZM15.9997 26C12.5549 26 9.51662 24.2588 7.71714 21.6054L6.61364 22.3538C8.65064 25.3574 12.0943 27.3333 15.9997 27.3333V26ZM7.71714 21.6054C6.63301 20.0069 5.99967 18.0784 5.99967 16H4.66634C4.66634 18.3535 5.38447 20.5414 6.61364 22.3538L7.71714 21.6054ZM12.8491 15.7847L6.68494 11.0704L5.87495 12.1295L12.0391 16.8438L12.8491 15.7847ZM5.99967 16C5.99967 14.528 6.3173 13.132 6.88711 11.8752L5.67277 11.3247C5.02609 12.7509 4.66634 14.3343 4.66634 16H5.99967ZM6.88711 11.8752C7.62732 10.2427 8.79395 8.84353 10.2452 7.82056L9.47695 6.73077C7.83366 7.88914 6.51202 9.47368 5.67277 11.3247L6.88711 11.8752ZM10.2452 7.82056C11.8723 6.67354 13.8563 6 15.9997 6V4.66667C13.5724 4.66667 11.3216 5.43046 9.47695 6.73077L10.2452 7.82056ZM9.26669 7.57763L13.6275 16.1612L14.8163 15.5573L10.4554 6.9737L9.26669 7.57763ZM21.5457 6.96567L17.1866 15.3074L18.3683 15.9249L22.7274 7.58319L21.5457 6.96567ZM15.9997 6C18.1423 6 20.1257 6.67309 21.7526 7.8194L22.5205 6.72946C20.6763 5.42995 18.4261 4.66667 15.9997 4.66667V6ZM21.7526 7.8194C23.2034 8.84166 24.3699 10.2399 25.1105 11.8714L26.3246 11.3202C25.4849 9.47047 24.1634 7.88703 22.5205 6.72946L21.7526 7.8194ZM25.1105 11.8714C25.6814 13.1291 25.9997 14.5265 25.9997 16H27.333C27.333 14.3326 26.9725 12.7476 26.3246 11.3202L25.1105 11.8714ZM19.9269 16.2875L26.0892 12.1493L25.3459 11.0424L19.1836 15.1806L19.9269 16.2875ZM19.4974 16.3982C21.5127 16.5737 24.492 16.9343 26.4397 17.5169L26.8218 16.2395C24.7314 15.6142 21.6319 15.2457 19.6131 15.0699L19.4974 16.3982ZM25.9997 16C25.9997 16.2776 25.9884 16.5524 25.9662 16.824L27.2952 16.9323C27.3202 16.6247 27.333 16.3138 27.333 16H25.9997ZM25.9662 16.824C25.966 16.8274 25.9657 16.8307 25.9654 16.8341L27.2942 16.9437C27.2946 16.9399 27.2949 16.9361 27.2952 16.9323L25.9662 16.824ZM20.6388 25.2576C19.2969 24.1821 18.592 23.1716 18.3385 22.3074C18.0943 21.4749 18.2509 20.7249 18.7618 20.059C19.291 19.369 20.2279 18.74 21.5773 18.2828C22.9194 17.828 24.6261 17.5587 26.6309 17.5556L26.6288 16.2223C24.5129 16.2256 22.6574 16.509 21.1494 17.02C19.6486 17.5285 18.4473 18.2784 17.7039 19.2474C16.9421 20.2404 16.6915 21.4293 17.0591 22.6827C17.4175 23.9045 18.3435 25.1268 19.805 26.298L20.6388 25.2576ZM25.9654 16.8341C25.6562 20.5823 23.2782 23.7468 19.9734 25.1795L20.5038 26.4028C24.2467 24.7802 26.9434 21.196 27.2942 16.9437L25.9654 16.8341ZM19.9734 25.1795C18.7563 25.7072 17.4131 26 15.9997 26V27.3333C17.5989 27.3333 19.1224 27.0017 20.5038 26.4028L19.9734 25.1795ZM19.8046 26.2977L19.8213 26.3111L20.6559 25.2713L20.6392 25.2579L19.8046 26.2977Z" fill="#F8FAFC"/>
<defs>
<linearGradient id="paint0_linear_747_189" x1="0" y1="0" x2="32" y2="32" gradientUnits="userSpaceOnUse">
<stop offset="0.104757" stop-color="#149EED"/>
<stop offset="0.895243" stop-color="#B440FC"/>
</linearGradient>
</defs>
</svg>
