<svg width="276" height="32" viewBox="0 0 276 32" fill="none" xmlns="http://www.w3.org/2000/svg">
<rect width="32" height="32" rx="16" fill="url(#paint0_linear_1656_1337)"/>
<path d="M13.2498 16.0734L13.4174 16.7187H13.4175L13.2498 16.0734ZM14.6068 15.7942L14.709 16.4529L14.709 16.4529L14.6068 15.7942ZM15.5552 15.6775L15.4941 15.0137H15.4941L15.5552 15.6775ZM16.6005 15.6143L16.5804 14.9479H16.5804L16.6005 15.6143ZM18.5147 15.653L18.4698 16.3181L18.5147 15.653ZM20.2219 25.7777L20.6392 25.2578L20.6388 25.2575L20.2219 25.7777ZM7.16539 21.9795L6.61364 22.3537L7.16539 21.9795ZM6.27994 11.5999L5.67277 11.3246L6.27994 11.5999ZM9.86105 7.27558L9.47695 6.73069L9.86105 7.27558ZM22.1366 7.27435L22.5205 6.72938H22.5205L22.1366 7.27435ZM20.2386 25.7911L20.5038 26.4028L20.2386 25.7911ZM12.6589 16.9453C12.8989 16.8636 13.1515 16.7878 13.4174 16.7187L13.0822 15.4282C12.7853 15.5053 12.5012 15.5905 12.2294 15.683L12.6589 16.9453ZM13.4175 16.7187C13.7127 16.642 14.0207 16.5736 14.3418 16.5149L14.102 15.2033C13.7492 15.2678 13.4094 15.3432 13.0822 15.4282L13.4175 16.7187ZM14.3418 16.5149C14.4623 16.4929 14.5847 16.4722 14.709 16.4529L14.5047 15.1354C14.3686 15.1565 14.2344 15.1791 14.102 15.2033L14.3418 16.5149ZM14.709 16.4529C15.0009 16.4077 15.3032 16.3702 15.6164 16.3414L15.4941 15.0137C15.154 15.045 14.8243 15.0858 14.5047 15.1354L14.709 16.4529ZM15.6164 16.3414C15.7563 16.3285 15.8985 16.3173 16.0428 16.308L15.9565 14.9774C15.8003 14.9876 15.6462 14.9997 15.4941 15.0137L15.6164 16.3414ZM16.0428 16.308C16.2316 16.2957 16.4242 16.2866 16.6206 16.2806L16.5804 14.9479C16.3688 14.9543 16.1609 14.9642 15.9565 14.9774L16.0428 16.308ZM16.6206 16.2806C16.9858 16.2696 17.3641 16.2699 17.7561 16.2824L17.7988 14.9498C17.3799 14.9364 16.9739 14.9361 16.5804 14.9479L16.6206 16.2806ZM17.7561 16.2824C17.9892 16.2899 18.227 16.3017 18.4698 16.3181L18.5596 14.9878C18.3014 14.9704 18.0478 14.9577 17.7988 14.9498L17.7561 16.2824ZM18.4698 16.3181C18.7641 16.338 19.1115 16.3645 19.4974 16.3981L19.6131 15.0698C19.219 15.0355 18.8629 15.0083 18.5596 14.9878L18.4698 16.3181ZM16.6663 15.6427V5.33325H15.333V15.6427H16.6663ZM7.81448 22.1316C8.09002 20.9557 8.92894 18.2143 12.6589 16.9453L12.2294 15.683C7.86563 17.1677 6.83786 20.4551 6.5163 21.8274L7.81448 22.1316ZM15.9997 25.9999C12.5549 25.9999 9.51662 24.2587 7.71714 21.6053L6.61364 22.3537C8.65064 25.3573 12.0943 27.3333 15.9997 27.3333V25.9999ZM7.71714 21.6053C6.63301 20.0068 5.99967 18.0783 5.99967 15.9999H4.66634C4.66634 18.3535 5.38447 20.5413 6.61364 22.3537L7.71714 21.6053ZM12.8491 15.7846L6.68494 11.0703L5.87495 12.1294L12.0391 16.8437L12.8491 15.7846ZM5.99967 15.9999C5.99967 14.5279 6.3173 13.1319 6.88711 11.8752L5.67277 11.3246C5.02609 12.7508 4.66634 14.3343 4.66634 15.9999H5.99967ZM6.88711 11.8752C7.62732 10.2426 8.79395 8.84345 10.2452 7.82048L9.47695 6.73069C7.83366 7.88906 6.51202 9.4736 5.67277 11.3246L6.88711 11.8752ZM10.2452 7.82048C11.8723 6.67346 13.8563 5.99992 15.9997 5.99992V4.66659C13.5724 4.66659 11.3216 5.43038 9.47695 6.73069L10.2452 7.82048ZM9.26669 7.57754L13.6275 16.1611L14.8163 15.5572L10.4554 6.97362L9.26669 7.57754ZM21.5457 6.96559L17.1866 15.3073L18.3683 15.9249L22.7274 7.58311L21.5457 6.96559ZM15.9997 5.99992C18.1423 5.99992 20.1257 6.67301 21.7526 7.81932L22.5205 6.72938C20.6763 5.42987 18.4261 4.66659 15.9997 4.66659V5.99992ZM21.7526 7.81932C23.2034 8.84158 24.3699 10.2398 25.1105 11.8713L26.3246 11.3202C25.4849 9.47038 24.1634 7.88695 22.5205 6.72938L21.7526 7.81932ZM25.1105 11.8713C25.6814 13.129 25.9997 14.5264 25.9997 15.9999H27.333C27.333 14.3325 26.9725 12.7476 26.3246 11.3202L25.1105 11.8713ZM19.9269 16.2874L26.0892 12.1492L25.3459 11.0423L19.1836 15.1805L19.9269 16.2874ZM19.4974 16.3981C21.5127 16.5736 24.492 16.9342 26.4397 17.5168L26.8218 16.2394C24.7314 15.6141 21.6319 15.2456 19.6131 15.0698L19.4974 16.3981ZM25.9997 15.9999C25.9997 16.2775 25.9884 16.5523 25.9662 16.8239L27.2952 16.9322C27.3202 16.6246 27.333 16.3137 27.333 15.9999H25.9997ZM25.9662 16.8239C25.966 16.8273 25.9657 16.8306 25.9654 16.834L27.2942 16.9437C27.2946 16.9399 27.2949 16.9361 27.2952 16.9322L25.9662 16.8239ZM20.6388 25.2575C19.2969 24.182 18.592 23.1715 18.3385 22.3073C18.0943 21.4748 18.2509 20.7248 18.7618 20.0589C19.291 19.369 20.2279 18.7399 21.5773 18.2827C22.9194 17.8279 24.6261 17.5586 26.6309 17.5555L26.6288 16.2222C24.5129 16.2255 22.6574 16.5089 21.1494 17.0199C19.6486 17.5284 18.4473 18.2783 17.7039 19.2473C16.9421 20.2403 16.6915 21.4292 17.0591 22.6826C17.4175 23.9044 18.3435 25.1267 19.805 26.2979L20.6388 25.2575ZM25.9654 16.834C25.6562 20.5823 23.2782 23.7467 19.9734 25.1794L20.5038 26.4028C24.2467 24.7801 26.9434 21.1959 27.2942 16.9437L25.9654 16.834ZM19.9734 25.1794C18.7563 25.7071 17.4131 25.9999 15.9997 25.9999V27.3333C17.5989 27.3333 19.1224 27.0016 20.5038 26.4028L19.9734 25.1794ZM19.8046 26.2976L19.8213 26.311L20.6559 25.2712L20.6392 25.2578L19.8046 26.2976Z" fill="#F8FAFC"/>
<path d="M49.0027 24.756C50.1404 24.756 51.1573 24.564 52.0533 24.18C52.9636 23.796 53.7316 23.2911 54.3573 22.6653C54.9831 22.0253 55.4311 21.3284 55.7013 20.5747L53.0987 19.3587C52.7858 20.1551 52.2738 20.8164 51.5627 21.3427C50.8658 21.8547 50.0124 22.1107 49.0027 22.1107C48.0071 22.1107 47.1324 21.876 46.3787 21.4067C45.6249 20.9373 45.0347 20.2902 44.608 19.4653C44.1813 18.6262 43.968 17.652 43.968 16.5427C43.968 15.4333 44.1813 14.4662 44.608 13.6413C45.0347 12.8022 45.6249 12.1551 46.3787 11.7C47.1324 11.2307 48.0071 10.996 49.0027 10.996C50.0124 10.996 50.8658 11.2591 51.5627 11.7853C52.2738 12.2973 52.7858 12.9516 53.0987 13.748L55.7013 12.532C55.4311 11.7782 54.9831 11.0884 54.3573 10.4627C53.7316 9.82267 52.9636 9.31067 52.0533 8.92667C51.1573 8.54267 50.1404 8.35067 49.0027 8.35067C47.8649 8.35067 46.8124 8.55689 45.8453 8.96933C44.8782 9.36755 44.0391 9.93644 43.328 10.676C42.6169 11.4013 42.0622 12.2689 41.664 13.2787C41.2658 14.2742 41.0667 15.3622 41.0667 16.5427C41.0667 17.7231 41.2658 18.8182 41.664 19.828C42.0622 20.8236 42.6169 21.6911 43.328 22.4307C44.0391 23.1702 44.8782 23.7462 45.8453 24.1587C46.8124 24.5569 47.8649 24.756 49.0027 24.756ZM61.1338 24.756C62.6414 24.756 63.8503 24.2582 64.7605 23.2627V24.5H67.4058V16.7773C67.4058 15.9667 67.1996 15.2484 66.7872 14.6227C66.3747 13.9969 65.8058 13.5133 65.0805 13.172C64.3694 12.8164 63.5374 12.6387 62.5845 12.6387C61.4183 12.6387 60.3801 12.916 59.4698 13.4707C58.5596 14.0253 57.9338 14.7578 57.5925 15.668L59.8752 16.7773C60.0885 16.2511 60.4227 15.8316 60.8778 15.5187C61.3329 15.1916 61.8663 15.028 62.4778 15.028C63.1178 15.028 63.6298 15.1987 64.0138 15.54C64.4121 15.8671 64.6112 16.2796 64.6112 16.7773V17.1613L61.1552 17.716C59.7898 17.9436 58.7801 18.3773 58.1258 19.0173C57.4716 19.6573 57.1445 20.4609 57.1445 21.428C57.1445 22.452 57.5072 23.2627 58.2325 23.86C58.9578 24.4573 59.9249 24.756 61.1338 24.756ZM60.0458 21.3213C60.0458 20.5107 60.5934 19.9987 61.6885 19.7853L64.6112 19.2947V19.764C64.6112 20.5604 64.3338 21.236 63.7792 21.7907C63.2387 22.3453 62.5276 22.6227 61.6458 22.6227C61.1765 22.6227 60.7925 22.5089 60.4938 22.2813C60.1952 22.0396 60.0458 21.7196 60.0458 21.3213ZM69.9888 24.5H72.7835V17.6947C72.7835 16.9409 72.9897 16.3364 73.4022 15.8813C73.8146 15.4262 74.3551 15.1987 75.0235 15.1987C75.7062 15.1987 76.2466 15.4262 76.6448 15.8813C77.0573 16.3222 77.2635 16.9267 77.2635 17.6947V24.5H80.0582V17.6947C80.0582 16.9409 80.2644 16.3364 80.6768 15.8813C81.0893 15.4262 81.6297 15.1987 82.2982 15.1987C82.9808 15.1987 83.5213 15.4262 83.9195 15.8813C84.3319 16.3222 84.5382 16.9267 84.5382 17.6947V24.5H87.3328V17.0333C87.3328 16.1658 87.1408 15.4049 86.7568 14.7507C86.3871 14.0822 85.8822 13.5631 85.2422 13.1933C84.6022 12.8236 83.8697 12.6387 83.0448 12.6387C82.2768 12.6387 81.5799 12.7951 80.9542 13.108C80.3426 13.4209 79.8377 13.8902 79.4395 14.516C79.0982 13.9471 78.6075 13.492 77.9675 13.1507C77.3417 12.8093 76.6377 12.6387 75.8555 12.6387C75.1302 12.6387 74.4831 12.7809 73.9142 13.0653C73.3453 13.3498 72.9115 13.7764 72.6128 14.3453V12.8947H69.9888V24.5ZM89.6972 11.5933H92.4918V8.60666H89.6972V11.5933ZM89.6972 24.5H92.4918V12.8947H89.6972V24.5ZM95.0722 24.5H97.8668V17.6947C97.8668 16.9409 98.0802 16.3364 98.5068 15.8813C98.9477 15.4262 99.5166 15.1987 100.214 15.1987C100.91 15.1987 101.472 15.4262 101.899 15.8813C102.34 16.3222 102.56 16.9267 102.56 17.6947V24.5H105.355V17.0333C105.355 16.1658 105.17 15.4049 104.8 14.7507C104.43 14.0822 103.911 13.5631 103.243 13.1933C102.589 12.8236 101.835 12.6387 100.982 12.6387C100.256 12.6387 99.6019 12.7809 99.0188 13.0653C98.4499 13.3498 98.0091 13.7693 97.6962 14.324V12.8947H95.0722V24.5ZM113.393 24.756C114.516 24.756 115.54 24.5 116.465 23.988C117.389 23.4618 118.129 22.7436 118.683 21.8333C119.238 20.9089 119.515 19.8636 119.515 18.6973C119.515 17.5311 119.238 16.4929 118.683 15.5827C118.143 14.6724 117.41 13.9542 116.486 13.428C115.562 12.9018 114.53 12.6387 113.393 12.6387C112.241 12.6387 111.202 12.9018 110.278 13.428C109.354 13.9542 108.614 14.6724 108.059 15.5827C107.519 16.4929 107.249 17.5311 107.249 18.6973C107.249 19.8636 107.519 20.9018 108.059 21.812C108.614 22.7222 109.354 23.4404 110.278 23.9667C111.217 24.4929 112.255 24.756 113.393 24.756ZM113.393 22.196C112.767 22.196 112.205 22.0467 111.707 21.748C111.224 21.4493 110.84 21.0369 110.555 20.5107C110.285 19.9702 110.15 19.3658 110.15 18.6973C110.15 18.0289 110.285 17.4316 110.555 16.9053C110.84 16.3791 111.224 15.9667 111.707 15.668C112.205 15.3551 112.767 15.1987 113.393 15.1987C114.018 15.1987 114.566 15.3551 115.035 15.668C115.519 15.9667 115.896 16.3791 116.166 16.9053C116.45 17.4316 116.593 18.0289 116.593 18.6973C116.593 19.3658 116.45 19.9702 116.166 20.5107C115.896 21.0369 115.519 21.4493 115.035 21.748C114.566 22.0467 114.018 22.196 113.393 22.196Z" fill="#0F172A"/>
<path d="M126.002 24.5H136.242V22.9H127.709V17.332H135.816V15.732H127.709V10.2067H136.242V8.60666H126.002V24.5ZM137.422 24.5H139.406L142.393 20.148L145.38 24.5H147.342L143.353 18.7827L147.342 13.0653H145.38L142.393 17.4173L139.406 13.0653H137.444L141.433 18.7827L137.422 24.5ZM149.226 28.7667H150.826V22.644C151.253 23.3124 151.836 23.8316 152.575 24.2013C153.315 24.5711 154.126 24.756 155.007 24.756C156.088 24.756 157.048 24.5 157.887 23.988C158.741 23.4618 159.409 22.7507 159.893 21.8547C160.39 20.9444 160.639 19.9204 160.639 18.7827C160.639 17.6307 160.39 16.6067 159.893 15.7107C159.409 14.8147 158.741 14.1107 157.887 13.5987C157.048 13.0724 156.088 12.8093 155.007 12.8093C154.111 12.8093 153.308 12.9871 152.597 13.3427C151.886 13.6982 151.295 14.1818 150.826 14.7933V13.0653H149.226V28.7667ZM154.922 23.156C154.154 23.156 153.457 22.964 152.831 22.58C152.22 22.196 151.729 21.6769 151.359 21.0227C151.004 20.3542 150.826 19.6076 150.826 18.7827C150.826 17.9578 151.004 17.2182 151.359 16.564C151.729 15.8956 152.22 15.3693 152.831 14.9853C153.457 14.6013 154.154 14.4093 154.922 14.4093C155.69 14.4093 156.373 14.6013 156.97 14.9853C157.582 15.3693 158.058 15.8884 158.399 16.5427C158.755 17.1969 158.933 17.9436 158.933 18.7827C158.933 19.6076 158.755 20.3542 158.399 21.0227C158.058 21.6769 157.582 22.196 156.97 22.58C156.373 22.964 155.69 23.156 154.922 23.156ZM163.455 24.5H165.055V8.35067H163.455V24.5ZM173.685 24.756C174.752 24.756 175.719 24.5 176.586 23.988C177.468 23.476 178.172 22.772 178.698 21.876C179.224 20.9658 179.488 19.9276 179.488 18.7613C179.488 17.6093 179.232 16.5853 178.72 15.6893C178.222 14.7933 177.532 14.0893 176.65 13.5773C175.783 13.0653 174.794 12.8093 173.685 12.8093C172.576 12.8093 171.58 13.0724 170.698 13.5987C169.831 14.1107 169.141 14.8147 168.629 15.7107C168.117 16.6067 167.861 17.6236 167.861 18.7613C167.861 19.9133 168.117 20.9444 168.629 21.8547C169.155 22.7507 169.859 23.4618 170.741 23.988C171.623 24.5 172.604 24.756 173.685 24.756ZM173.685 23.156C172.917 23.156 172.22 22.964 171.594 22.58C170.983 22.196 170.492 21.6698 170.122 21.0013C169.752 20.3329 169.568 19.5862 169.568 18.7613C169.568 17.9364 169.752 17.1969 170.122 16.5427C170.492 15.8884 170.983 15.3693 171.594 14.9853C172.22 14.6013 172.917 14.4093 173.685 14.4093C174.453 14.4093 175.143 14.6013 175.754 14.9853C176.38 15.3693 176.871 15.8884 177.226 16.5427C177.596 17.1969 177.781 17.9364 177.781 18.7613C177.781 19.5862 177.596 20.3329 177.226 21.0013C176.871 21.6698 176.38 22.196 175.754 22.58C175.143 22.964 174.453 23.156 173.685 23.156ZM182.309 24.5H183.909V17.46C183.909 16.5213 184.158 15.796 184.656 15.284C185.154 14.772 185.815 14.516 186.64 14.516H187.643V12.916H186.917C186.22 12.916 185.616 13.0369 185.104 13.2787C184.606 13.5204 184.208 13.8618 183.909 14.3027V13.0653H182.309V24.5ZM194.723 24.756C195.505 24.756 196.216 24.628 196.856 24.372C197.511 24.1018 198.072 23.7533 198.542 23.3267C199.011 22.8858 199.359 22.4093 199.587 21.8973L198.222 21.172C197.866 21.7693 197.404 22.2671 196.835 22.6653C196.266 23.0636 195.562 23.2627 194.723 23.2627C194.04 23.2627 193.4 23.0991 192.803 22.772C192.206 22.4449 191.715 21.9898 191.331 21.4067C190.961 20.8093 190.762 20.0982 190.734 19.2733H199.736C199.765 19.0884 199.786 18.9107 199.8 18.74C199.815 18.5551 199.822 18.3916 199.822 18.2493C199.822 17.5667 199.701 16.9053 199.459 16.2653C199.217 15.6111 198.869 15.028 198.414 14.516C197.959 13.9898 197.404 13.5773 196.75 13.2787C196.11 12.9658 195.377 12.8093 194.552 12.8093C193.514 12.8093 192.575 13.0653 191.736 13.5773C190.911 14.0893 190.257 14.7933 189.774 15.6893C189.29 16.5711 189.048 17.588 189.048 18.74C189.048 19.892 189.297 20.9231 189.795 21.8333C190.293 22.7436 190.968 23.4618 191.822 23.988C192.689 24.5 193.656 24.756 194.723 24.756ZM194.552 14.3027C195.192 14.3027 195.775 14.452 196.302 14.7507C196.842 15.0493 197.269 15.4618 197.582 15.988C197.909 16.5 198.079 17.0973 198.094 17.78H190.776C190.862 17.0689 191.082 16.4573 191.438 15.9453C191.807 15.4191 192.263 15.0138 192.803 14.7293C193.343 14.4449 193.927 14.3027 194.552 14.3027ZM202.643 24.5H204.243V17.46C204.243 16.5213 204.492 15.796 204.989 15.284C205.487 14.772 206.148 14.516 206.973 14.516H207.976V12.916H207.251C206.554 12.916 205.949 13.0369 205.437 13.2787C204.94 13.5204 204.541 13.8618 204.243 14.3027V13.0653H202.643V24.5Z" fill="#149EED"/>
<path d="M230.533 21H229.332L232.804 11.5455H233.986L237.457 21H236.257L233.432 13.0412H233.358L230.533 21ZM230.976 17.3068H235.814V18.3224H230.976V17.3068ZM239.872 11.5455V21H238.782V11.5455H239.872ZM241.867 23.6591V13.9091H242.92V15.0355H243.049C243.129 14.9124 243.24 14.7554 243.381 14.5646C243.526 14.3707 243.732 14.1984 244 14.0476C244.271 13.8937 244.637 13.8168 245.099 13.8168C245.696 13.8168 246.222 13.966 246.678 14.2646C247.133 14.5631 247.489 14.9863 247.744 15.5341C247.999 16.0819 248.127 16.7282 248.127 17.473C248.127 18.224 247.999 18.8749 247.744 19.4258C247.489 19.9736 247.135 20.3983 246.682 20.6999C246.23 20.9985 245.708 21.1477 245.117 21.1477C244.662 21.1477 244.297 21.0723 244.023 20.9215C243.749 20.7676 243.538 20.5937 243.391 20.3999C243.243 20.2029 243.129 20.0398 243.049 19.9105H242.957V23.6591H241.867ZM242.938 17.4545C242.938 17.9901 243.017 18.4625 243.174 18.8718C243.331 19.2781 243.56 19.5966 243.862 19.8274C244.163 20.0552 244.533 20.169 244.97 20.169C245.425 20.169 245.805 20.049 246.11 19.8089C246.418 19.5658 246.648 19.2396 246.802 18.8303C246.959 18.4179 247.038 17.9593 247.038 17.4545C247.038 16.956 246.961 16.5066 246.807 16.1065C246.656 15.7034 246.427 15.3848 246.119 15.1509C245.814 14.9139 245.431 14.7955 244.97 14.7955C244.526 14.7955 244.154 14.9078 243.852 15.1325C243.551 15.354 243.323 15.6649 243.169 16.065C243.015 16.462 242.938 16.9252 242.938 17.4545ZM250.879 16.7344V21H249.789V11.5455H250.879V15.017H250.971C251.137 14.6508 251.386 14.36 251.719 14.1445C252.054 13.926 252.501 13.8168 253.058 13.8168C253.541 13.8168 253.964 13.9137 254.327 14.1076C254.69 14.2984 254.972 14.5923 255.172 14.9893C255.375 15.3833 255.477 15.8849 255.477 16.4943V21H254.387V16.5682C254.387 16.005 254.241 15.5695 253.949 15.2617C253.659 14.9509 253.258 14.7955 252.744 14.7955C252.387 14.7955 252.067 14.8709 251.783 15.0217C251.503 15.1725 251.282 15.3925 251.119 15.6818C250.959 15.9711 250.879 16.322 250.879 16.7344ZM259.556 21.1662C259.107 21.1662 258.699 21.0816 258.333 20.9123C257.967 20.7399 257.676 20.4922 257.461 20.169C257.245 19.8428 257.137 19.4489 257.137 18.9872C257.137 18.581 257.217 18.2517 257.377 17.9993C257.538 17.7438 257.751 17.5438 258.019 17.3991C258.287 17.2545 258.582 17.1468 258.906 17.076C259.232 17.0021 259.56 16.9437 259.889 16.9006C260.32 16.8452 260.669 16.8036 260.937 16.7759C261.208 16.7451 261.405 16.6944 261.528 16.6236C261.654 16.5528 261.717 16.4297 261.717 16.2543V16.2173C261.717 15.7618 261.592 15.4079 261.343 15.1555C261.097 14.9032 260.723 14.777 260.221 14.777C259.701 14.777 259.293 14.8909 258.998 15.1186C258.702 15.3464 258.495 15.5895 258.375 15.848L257.341 15.4787C257.525 15.0478 257.771 14.7124 258.079 14.4723C258.39 14.2292 258.729 14.0599 259.095 13.9645C259.464 13.866 259.827 13.8168 260.184 13.8168C260.412 13.8168 260.674 13.8445 260.969 13.8999C261.268 13.9522 261.555 14.0614 261.832 14.2276C262.112 14.3938 262.345 14.6446 262.529 14.9801C262.714 15.3156 262.806 15.7649 262.806 16.3281V21H261.717V20.0398H261.662C261.588 20.1937 261.465 20.3583 261.292 20.5337C261.12 20.7092 260.891 20.8584 260.604 20.9815C260.318 21.1046 259.969 21.1662 259.556 21.1662ZM259.723 20.1875C260.154 20.1875 260.517 20.1029 260.812 19.9336C261.111 19.7643 261.335 19.5458 261.486 19.2781C261.64 19.0103 261.717 18.7287 261.717 18.4332V17.4361C261.671 17.4915 261.569 17.5423 261.412 17.5884C261.258 17.6315 261.08 17.67 260.877 17.7038C260.677 17.7346 260.481 17.7623 260.29 17.7869C260.103 17.8085 259.95 17.8269 259.833 17.8423C259.55 17.8793 259.286 17.9393 259.039 18.0224C258.796 18.1024 258.599 18.224 258.449 18.3871C258.301 18.5471 258.227 18.7656 258.227 19.0426C258.227 19.4212 258.367 19.7074 258.647 19.9013C258.93 20.0921 259.289 20.1875 259.723 20.1875Z" fill="#0F172A"/>
<rect x="217.5" y="4.5" width="58" height="23" rx="11.5" stroke="#64748B"/>
<defs>
<linearGradient id="paint0_linear_1656_1337" x1="0" y1="0" x2="32" y2="32" gradientUnits="userSpaceOnUse">
<stop offset="0.104757" stop-color="#149EED"/>
<stop offset="0.895243" stop-color="#B440FC"/>
</linearGradient>
</defs>
</svg>
