<svg width="139" height="40" viewBox="0 0 139 40" fill="none" xmlns="http://www.w3.org/2000/svg">
  <path d="M58.128 30.288C56.848 30.288 55.664 30.056 54.576 29.592C53.504 29.128 52.56 28.48 51.744 27.648C50.944 26.816 50.32 25.84 49.872 24.72C49.424 23.6 49.2 22.376 49.2 21.048C49.2 19.72 49.416 18.496 49.848 17.376C50.296 16.24 50.92 15.264 51.72 14.448C52.536 13.616 53.488 12.976 54.576 12.528C55.664 12.064 56.848 11.832 58.128 11.832C59.408 11.832 60.552 12.048 61.56 12.48C62.584 12.912 63.448 13.488 64.152 14.208C64.856 14.912 65.36 15.688 65.664 16.536L62.736 17.904C62.4 17.008 61.832 16.272 61.032 15.696C60.232 15.104 59.264 14.808 58.128 14.808C57.008 14.808 56.016 15.072 55.152 15.6C54.304 16.128 53.64 16.856 53.16 17.784C52.696 18.712 52.464 19.8 52.464 21.048C52.464 22.296 52.696 23.392 53.16 24.336C53.64 25.264 54.304 25.992 55.152 26.52C56.016 27.048 57.008 27.312 58.128 27.312C59.264 27.312 60.232 27.024 61.032 26.448C61.832 25.856 62.4 25.112 62.736 24.216L65.664 25.584C65.36 26.432 64.856 27.216 64.152 27.936C63.448 28.64 62.584 29.208 61.56 29.64C60.552 30.072 59.408 30.288 58.128 30.288ZM71.7756 30.288C70.8636 30.288 70.0716 30.136 69.3996 29.832C68.7276 29.528 68.2076 29.096 67.8396 28.536C67.4716 27.96 67.2876 27.296 67.2876 26.544C67.2876 25.824 67.4476 25.184 67.7676 24.624C68.0876 24.048 68.5836 23.568 69.2556 23.184C69.9276 22.8 70.7756 22.528 71.7996 22.368L76.0716 21.672V24.072L72.3996 24.696C71.7756 24.808 71.3116 25.008 71.0076 25.296C70.7036 25.584 70.5516 25.96 70.5516 26.424C70.5516 26.872 70.7196 27.232 71.0556 27.504C71.4076 27.76 71.8396 27.888 72.3516 27.888C73.0076 27.888 73.5836 27.752 74.0796 27.48C74.5916 27.192 74.9836 26.8 75.2556 26.304C75.5436 25.808 75.6876 25.264 75.6876 24.672V21.312C75.6876 20.752 75.4636 20.288 75.0156 19.92C74.5836 19.536 74.0076 19.344 73.2876 19.344C72.6156 19.344 72.0156 19.528 71.4876 19.896C70.9756 20.248 70.5996 20.72 70.3596 21.312L67.7916 20.064C68.0476 19.376 68.4476 18.784 68.9916 18.288C69.5516 17.776 70.2076 17.376 70.9596 17.088C71.7116 16.8 72.5276 16.656 73.4076 16.656C74.4796 16.656 75.4236 16.856 76.2396 17.256C77.0556 17.64 77.6876 18.184 78.1356 18.888C78.5996 19.576 78.8316 20.384 78.8316 21.312V30H75.8556V27.768L76.5276 27.72C76.1916 28.28 75.7916 28.752 75.3276 29.136C74.8636 29.504 74.3356 29.792 73.7436 30C73.1516 30.192 72.4956 30.288 71.7756 30.288ZM81.7374 30V16.944H84.6894V19.968L84.3534 19.464C84.5934 18.52 85.0734 17.816 85.7934 17.352C86.5134 16.888 87.3614 16.656 88.3374 16.656C89.4094 16.656 90.3534 16.936 91.1694 17.496C91.9854 18.056 92.5134 18.792 92.7534 19.704L91.8654 19.776C92.2654 18.736 92.8654 17.96 93.6654 17.448C94.4654 16.92 95.3854 16.656 96.4254 16.656C97.3534 16.656 98.1774 16.864 98.8974 17.28C99.6334 17.696 100.209 18.28 100.625 19.032C101.041 19.768 101.249 20.624 101.249 21.6V30H98.1054V22.344C98.1054 21.768 98.0014 21.272 97.7934 20.856C97.5854 20.44 97.2974 20.12 96.9294 19.896C96.5614 19.656 96.1134 19.536 95.5854 19.536C95.0894 19.536 94.6494 19.656 94.2654 19.896C93.8814 20.12 93.5854 20.44 93.3774 20.856C93.1694 21.272 93.0654 21.768 93.0654 22.344V30H89.9214V22.344C89.9214 21.768 89.8174 21.272 89.6094 20.856C89.4014 20.44 89.1054 20.12 88.7214 19.896C88.3534 19.656 87.9134 19.536 87.4014 19.536C86.9054 19.536 86.4654 19.656 86.0814 19.896C85.6974 20.12 85.4014 20.44 85.1934 20.856C84.9854 21.272 84.8814 21.768 84.8814 22.344V30H81.7374ZM103.909 30V16.944H107.053V30H103.909ZM103.909 15.48V12.12H107.053V15.48H103.909ZM109.956 30V16.944H112.908V19.512L112.668 19.056C112.972 18.272 113.468 17.68 114.156 17.28C114.86 16.864 115.676 16.656 116.604 16.656C117.564 16.656 118.412 16.864 119.148 17.28C119.9 17.696 120.484 18.28 120.9 19.032C121.316 19.768 121.524 20.624 121.524 21.6V30H118.38V22.344C118.38 21.768 118.268 21.272 118.044 20.856C117.82 20.44 117.508 20.12 117.108 19.896C116.724 19.656 116.268 19.536 115.74 19.536C115.228 19.536 114.772 19.656 114.372 19.896C113.972 20.12 113.66 20.44 113.436 20.856C113.212 21.272 113.1 21.768 113.1 22.344V30H109.956ZM130.567 30.288C129.287 30.288 128.119 29.992 127.063 29.4C126.023 28.808 125.191 28 124.567 26.976C123.959 25.952 123.655 24.784 123.655 23.472C123.655 22.16 123.959 20.992 124.567 19.968C125.191 18.944 126.023 18.136 127.063 17.544C128.103 16.952 129.271 16.656 130.567 16.656C131.847 16.656 133.007 16.952 134.047 17.544C135.087 18.136 135.911 18.944 136.519 19.968C137.143 20.976 137.455 22.144 137.455 23.472C137.455 24.784 137.143 25.952 136.519 26.976C135.895 28 135.063 28.808 134.023 29.4C132.983 29.992 131.831 30.288 130.567 30.288ZM130.567 27.408C131.271 27.408 131.887 27.24 132.415 26.904C132.959 26.568 133.383 26.104 133.687 25.512C134.007 24.904 134.167 24.224 134.167 23.472C134.167 22.704 134.007 22.032 133.687 21.456C133.383 20.864 132.959 20.4 132.415 20.064C131.887 19.712 131.271 19.536 130.567 19.536C129.847 19.536 129.215 19.712 128.671 20.064C128.127 20.4 127.695 20.864 127.375 21.456C127.071 22.032 126.919 22.704 126.919 23.472C126.919 24.224 127.071 24.904 127.375 25.512C127.695 26.104 128.127 26.568 128.671 26.904C129.215 27.24 129.847 27.408 130.567 27.408Z" fill="#0F172A" />
  <path fill-rule="evenodd" clip-rule="evenodd" d="M10.781 5.06214L17.5563 18.3982C17.9539 18.3395 18.3603 18.2884 18.7755 18.2455V2.49099C15.8555 2.69205 13.1337 3.60679 10.781 5.06214ZM21.2245 2.49099V18.0918C21.6082 18.0826 21.9986 18.0799 22.3958 18.0841L29.2051 5.05354C26.8555 3.60319 24.1387 2.69165 21.2245 2.49099ZM31.2136 6.49775L25.0937 18.2091C25.3577 18.2288 25.6384 18.2508 25.9333 18.2753L35.536 11.8266C34.4557 9.77767 32.9813 7.96759 31.2136 6.49775ZM36.5367 14.1046L29.7551 18.6587C32.3041 18.9588 35.1518 19.3872 37.551 19.967C37.5472 17.9091 37.1897 15.9362 36.5367 14.1046ZM30.7408 21.2489C29.0952 21.0338 27.5014 20.8692 26.1523 20.7518C25.4734 20.6927 24.8621 20.646 24.3444 20.611C23.9177 20.5821 23.4997 20.5614 23.0901 20.5483C22.4011 20.5262 21.7362 20.5258 21.0944 20.5451C20.7494 20.5555 20.411 20.5716 20.0793 20.5932C19.8257 20.6096 19.5759 20.6292 19.33 20.6519C18.7799 20.7025 18.2487 20.7683 17.7359 20.8478L17.5483 19.6378L17.7359 20.8478C17.5176 20.8817 17.3027 20.918 17.091 20.9567C16.527 21.0598 15.9861 21.1798 15.4676 21.3145C15.0006 21.4358 14.5571 21.569 14.1359 21.7123C8.09959 23.766 6.38234 28.0161 5.77345 30.2806C8.96401 34.6878 14.1478 37.551 20 37.551C21.7781 37.551 23.493 37.287 25.1083 36.7964C23.4194 35.1546 22.3116 33.4674 21.8159 31.7773C21.164 29.555 21.6088 27.4454 22.9593 25.685C24.276 23.9687 26.4006 22.6441 29.0482 21.747C29.5877 21.5642 30.1523 21.3979 30.7408 21.2489ZM27.6496 35.801C25.6468 34.0824 24.5724 32.4739 24.1659 31.088C23.7407 29.6387 24.0127 28.3353 24.9023 27.1757C25.8258 25.9719 27.4648 24.8693 29.8341 24.0665C31.8748 23.375 34.3974 22.9272 37.3264 22.8162C36.4026 28.5453 32.7037 33.3495 27.6496 35.801ZM4.14203 27.5311C5.1643 25.1603 7.1771 22.1978 11.2979 20.2258L3.42733 14.2065C2.79372 16.0191 2.44898 17.9683 2.44898 20C2.44898 22.6968 3.05648 25.2497 4.14203 27.5311ZM4.43044 11.8906L13.9763 19.1911C14.2609 19.1043 14.5526 19.022 14.8518 18.9442C14.9208 18.9263 14.9902 18.9086 15.0598 18.8912L8.77025 6.5112C6.99133 7.99392 5.51046 9.82158 4.43044 11.8906ZM8.48928 3.64256C11.7445 1.34789 15.7167 0 20 0C24.2819 0 28.2528 1.34698 31.5075 3.64025C34.4065 5.68299 36.7386 8.47724 38.2204 11.7416C39.3638 14.2606 40 17.0577 40 20C40 20.5537 39.9775 21.1024 39.9332 21.6452L39.9316 21.6654C39.3125 29.1694 34.5536 35.4944 27.9484 38.3579C25.5106 39.4148 22.822 40 20 40C13.1081 40 7.03107 36.513 3.43644 31.2126C1.2673 28.0142 0 24.1532 0 20C0 17.0607 0.63485 14.2663 1.77608 11.7494C3.25712 8.48291 5.58941 5.68672 8.48928 3.64256Z" fill="url(#paint0_linear_404_2)" />
  <defs>
    <linearGradient id="paint0_linear_404_2" x1="40" y1="0" x2="0" y2="40" gradientUnits="userSpaceOnUse">
      <stop stop-color="#BD00FF" />
      <stop offset="1" stop-color="#00ACFF" />
    </linearGradient>
  </defs>
</svg>